<?xml version="1.0" encoding="utf-8"?>
<!-- Generator: Adobe Illustrator 16.0.4, SVG Export Plug-In . SVG Version: 6.00 Build 0)  -->
<!DOCTYPE svg PUBLIC "-//W3C//DTD SVG 1.1//EN" "http://www.w3.org/Graphics/SVG/1.1/DTD/svg11.dtd">
<svg version="1.1" xmlns="http://www.w3.org/2000/svg" xmlns:xlink="http://www.w3.org/1999/xlink" x="0px" y="0px" width="1920px"
	 height="1080px" viewBox="0 0 1920 1080" style="enable-background:new 0 0 1920 1080;" xml:space="preserve">
<style type="text/css">
<![CDATA[
	.st0{fill:none;stroke:#FFFFFF;stroke-width:70;stroke-linejoin:round;stroke-miterlimit:10;}
	.st1{fill:#FFFFFF;}
	.st2{display:inline;}
	.st3{fill-rule:evenodd;clip-rule:evenodd;fill:#FFFFFF;}
	.st4{display:none;}
]]>
</style>
<g id="Layer_1" class="st4">
	<title>platform-icon</title>
	<g id="sing-sang-arw" class="st2">
		<path d="M484.6,1080h-26.2C196.2,1065.7-4.9,841.5,9.5,579.2C20.1,385,147.8,216.9,332,154.6c215.3-68.8,448.9,27.6,552.9,228.3
			l220.8,406.6c87.1,165.1,279.1,245.3,457.8,191c207.5-69.6,319.4-294.2,249.8-501.8c-14.9-44.3-37.4-85.6-66.7-122.1
			c-136.1-171.5-385.3-200.2-556.8-64.1c-11.9,9.5-23.3,19.6-34.1,30.4c-16.6,14.2-41.6,12.3-55.9-4.3c-12.7-14.8-12.7-36.7,0-51.5
			c185.6-185.8,486.8-186,672.6-0.3c185.8,185.6,186,486.8,0.3,672.6c-51.8,51.8-114.8,91-184.2,114.4
			c-215.3,68.8-448.9-27.6-552.9-228.3L814.7,418.9c-87.1-165.1-279.1-245.3-457.8-191C149.6,298,38.4,522.9,108.5,730.3
			c14.6,43.3,36.6,83.7,65,119.5c136.1,171.5,385.4,200.2,556.8,64.1c11.9-9.5,23.3-19.6,34.1-30.4c16.6-14.2,41.6-12.3,55.9,4.3
			c12.7,14.8,12.7,36.7,0,51.5C731.5,1028.9,610.7,1079.5,484.6,1080z"/>
		<path d="M1356.5,436c-3.7,0.5-7.4,0.5-11.1,0L1068,356.7c-21.1-5.9-33.3-27.8-27.4-48.9c0-0.1,0.1-0.2,0.1-0.3l79.3-277.4
			c4.9-21.3,26.2-34.6,47.5-29.7c21.3,4.9,34.6,26.2,29.7,47.5c-0.3,1.4-0.7,2.7-1.2,4l-68.6,237.8l237.8,68.2
			c21.9,3,37.2,23.1,34.3,45c-3,21.9-23.1,37.2-45,34.3L1356.5,436z"/>
	</g>
</g>
<g id="Layer_2">
	<path id="Ethernet_Head" class="st1" d="M1900.3,515.2v-17.1h-63.5v-19.7h63c-2.3-10.9-12.1-19.2-23.8-19.2h-173.9h-68.8h-3.5
		c-16.3,0-30.8,7.7-40.5,19.7H1569v53.1h-13.1v-51.1l-21.4,2v49.2h-13.1v-47.9l-21.9,2v45.9h-17v-44.3l-20.3,1.9v42.4h-17.5v-10.4
		v-30.1h-22.5c-3.6-1.2-45.4,12.4-45.4,30.1v83.2c0,17.7,41.8,31.3,45.4,30.1h22.5v-30.1v-14.8h17.5v46.5l20.3,1.5v-48h17v49.3
		l21.9,1.6v-50.9h13.1V642l21.4,1.6v-53.5h13.1v53.1h22.2c9.6,10.8,23.3,17.5,38.6,17.5h3.5h68.8H1876c10.3,0,19.1-6.4,22.6-15.3
		h-61.8v-19.7h63.5v-17.1h-63.5v-19.7h63.5v-17.1h-63.5v-19.7h63.5v-17.1h-63.5v-19.7H1900.3z M1677.5,639.1c0,2.4-2,4.4-4.4,4.4
		H1626c-2.4,0-4.4-2-4.4-4.4V480.9c0-2.4,2-4.4,4.4-4.4h47.1c2.4,0,4.4,2,4.4,4.4V639.1z"/>
	<g id="COAX">
		<path class="st3" d="M145.8,459.9c14-1.2,22.7,6.5,30.3,16.2c30.1,38.4,30.7,118.6,1.1,157.5c-8.4,11-16.4,15.5-29.4,15.8
			c25.9-16.5,33.4-42.2,37.5-69.4c3.8-24.9,2-49.6-5.7-73.7C173.4,487.3,164.4,470.2,145.8,459.9z"/>
		<path class="st3" d="M305.9,530c2.1-35.4-24.7-58.8-27.8-62.1c-4.8-4.7-13.5-15.7-21.3-23.5c-3-3-8.3-5.3-12.6-5.3
			c-24.3-0.2-48.6,1.3-72.8,0.3c-13.5-0.6-22.7,3.7-30.2,14.3c-1.9,2.7-6.3,4.8-9.7,4.9c-16.3,0.5-32.6,1.3-48.9,0.1
			c-23.8-1.7-38.8,9.8-47.8,30c-7.8,17.4-12.4,34.9-13.9,52.4h18c2.3-26,10.4-47.1,21.1-55.6c3.2-2.7,6.5-4,9.9-3.9
			c0.1,0,0.3,0,0.4,0c16.3,0,29.8,27.9,31.9,64.1H17.9c-6,0-10.9,4.9-10.9,10.9c0,6,4.9,10.9,10.9,10.9H102
			c-2.1,29.3-11.5,52.8-23.9,59.9c-2.6,1.7-5.3,2.4-7.9,2.2c-15.3,0-28.1-24.6-31.3-57.6H21.3c2.1,16.8,7,33.6,14.7,50.3
			c9.4,20.4,25,31.9,49.2,29.4c12.8-1.3,25.9,0,38.7-0.9c9.4-0.7,16.7,1.2,22,9.3c6.2,9.4,15,11.6,26.1,11.1
			c24.6-1.1,49.2-1.1,73.8-1.1c6.5,0,10.8-2.2,15-7c13.2-15.4,27-30.2,40-45.8c3-3.6,5.2-9.1,5.3-13.8
			C306.3,579.1,304.4,554.4,305.9,530z M177.2,633.7c-8.4,11-16.4,15.5-29.4,15.8c25.9-16.5,33.4-42.2,37.5-69.4
			c3.8-24.9,2-49.6-5.7-73.7c-6.1-19.1-15.1-36.2-33.7-46.4c14-1.2,22.7,6.5,30.3,16.2C206.2,514.6,206.8,594.8,177.2,633.7z"/>
		<path class="st3" d="M454.9,478.3c-3.9-0.3-8.7-2.7-11.2-5.6c-4.8-5.6-9.9-10-15.7-12.9H288.5c9,10.5,18,20.9,26.6,31.5
			c2.3,2.9,4.4,6.9,4.4,10.4c0.7,34.4,1.1,68.9,1.1,103.3c0,3.8-2,8.3-4.5,11.3c-7.7,9.4-16,18.4-24.8,28.3h134
			c10.3-3.9,18.2-11.4,24.7-22.3c1.4-2.5,5.7-5,8.4-4.7C497.7,621.7,490.8,480.7,454.9,478.3z"/>
	</g>
	<path class="st0" d="M444.5,554.7c0,0,36,0,86,0s98,46.8,98,130.8c0,64,0,102.2,0,180c0,211.5,318,215.5,318,4c0-332,0-299.5,0-584
		s326-236,326-4c0,67.8,0,119,0,157.6c0,118.4,96,118.4,96,118.4h60"/>
</g>
</svg>
