<svg xmlns="http://www.w3.org/2000/svg" xmlns:xlink="http://www.w3.org/1999/xlink" width="1920" height="720" viewBox="0 0 1920 720">
  <defs>
    <clipPath id="clip-path">
      <circle id="Digital_Fiber_Circle" data-name="Digital Fiber Circle" cx="1108.03" cy="346.35" r="121.35" transform="translate(-35.12 144.1) rotate(-7.33)" style="fill: none"/>
    </clipPath>
  </defs>
  <title>Artboard 1</title>
  <g id="cBR-8_Architecture" data-name="cBR-8 Architecture">
    <g id="CCAP_Core_Icon" data-name="CCAP Core Icon">
      <rect x="864.74" y="280.89" width="90.93" height="134.57" style="fill: none;stroke: #fff;stroke-linejoin: round;stroke-width: 3.6370400000000003px"/>
      <path d="M910.2,348.18a25.46,25.46,0,1,1-25.46,25.46A25.46,25.46,0,0,1,910.2,348.18Zm0,2.82a22.82,22.82,0,0,0-4.56.46l-.94.29v9.92h-5.06l10.12,10.12,10.11-10.12h-5.06v-10.2h0A22.82,22.82,0,0,0,910.2,351ZM898,363.7v5.06h-9.83l-.1.32a22.83,22.83,0,0,0,0,9.12l.21.67H898v5.06l10.12-10.12Zm23.61,0-10.12,10.11,10.12,10.12v-5.06h10.61l.21-.67a22.83,22.83,0,0,0,0-9.12l-.1-.32H921.56Zm-11.8,12.14L899.64,386h5.06v9.58l.94.29a22.83,22.83,0,0,0,9.12,0h0V386h5.06Z" style="fill: #fff;fill-rule: evenodd"/>
      <line x1="865.9" y1="335.45" x2="955.66" y2="335.45" style="fill: none;stroke: #fff;stroke-linejoin: round;stroke-width: 3.5941400000000003px;stroke-dasharray: 10.782400131225586,3.59414005279541"/>
      <line x1="893.83" y1="313.63" x2="933.17" y2="313.63" style="fill: none;stroke: #fff;stroke-linejoin: round;stroke-width: 3.6370400000000003px"/>
      <line x1="890.2" y1="295.94" x2="937.49" y2="311.87" style="fill: none;stroke: #fff;stroke-linejoin: round;stroke-width: 3.6370400000000003px"/>
      <line x1="937.49" y1="296.43" x2="890.2" y2="312.36" style="fill: none;stroke: #fff;stroke-linejoin: round;stroke-width: 3.6370400000000003px"/>
      <line x1="893.83" y1="295.44" x2="933.17" y2="295.44" style="fill: none;stroke: #fff;stroke-linejoin: round;stroke-width: 3.6370400000000003px"/>
      <rect x="928.39" y="290.65" width="14.55" height="7.27" style="fill: #59595c;stroke: #fff;stroke-linejoin: round;stroke-width: 7.27409px"/>
      <rect x="882.92" y="290.65" width="14.55" height="7.27" style="fill: #59595c;stroke: #fff;stroke-linejoin: round;stroke-width: 7.27409px"/>
      <rect x="928.96" y="309.88" width="14.55" height="7.27" style="fill: #59595c;stroke: #fff;stroke-linejoin: round;stroke-width: 7.27409px"/>
      <rect x="883.5" y="309.88" width="14.55" height="7.27" style="fill: #59595c;stroke: #fff;stroke-linejoin: round;stroke-width: 7.27409px"/>
    </g>
    <line x1="1487.24" y1="293.02" x2="1577.88" y2="293.02" style="fill: none;stroke: #fff;stroke-miterlimit: 10;stroke-width: 2px"/>
    <line x1="1487.24" y1="399.57" x2="1574.95" y2="399.57" style="fill: none;stroke: #fff;stroke-miterlimit: 10;stroke-width: 2px"/>
    <line x1="1227.83" y1="348.18" x2="1352.24" y2="293.02" style="fill: none;stroke: #fff;stroke-miterlimit: 10;stroke-width: 2px"/>
    <line x1="1227.83" y1="348.18" x2="1352.24" y2="398.57" style="fill: none;stroke: #fff;stroke-miterlimit: 10;stroke-width: 2px"/>
    <polygon id="House" points="1661.81 495.15 1640.35 477.04 1640.35 458.93 1628.37 458.93 1628.37 467.57 1611.21 455.03 1560.94 495.15 1574.88 495.15 1575.15 539.74 1647.32 539.74 1647.32 494.88 1661.81 495.15" style="fill: none;stroke: #fff;stroke-linejoin: round;stroke-width: 3px"/>
    <path d="M833.74,375.38V331.19a178.34,178.34,0,0,1-5.53,44.19Z" style="fill: #fff;fill-rule: evenodd;opacity: 0.1608"/>
    <path d="M390.5,205.34c.28-1.13.59-2.26.87-3.39h0l-.87.51Z" style="fill: #fff;fill-rule: evenodd;opacity: 0.1608"/>
    <path d="M483,375.38a178.34,178.34,0,0,1-5.53-44.19v44.19Z" style="fill: #fff;fill-rule: evenodd;opacity: 0.1608"/>
    <path d="M365,88.92H352.11l-7.69-8.41V73.9H304.73l.44,15H281.86V175H261.49V136.57H238.77v45.75H204.54V320.67H186.45V224.19h-23V204.25l-21.59-16.82V132h-21.1V111.14l-10.23-1.2-9-9V99.68H60.25v20H34.09V250h-9.6v-63H-9V375.38H250.48v-45.9l7-24h61.11V244.4l11.69-24.24H376a6,6,0,0,1,.64-1.39A3.59,3.59,0,0,1,380,217c1.88,0,3.75,0,5.63,0h1.82l0-.05c.5-2,1-4,1.57-6,.46-1.7.88-3.41,1.31-5.11h-7.09a24.76,24.76,0,0,1-8.83,1.6,20.12,20.12,0,0,1-3.79-.28,14.91,14.91,0,0,1-5.41-2.17c-.1-.07-.25-.13-.23-.27s0,0,0,0a1.27,1.27,0,0,1-.61-1.18s0-.14,0-.23a10,10,0,0,1,1.27-3.61,46,46,0,0,1,3.73-5.92,114,114,0,0,1,7.54-9.31c1.77-2,3.56-3.92,5.41-5.81.27-.28.27-.28.46-.31-1.41-1.41-2.57-2.6-4-4a.8.8,0,0,0-.78-.25,3.12,3.12,0,0,1-.7.09h0a3,3,0,1,1,3-3,2.63,2.63,0,0,1,0,.49,1,1,0,0,1,0,.18.76.76,0,0,0,.23.79c1.14,1.12,2.27,2.26,3.4,3.39.25.26.51.51.77.77a.51.51,0,0,1,.17-.24c.72-.67,1.43-1.36,2.14-2q2.19-2.1,4.48-4.09,3.52-3.09,7.28-5.9V92H365ZM8.68,219.88h-7V203.05h7ZM30.33,310h-7V293.16h7ZM67.2,129.77h7v16.82h-7Zm11.65,62.35v15h-7v-15ZM67.2,151.39h7v16.82h-7Zm-10.83-21h7v16.82h-7Zm-12.63-.6h9.62v16.82H43.74ZM54,247.51H44.34V230.69H54Zm0-78.7H44.34V152H54Zm9.44,78.1h-7V230.09h7Zm.6-78.1H57V152h7Zm10.22,78.7h-7V230.69h7Zm9,0h-7V230.69h7Zm.6-79.3h-7V151.39h7Zm0-21.62h-7V129.77h7Zm33.08,161.59h-7V291.36h7Zm0-37.84h-7V253.51h7Zm.6-37.25h-7V216.27h7Zm15.12-77.49h-7v-15h7ZM147,331h-7V314.19h7Zm34.45-21H173V292.56h8.41Zm-7.81-27.63V265.53h7v16.82Zm7.81-30H173V234.89h8.41Zm45.77-18.6h-7v-15h7Zm0-25h-7v-15h7Zm31.87-37.55h-7.18V153.79h7.18Zm38.35-72.53h7v15h-7Zm9.74,145h-7.42v-16h7.42Zm2.05-38.33H301.8v-16h7.43Zm1.11-32.12h-7.43v-16h7.43Zm9,32.12H312V189.23h7.43Zm1.11-32.12h-7.43v-16h7.43Zm9.84-.08h-7v-16h7ZM333.44,157h7v16.05h-7ZM341,206.82h-7.43v-16H341Zm21-88.34h-8.21V101.66h8.21Zm24.37-17h7v17h-7Zm-10.15.09h7v16.9h-7Zm-1,58.73h-8.21V143.48h8.21Zm-9.23-58.22h8.21v16.82h-8.21Z" style="fill: #fff;fill-rule: evenodd;opacity: 0.1608"/>
    <line x1="1421" y1="192.59" x2="1564" y2="192.59" style="fill: none;stroke: #fff;stroke-linejoin: round;stroke-width: 2px"/>
    <line x1="1421.8" y1="513.99" x2="1572.85" y2="513.99" style="fill: none;stroke: #fff;stroke-linejoin: round;stroke-width: 2px"/>
    <g id="FIber_Node" data-name="FIber Node">
      <path d="M1421.58,511.49a34.76,34.76,0,1,1-34.76-34.76A34.76,34.76,0,0,1,1421.58,511.49Z" style="fill: none;stroke: #fff;stroke-miterlimit: 10;stroke-width: 3px"/>
      <path d="M1389.26,504.55l-.06,1.11c-.11,3.51,0,11.47,0,16.69a66.18,66.18,0,0,1,5.06-11.35l2-3,.9,1.35a4.37,4.37,0,0,0,3.12,1.31l.35-.07-1,1.22c-3.09,4.15-6.72,11.79-7.66,15.92-1.07,4.71-.71,10.79-.55,16h-8.82c-.06-4.39.68-9.32-1.13-14.73a83.58,83.58,0,0,0-8.67-16.76l-1-1.31,1.37-.28a4.16,4.16,0,0,0,2.2-2.22l0-.23,2.18,3.19a55.42,55.42,0,0,1,5.94,12c.19-4.23.14-14.68-.14-18.29l0-.43.87.59a5.09,5.09,0,0,0,4,0Z" style="fill: #fff;fill-rule: evenodd"/>
      <path d="M1364.25,504.55c0-2.08,2-3.76,4.39-3.76s4.39,1.68,4.39,3.76-2,3.76-4.39,3.76S1364.25,506.63,1364.25,504.55Z" style="fill: #fff"/>
      <circle cx="1385.57" cy="497.03" r="5.02" style="fill: #fff"/>
      <circle cx="1402.5" cy="503.92" r="4.39" style="fill: #fff"/>
    </g>
    <path d="M465.86,220.16H416.71a4.85,4.85,0,0,0-1.34-2.25,3.16,3.16,0,0,0-2.24-.92h-7.9l0-.17c-.24-1.24-3.05-11.85-3.73-14.45-.59-2.29-1.19-4.58-1.78-6.87.9-.85,1.77-1.74,2.6-2.66a49.69,49.69,0,0,0,6.65-9.19,39.8,39.8,0,0,0,3.41-8.08,24.71,24.71,0,0,0,1.06-8.87,15,15,0,0,0-2.24-7.08c0-.78-.49-1.18-1.52-1.17a8.68,8.68,0,0,0-3.15,1.05,46.18,46.18,0,0,0-6.83,4.31c-2.81,2.05-5.5,4.25-8.12,6.54q-2.3,2-4.48,4.09c-.71.68-1.42,1.37-2.14,2a.51.51,0,0,0-.17.24c-.26-.26-.52-.51-.77-.77-1.13-1.13-2.26-2.27-3.4-3.39a.76.76,0,0,1-.23-.79,1,1,0,0,0,0-.18,2.63,2.63,0,0,0,0-.49,3,3,0,1,0-3,3h0a3.12,3.12,0,0,0,.7-.09.8.8,0,0,1,.78.25c1.4,1.42,2.56,2.61,4,4-.19,0-.19,0-.46.31-1.85,1.89-3.64,3.84-5.41,5.81a114,114,0,0,0-7.54,9.31,46,46,0,0,0-3.73,5.92,10,10,0,0,0-1.27,3.61c0,.09,0,.18,0,.23a1.27,1.27,0,0,0,.61,1.18s0,0,0,0,.13.2.23.27a14.91,14.91,0,0,0,5.41,2.17,20.12,20.12,0,0,0,3.79.28,24.76,24.76,0,0,0,8.83-1.6,40.57,40.57,0,0,0,8.08-3.86h0c-.74,3-1.5,6-2.3,9-.54,2-1.07,4-1.57,6l0,.05h-1.82c-1.88,0-3.75,0-5.63,0a3.59,3.59,0,0,0-3.38,1.79,6,6,0,0,0-.64,1.39H330.24L318.55,244.4v61.1H257.44l-7,24V444.73h227V242.08Z" style="fill: none;stroke: #fff;stroke-miterlimit: 10;stroke-width: 3px"/>
    <circle id="Digital_Fiber_Circle-2" data-name="Digital Fiber Circle" cx="1108.03" cy="346.32" r="121.35" transform="translate(-35.11 144.1) rotate(-7.33)" style="fill: none;stroke: #fff;stroke-miterlimit: 10;stroke-width: 3px"/>
    <polygon id="House-2" data-name="House" points="1661.81 388.48 1640.36 370.36 1640.36 352.25 1628.37 352.25 1628.37 360.89 1611.21 348.35 1560.94 388.48 1574.88 388.48 1575.15 433.06 1647.32 433.06 1647.32 388.2 1661.81 388.48" style="fill: none;stroke: #fff;stroke-linejoin: round;stroke-width: 3px"/>
    <g id="FIber_Node-2" data-name="FIber Node">
      <path d="M1421.58,192.59a34.76,34.76,0,1,1-34.76-34.76A34.76,34.76,0,0,1,1421.58,192.59Z" style="fill: none;stroke: #fff;stroke-miterlimit: 10;stroke-width: 3px"/>
      <path d="M1389.26,185.65l-.06,1.11c-.11,3.51,0,11.46,0,16.69a65.83,65.83,0,0,1,5.06-11.35l2-3,.9,1.35a4.37,4.37,0,0,0,3.12,1.31l.35-.08-1,1.23c-3.09,4.15-6.72,11.78-7.66,15.91-1.07,4.72-.71,10.79-.55,15.95h-8.82c-.06-4.39.68-9.32-1.13-14.72a83.66,83.66,0,0,0-8.67-16.77l-1-1.3,1.37-.28a4.18,4.18,0,0,0,2.2-2.23l0-.22,2.18,3.18a55.51,55.51,0,0,1,5.94,12c.19-4.24.14-14.68-.14-18.3l0-.43.87.6a5.21,5.21,0,0,0,4,0Z" style="fill: #fff;fill-rule: evenodd"/>
      <path d="M1364.25,185.65c0-2.08,2-3.77,4.39-3.77s4.39,1.69,4.39,3.77-2,3.76-4.39,3.76S1364.25,187.72,1364.25,185.65Z" style="fill: #fff"/>
      <path d="M1380.55,178.12a5,5,0,1,1,5,5A5,5,0,0,1,1380.55,178.12Z" style="fill: #fff"/>
      <path d="M1398.11,185a4.39,4.39,0,1,1,4.39,4.39A4.39,4.39,0,0,1,1398.11,185Z" style="fill: #fff"/>
    </g>
    <g id="RPHY_and_FIber_Node" data-name="RPHY and FIber Node">
      <path d="M1450.88,366.21a33.36,33.36,0,0,1,0,66.72H1388.6a33.36,33.36,0,1,1,0-66.72h62.28m0-3H1388.6a36.36,36.36,0,1,0,0,72.72h62.28a36.36,36.36,0,0,0,0-72.72Z" style="fill: #fff"/>
      <g>
        <path d="M1451.8,392.05l-.06,1.11c-.12,3.51,0,11.47,0,16.69a66.18,66.18,0,0,1,5.07-11.35l2-3,.89,1.35a4.38,4.38,0,0,0,3.12,1.31l.36-.07-1,1.22c-3.09,4.15-6.72,11.78-7.65,15.91-1.07,4.72-.72,10.8-.55,15.95h-8.83c0-4.39.68-9.32-1.12-14.72a84.63,84.63,0,0,0-8.67-16.76l-1-1.31,1.38-.28a4.17,4.17,0,0,0,2.19-2.22l0-.23,2.18,3.19a55.88,55.88,0,0,1,5.94,12c.18-4.24.13-14.68-.15-18.3l0-.42.88.59a5.18,5.18,0,0,0,4,0Z" style="fill: #fff;fill-rule: evenodd"/>
        <path d="M1426.79,392.05c0-2.08,2-3.76,4.39-3.76s4.39,1.68,4.39,3.76-2,3.76-4.39,3.76S1426.79,394.13,1426.79,392.05Z" style="fill: #fff"/>
        <path d="M1443.09,384.53a5,5,0,1,1,5,5A5,5,0,0,1,1443.09,384.53Z" style="fill: #fff"/>
        <path d="M1460.64,391.42a4.39,4.39,0,1,1,4.39,4.39A4.4,4.4,0,0,1,1460.64,391.42Z" style="fill: #fff"/>
      </g>
      <g id="R_PHY_Node_Icon" data-name="R PHY Node Icon">
        <path d="M1390,372.41a27.16,27.16,0,1,1-27.16,27.16A27.16,27.16,0,0,1,1390,372.41Zm0,3a24.38,24.38,0,0,0-4.87.49l-1,.31v10.59h-5.4l10.79,10.79,10.8-10.79h-5.4V375.92h-.06A24.2,24.2,0,0,0,1390,375.42ZM1376.91,389v5.39h-10.49l-.11.34a24.45,24.45,0,0,0,0,9.74l.23.71h10.37v5.4l10.79-10.79Zm25.19,0-10.8,10.79,10.8,10.79v-5.4h11.32l.22-.71a24.45,24.45,0,0,0,0-9.74l-.1-.34H1402.1Zm-12.6,12.95-10.79,10.79h5.4v10.22l1,.31a24.4,24.4,0,0,0,9.73,0l.06,0V412.71h5.4Z" style="fill: #fff;fill-rule: evenodd"/>
      </g>
    </g>
    <path id="Business_Icon" data-name="Business Icon" d="M1654,163.2h-15.8V144a2.72,2.72,0,0,0-1.2-2.1l-25.8-13-25.8,13a2.44,2.44,0,0,0-1.2,2.1v19.2h-15.8a4.61,4.61,0,0,0-4.5,4.5v52.5h94.5V167.7a4.34,4.34,0,0,0-4.4-4.5m-65.3,43.3h-8.9v-9h8.9Zm0-20.6h-8.9v-9h8.9Zm18.1,20.6h-9v-9h9Zm0-20.6h-9v-9h9Zm-4.6-34.2a9,9,0,0,1,18,0,9,9,0,1,1-18,0Zm22.6,54.8h-9v-9h9Zm0-20.6h-9v-9h9Zm17.9,20.6h-8.9v-9h8.9Zm0-20.6h-8.9v-9h8.9Z" style="fill: none;stroke: #fff;stroke-linejoin: round;stroke-width: 3px"/>
    <g>
      <path d="M990.2,375.4a120.79,120.79,0,0,1-3.5-29.1v29.1Z" style="fill: #fff;opacity: 0.160799995064735;isolation: isolate"/>
      <path d="M1921.8,250.1h-32.1V279h-9.6V184.2h-27.3V164.1h-37.7L1803.9,177h-8.8v18.5h-20.9v57l-5.1,5.1-23.4-23.4V209.3l-20.9-20.9v-57h-20.9V113h-8.8l-11.3-12.9H1646v20.1h-27.3v12.4l8.6,4.3v-7.1h7.8v9l3.3,5.1v19.2h15.8a4.61,4.61,0,0,1,4.5,4.5v52.5H1564V167.6a4.48,4.48,0,0,1,4.5-4.5h1.1V97.9h-77.7v18h-32.1v89.3H1435V139.6h-13.3V92.5h-32.9c-.9.9-1.8,1.8-2.8,2.9-.8.8-1.7,1.8-2.7,2.7v41.5h-11.8V104.4h-.1c-.2-.1-.3-.1-.5-.2a.76.76,0,0,0-.4-.2c-.3-.2-.5-.3-.8-.5-.1-.1-.3-.2-.4-.3-.3-.3-.5-.7-.8-1a5.36,5.36,0,0,1-.5-1.1,5.27,5.27,0,0,1-.3-1.2,3.4,3.4,0,0,1-.1-1V98l-30.1,41.7h-16.2v36h-23.8v29.6h-52.9V179.4H1222V146h-15v63h-35.4V92h-33.9V88.9h-12.9l-3.6-3.9h-43.5l.1,3.9h-23.3V175h-20.4V136.6h-22.7v45.7H977.2v59.8l9.5,24.7v79.5a121.38,121.38,0,0,1,85.7-116v-2.6h7.4v.6A119,119,0,0,1,1108,225a121.45,121.45,0,0,1,117.8,150.4h135.65a36.24,36.24,0,0,1,27.15-12.19h62.28A36.26,36.26,0,0,1,1478,375.4h99.16l33.9-27,17.2,12.5v-8.6h12v18.1l5.9,5H1929V249.3ZM999.9,233.7h-7v-15h7Zm0-25h-7v-15h7Zm31.8-37.6h-7.2V153.8h7.2Zm38.4-57.5v-15h7v15Zm11.8,91.7h-7.4v-16h7.4Zm1.1-32.1h-7.4v-16h7.4Zm9,32.1h-7.4V189.2h7.4Zm1.1-32.1h-7.4V157.1h7.4Zm9.9-.1h-7v-16h7Zm3.1-16.1h7v16.1h-7Zm7.5,49.8h-7.4v-16h7.4Zm21-88.3h-8.2V101.7h8.2Zm4-16.4h8.2v16.8h-8.2Zm9.2,58.2h-8.2V143.5h8.2Zm1-58.7h7v16.9h-7Zm14.4,104.2h-7.4V189.7h7.4Zm2.8-87.3h-7v-17h7Zm73.2,111.7h-7.8V213.8h7.8Zm.2-27H1232V187.1h7.4Zm13.1,27h-7.8V213.8h7.8Zm5.6-16.4h7.8v16.4h-7.8Zm.7,24.4h7.8v16.4h-7.8Zm7.9,40.7h-7.8V262.5h7.8Zm4.7-65.1h7.8v16.4h-7.8Zm.7,24.4h7.8v16.4h-7.8Zm7.9,40.7h-7.8V262.5h7.8Zm39,24.6h-7.8V287.1h7.8Zm0-24.6h-7.8V262.5h7.8Zm13.4,0h-7.8V262.5h7.8Zm134.7-49h7.8v16.4h-7.8ZM1415,147.2h10.1v21.4H1415Zm-63.1,156.3h-7.8V287.1h7.8Zm18.7-141.7V147.2h10.1v11.2a35.93,35.93,0,0,1,4.6-.5V147.2h10.1V159a25.06,25.06,0,0,1,4.6,1.6V147.3h10.1V167a37.14,37.14,0,0,1,6.6,8.2h7.6v21.4h-3a34.77,34.77,0,1,1-50.7-34.8Zm7.8,189.6h-7.8V335h7.8Zm110-56.1h-1.23a36.37,36.37,0,0,1-36.29,34.11H1388.6a36.36,36.36,0,1,1,0-72.72h62.28a36.21,36.21,0,0,1,16.42,3.92V254.5h7.8v11.44a36.37,36.37,0,0,1,9.29,13h4Zm159.9-149.1h-7.8V129.8h7.8Zm5.6,0V129.8h7.8v16.4Zm-101.8-39.5h7.8V123h-7.8Zm-13.3,0h7.8V123h-7.8Zm-26.7,0h7.8V123h-7.8Zm8.8,62.7h-7.8V153h7.8Zm12.3-46.4h-7.8V106.6h7.8Zm5.6,6.9h7.8v16.4h-7.8Zm8.8,39.5h-7.8V153h7.8Zm4.5-39.5h7.8v16.4h-7.8Zm1.1,23.2h7.8v16.4h-7.8Zm109.2,171.2H1608v6h-41.7V303.7h-6.2l18-9.6V280.8a4,4,0,0,1,4-3.9h16.1V253.2a4,4,0,0,1,4-4h14.1a4,4,0,0,1,4,4v37.5h20.1V268a11,11,0,0,1,22,0Zm4.8-194.4h7.8v16.4h-7.8Zm8.6,122.7H1668V236.2h7.8Zm13.3,66.4h-7.8V302.6h7.8Zm0-66.4h-7.8V236.2h7.8Zm16.2-67.2h-7.8V169h7.8Zm13.4,0h-7.8V169h7.8ZM1729.1,319h-7.8V302.6h7.8Zm62.2-97h-7.8V205.6h7.8Zm12.6,24.4h-7.8V230h7.8Zm.7-24.4h-7.8V205.6h7.8Zm12.6,24.4h-7.8V230h7.8Zm.7-24.4h-7.8V205.6h7.8Zm12.6,24.4h-7.8V230h7.8Zm.7-24.4h-7.8V205.6h7.8Zm12.6,24.4H1836V230h7.8Zm10.3,60.3h-7.8V290.3h7.8Zm13.3,0h-7.8V290.3h7.8Z" style="fill: #fff;opacity: 0.160799995064735;isolation: isolate"/>
    </g>
    <g>
      <path d="M1651.3,257.1a10.93,10.93,0,0,0-10.9,10.9v22.6h-20.1V253.1a4,4,0,0,0-4-4h-14.1a4,4,0,0,0-4,4v23.7h-16.1a4,4,0,0,0-4,3.9V294l6.5-3.5h-.5v-7.8h10v7.8h-4.5l7.8,4.2v-6.6h5.5v9.5l1.3.7v-1.8h10v7.9H1608v5.9h6.2v7.9H1608v5.9h54.3V268A11,11,0,0,0,1651.3,257.1Zm-37.1,33.6h-10v-7.8h10Zm0-13.8h-10V269h10Zm0-13.9h-10v-7.9h10Zm22,55.4h-12v-7.9h12Zm0-13.9h-12v-7.9h12Zm20.1,13.9h-10v-7.9h10Zm0-13.9h-10v-7.9h10Zm0-13.8h-10v-7.8h10Zm0-13.8h-10V269h10Z" style="fill: none;stroke: #fff;stroke-linejoin: round;stroke-width: 3px"/>
      <polygon points="1597.5 288.2 1603 288.2 1603 297.7 1614.2 303.7 1608 303.7 1608 330.3 1566.4 330.3 1566.4 303.7 1560.1 303.7 1587.2 289.3 1597.5 294.8 1597.5 288.2" style="fill: none;stroke: #fff;stroke-linejoin: round;stroke-width: 3px"/>
    </g>
  </g>
  <g id="Layer_4" data-name="Layer 4">
    <g id="Digital_Fiber_Clipped" data-name="Digital Fiber Clipped">
      <g style="clip-path: url(#clip-path)">
        <circle id="Digital_Fiber_Circle-3" data-name="Digital Fiber Circle" cx="1108.03" cy="346.35" r="121.35" transform="translate(-35.12 144.1) rotate(-7.33)" style="fill: none;stroke: #fff;stroke-miterlimit: 10;stroke-width: 4px;opacity: 0.8"/>
        <text transform="translate(960.14 218.42)" style="opacity: 0.30000000000000004;font-size: 12px;fill: #fff;font-family: MyriadPro-Regular, Myriad Pro;letter-spacing: -0.010009765625em">0101010111001101101001010101111000001010101101010<tspan x="0" y="12">1010101101100101010110110110110101010101011100110</tspan><tspan x="0" y="24">1101001010101111000001010101101010101010110110010</tspan><tspan x="0" y="36">1010110110110110101010101011100110110100101010111</tspan><tspan x="0" y="48">1000001010101101010101010110110010101011011011011</tspan><tspan x="0" y="60">0101010101011100110110100101010111100000101010110</tspan><tspan x="0" y="72">1010101010110110010101011011011011010101010101110</tspan><tspan x="0" y="84">0110110100101010111100000101010110101010101011011</tspan><tspan x="0" y="96">0010101011011011011010101010101110011011010010101</tspan><tspan x="0" y="108">0111100000101010110101010101011011001010101101101</tspan><tspan x="0" y="120">1011010101010101110011011010010101011110000010101</tspan><tspan x="0" y="132">0110101010101011011001010101101101101101010101010</tspan><tspan x="0" y="144">1110011011010010101011110000010101011010101010101</tspan><tspan x="0" y="156">1011001010101101101101101010101010111001101101001</tspan><tspan x="0" y="168">0101011110000010101011010101010101101100101010110</tspan><tspan x="0" y="180">1101101101010101010111001101101001010101111000001</tspan><tspan x="0" y="192">0101011010101010101101100101010110110110110101010</tspan><tspan x="0" y="204">1010111001101101001010101111000001010101101010101</tspan><tspan x="0" y="216">0101101100101010110110110110101010101011100110110</tspan><tspan x="0" y="228">1001010101111000001010101101010101010110110010101</tspan><tspan x="0" y="240">0110110110110101010101011100110110100101010111100</tspan><tspan x="0" y="252">0001010101101010101010110110010101011011011011010</tspan><tspan x="0" y="264">1010101011100110110100101010111100000101010110101</tspan></text>
      </g>
    </g>
    <line x1="854.39" y1="192.62" x2="1352.06" y2="192.62" style="fill: none;stroke: #fff;stroke-linejoin: round;stroke-width: 2px"/>
    <line x1="852.65" y1="514.02" x2="1352.99" y2="514.02" style="fill: none;stroke: #fff;stroke-linejoin: round;stroke-width: 1.9794600000000002px"/>
    <g id="R_PHY_Icon" data-name="R PHY Icon">
      <path d="M807.48,177.12l-7.17,7.42a2.22,2.22,0,0,0,0,2.68,1.67,1.67,0,0,0,2.59,0l4.18-4.13v14.23a1.8,1.8,0,1,0,3.59,0V182.89l4.18,4.33a1.67,1.67,0,0,0,2.59,0,1.79,1.79,0,0,0,0-2.68l-7.17-7.42A1.87,1.87,0,0,0,807.48,177.12Z" style="fill: #fff;fill-rule: evenodd"/>
      <path d="M810.27,241.94l7.17-7.63a1.79,1.79,0,0,0,0-2.68,1.84,1.84,0,0,0-2.59.2L810.67,236V221.73a1.61,1.61,0,0,0-1.8-1.85,1.81,1.81,0,0,0-1.79,1.85v14.43l-4.18-4.33a1.67,1.67,0,0,0-2.59,0,2.22,2.22,0,0,0,0,2.68l7.37,7.43A1.67,1.67,0,0,0,810.27,241.94Z" style="fill: #fff;fill-rule: evenodd"/>
      <path d="M790.11,204.62h36.64a.21.21,0,0,1,.2.22v9.37a.21.21,0,0,1-.2.22H790.11a.22.22,0,0,1-.21-.22v-9.37A.22.22,0,0,1,790.11,204.62Zm4,2.67-1.53,4.3h1.84l1.64-4.3Zm3.16,0-1.53,4.3h1.84l1.64-4.3Zm3.13,0-1.53,4.3h1.84l1.64-4.3Zm3.16,0-1.53,4.3h1.84l1.64-4.3Zm3.21,0-1.53,4.3h1.83l1.65-4.3Zm15.72.72a1.44,1.44,0,1,0,1.36,1.44A1.4,1.4,0,0,0,822.47,208Z" style="fill: #fff;fill-rule: evenodd"/>
      <path d="M784.89,200.26a1.78,1.78,0,0,1,1.3,3.1l-3.68,3.73-.39.39H787a1.84,1.84,0,0,1,0,3.68l-5,.12,4.21,4.46a1.88,1.88,0,0,1,0,2.44,1.7,1.7,0,0,1-2.61,0l-7.41-7.31a1.93,1.93,0,0,1,.2-2.64l7.21-7.51A2.22,2.22,0,0,1,784.89,200.26Z" style="fill: #fff;fill-rule: evenodd"/>
      <path d="M833.06,218.79a2.07,2.07,0,0,1-1.3-.48,2.4,2.4,0,0,1,0-2.8l3.68-3.95.39-.42h-4.89a2,2,0,0,1,0-3.89l5-.12-4.21-4.73a2.07,2.07,0,0,1,0-2.58,1.63,1.63,0,0,1,2.6,0l7.42,7.74a2.13,2.13,0,0,1-.2,2.79l-7.22,8A2.07,2.07,0,0,1,833.06,218.79Z" style="fill: #fff;fill-rule: evenodd"/>
    </g>
    <g id="R_PHY_Icon-2" data-name="R PHY Icon">
      <path d="M807.48,461l-7.17,7.42a2.23,2.23,0,0,0,0,2.69,1.67,1.67,0,0,0,2.59,0l4.18-4.13v14.23a1.8,1.8,0,1,0,3.59,0V466.78l4.18,4.33a1.67,1.67,0,0,0,2.59,0,1.8,1.8,0,0,0,0-2.69L810.27,461A1.89,1.89,0,0,0,807.48,461Z" style="fill: #fff;fill-rule: evenodd"/>
      <path d="M810.27,525.82l7.17-7.62a1.79,1.79,0,0,0,0-2.68,1.84,1.84,0,0,0-2.59.2l-4.18,4.13V505.62a1.62,1.62,0,0,0-1.8-1.86,1.82,1.82,0,0,0-1.79,1.86v14.43l-4.18-4.33a1.67,1.67,0,0,0-2.59,0,2.22,2.22,0,0,0,0,2.68l7.37,7.42A1.66,1.66,0,0,0,810.27,525.82Z" style="fill: #fff;fill-rule: evenodd"/>
      <path d="M790.11,488.51h36.64a.21.21,0,0,1,.2.22v9.37a.21.21,0,0,1-.2.22H790.11a.22.22,0,0,1-.21-.22v-9.37A.22.22,0,0,1,790.11,488.51Zm4,2.67-1.53,4.3h1.84l1.64-4.3Zm3.16,0-1.53,4.3h1.84l1.64-4.3Zm3.13,0-1.53,4.3h1.84l1.64-4.3Zm3.16,0-1.53,4.3h1.84l1.64-4.3Zm3.21,0-1.53,4.3h1.83l1.65-4.3Zm15.72.72a1.44,1.44,0,1,0,1.36,1.44A1.4,1.4,0,0,0,822.47,491.9Z" style="fill: #fff;fill-rule: evenodd"/>
      <path d="M784.89,484.15a2.11,2.11,0,0,1,1.3.46,2.16,2.16,0,0,1,0,2.64L782.51,491l-.39.39H787a1.84,1.84,0,0,1,0,3.67l-5,.12,4.21,4.47a1.88,1.88,0,0,1,0,2.44,1.7,1.7,0,0,1-2.61,0l-7.41-7.31a1.93,1.93,0,0,1,.2-2.64l7.21-7.51A2.16,2.16,0,0,1,784.89,484.15Z" style="fill: #fff;fill-rule: evenodd"/>
      <path d="M833.06,502.68a2.09,2.09,0,0,1-1.3-.49,2.38,2.38,0,0,1,0-2.79l3.68-3.95.39-.42h-4.89a2,2,0,0,1,0-3.89l5-.13-4.21-4.72a2.07,2.07,0,0,1,0-2.58,1.63,1.63,0,0,1,2.6,0l7.42,7.73a2.14,2.14,0,0,1-.2,2.8l-7.22,7.95A2.09,2.09,0,0,1,833.06,502.68Z" style="fill: #fff;fill-rule: evenodd"/>
    </g>
    <g id="RPHY_and_FIber_Node-2" data-name="RPHY and FIber Node">
      <path d="M1450.88,259.69a33.36,33.36,0,0,1,0,66.72H1388.6a33.36,33.36,0,1,1,0-66.72h62.28m0-3H1388.6a36.36,36.36,0,1,0,0,72.72h62.28a36.36,36.36,0,0,0,0-72.72Z" style="fill: #fff"/>
      <g>
        <path d="M1451.8,285.53l-.06,1.11c-.12,3.51,0,11.47,0,16.69a66.18,66.18,0,0,1,5.07-11.35l2-3,.89,1.35a4.38,4.38,0,0,0,3.12,1.31l.36-.07-1,1.22c-3.09,4.15-6.72,11.78-7.65,15.91-1.07,4.72-.72,10.8-.55,16h-8.83c0-4.39.68-9.32-1.12-14.72a84.63,84.63,0,0,0-8.67-16.76l-1-1.31,1.38-.28a4.17,4.17,0,0,0,2.19-2.22l0-.23,2.18,3.19a55.88,55.88,0,0,1,5.94,12c.18-4.24.13-14.68-.15-18.3l0-.42.88.59a5.18,5.18,0,0,0,4,0Z" style="fill: #fff;fill-rule: evenodd"/>
        <path d="M1426.79,285.53c0-2.08,2-3.76,4.39-3.76s4.39,1.68,4.39,3.76-2,3.76-4.39,3.76S1426.79,287.61,1426.79,285.53Z" style="fill: #fff"/>
        <path d="M1443.09,278a5,5,0,1,1,5,5A5,5,0,0,1,1443.09,278Z" style="fill: #fff"/>
        <path d="M1460.64,284.9a4.39,4.39,0,1,1,4.39,4.39A4.4,4.4,0,0,1,1460.64,284.9Z" style="fill: #fff"/>
      </g>
      <g id="R_PHY_Node_Icon-2" data-name="R PHY Node Icon">
        <path d="M1390,265.89a27.16,27.16,0,1,1-27.16,27.16A27.16,27.16,0,0,1,1390,265.89Zm0,3a24.38,24.38,0,0,0-4.87.5l-1,.31v10.59h-5.4l10.79,10.79,10.8-10.79h-5.4V269.4h-.06A24.2,24.2,0,0,0,1390,268.89Zm-13.07,13.56v5.39h-10.49l-.11.34a24.45,24.45,0,0,0,0,9.74l.23.71h10.37V304l10.79-10.79Zm25.19,0-10.8,10.79L1402.1,304v-5.4h11.32l.22-.71a24.45,24.45,0,0,0,0-9.74l-.1-.34H1402.1Zm-12.6,12.95-10.79,10.79h5.4v10.22l1,.31a24.4,24.4,0,0,0,9.73,0l.06,0V306.19h5.4Z" style="fill: #fff;fill-rule: evenodd"/>
      </g>
    </g>
    <g>
      <polygon points="806.75 145.51 813.61 145.51 816.4 145.51 816.4 143.09 810.29 143.09 808.1 143.09 806.75 143.09 806.75 145.51" style="fill: #fff;fill-rule: evenodd;opacity: 0.1608"/>
      <path d="M827.86,143.09h-.43a7.88,7.88,0,0,1-1.41.17v2.25h3v-2.42Z" style="fill: #fff;fill-rule: evenodd;opacity: 0.1608"/>
      <polygon points="829.63 156.97 829.51 157.17 829.51 159.28 829.63 158.91 829.63 156.97" style="fill: #fff;fill-rule: evenodd;opacity: 0.1608"/>
      <path d="M836.27,143.27h-.21v2.16a8.28,8.28,0,0,1,1.23-.09c.27,0,.54,0,.8,0v-.47h1.76v-2.56A7.41,7.41,0,0,1,836.27,143.27Z" style="fill: #fff;fill-rule: evenodd;opacity: 0.1608"/>
    </g>
    <polygon points="781.08 449.52 836.9 449.52 854.25 466.87 854.25 535.14 763.74 535.14 763.74 466.87 781.08 449.52" style="fill: none;stroke: #fff;stroke-linejoin: round;stroke-width: 3px"/>
    <path d="M763.74,251.07V189.63a178.14,178.14,0,1,0,0,283.12v-5.88l17.34-17.35h7.67a178.23,178.23,0,0,0,26-198.45Z" style="fill: none;stroke: #fff;stroke-miterlimit: 10;stroke-width: 3px"/>
    <polygon points="973.15 231.51 854.25 231.51 854.25 251.07 840.58 251.07 833.74 266.81 833.74 449.52 836.9 449.52 848.23 460.85 986.66 460.85 986.66 266.81 973.15 231.51" style="fill: none;stroke: #fff;stroke-miterlimit: 10;stroke-width: 3px"/>
    <g>
      <polygon points="806.75 164.97 806.75 165.45 817 165.45 817 164.97 807.28 164.97 806.75 164.97" style="fill: #fff;fill-rule: evenodd;opacity: 0.1608"/>
      <polygon points="829.51 164.97 826.62 164.97 826.62 165.45 829.63 165.45 829.63 162.74 829.51 162.66 829.51 164.97" style="fill: #fff;fill-rule: evenodd;opacity: 0.1608"/>
      <path d="M936.07,224.19V204.25l-21.6-16.82V132h-21.1V111.14l-10.22-1.2-9.06-9V99.68H832.91v20H806.75V123h3.54v.61h14.34v3.23h3.55V123h9.48v3.76a7.19,7.19,0,0,1,4.76,3h4.47V144.9h.7v3.81a6.78,6.78,0,0,1,2.67,1.2,7.5,7.5,0,0,1,5.44-1.25v-2.07h-6.23V129.77h7V144.9H865a7.16,7.16,0,0,1,1.61-.19,7.53,7.53,0,0,1,2.8.54l3,1.23-1.27,7.4v4h-2V165H856.83l-.32.06v3.18h-7V165h-2.58v3.24h-7V165h-1.63a9.55,9.55,0,0,1-1.56.17v.31h.24l17.35,17.34v47.9h1.66v.82h27.24V216.27h7v15.24H959.1v-7.32ZM905.31,155.6h-7v-15h7Z" style="fill: #fff;fill-rule: evenodd;opacity: 0.1608"/>
      <path d="M814.73,251.07a177.4,177.4,0,0,1,19,80.12V266.81l6.84-15.74Z" style="fill: #fff;fill-rule: evenodd;opacity: 0.1608"/>
    </g>
    <path d="M740.1,161.54l-3.05-.88V147.83l3.05.94v-2.44l1-.19-4.08-1.24v-13l8,2.46v11.17c.62,0,1.25-.08,1.85-.08a8.53,8.53,0,0,1,6,2,6.74,6.74,0,0,1,1.22,1.5,8,8,0,0,1,2.21-.32,7.81,7.81,0,0,1,1.62.17h5.67V108.86l-80.12-30.7,8.24-2.09.05-30.8L611.17,25.68l-126,31.56v73.18h-1.68v48.82H449.24V145.79h-15v63H403.15c.94,3.57,1.91,7.3,2,8l0,.17h7.9a3.16,3.16,0,0,1,2.24.92,4.85,4.85,0,0,1,1.34,2.25h49.15l11.6,21.92v89.11a177.42,177.42,0,0,1,20.31-82.66v-8.46l5-.44a179.33,179.33,0,0,1,29.63-37.1l-1.67.17v-9.82l12-1.47v1.94a178,178,0,0,1,24.47-16.86L563,177V166.55l12.69-1.78V172c1.1-.55,2.2-1.1,3.32-1.63v-6l15.17-2.13v1.77q6.57-2.43,13.39-4.32V37.21L485.74,67.71V63.62L608.53,32.38h6.06l71,18.08-1,6-70-19V157.81a178.89,178.89,0,0,1,99.85,5.2v-5.93l8.94,2.56v6.77c.94.39,1.87.78,2.81,1.19v-7.15l8,2.3v8.57c.94.46,1.88.92,2.82,1.4v-9.16l3.05.87Zm7.8-38.3,8.56,2.67v9l-8.56-2.61Zm-10.85-3.39,8,2.51v9l-8-2.45ZM466.76,203.24h-7.42V187.19h7.42ZM579,71.12l15.17-2.72V80.19L579,82.86Zm0,23.75,15.17-2.67v10.71L579,105.58Zm0,22.73,15.17-2.68v12.6L579,129.92Zm0,24.3,15.17-2.4v10.73L579,152.36ZM563,74l12.69-2.28V83.44L563,85.68Zm0,23.69,12.69-2.23v10.71L563,108.4ZM546.07,77l13.59-2.45V86.26l-13.59,2.4Zm0,23.63,13.59-2.4V109l-13.59,2.4Zm0,22.72L559.66,121v12l-13.59,2.15Zm0,23.72L559.66,145v10.11L546.07,157Zm0,21.81,13.59-1.9v10.39l-13.59,1.67Zm-15.34-65.55,12-2.12V112l-12,2.12Zm0,22.72,12-2.11v11.67l-12,1.9Zm0,23.44,12-1.9v9.81l-12,1.69Zm0,21.55,12-1.69v10.1l-12,1.47ZM513.82,82.83l12.93-2.33V92.06l-12.93,2.28Zm0,23.52,12.93-2.28v10.71l-12.93,2.28Zm0,22.72,12.93-2.28v11.39l-12.93,2Zm0,23.14,12.93-2.05v9.53l-12.93,1.81Zm0,21.24,12.93-1.81v9.81L513.82,183Zm0,21.51,12.93-1.59v9.75l-12.93,1.36ZM497.77,85.71l12.07-2.17V95l-12.07,2.12Zm0,46.19,12.07-2.13v11.09l-12.07,1.91Zm0,22.85,12.07-1.91v9.22l-12.07,1.7Zm0,20.95L509.84,174v9.52L497.77,185Zm0,21.23,12.07-1.48v9.45l-12.07,1.26Zm0,21.13,12.07-1.27v10.35l-12.07,1.05ZM688.64,105.83l0-1.1,3.52,1.1Zm23,23.06h-6.55v-6.78l6.55,2Zm0-7.72-6.55-2v-9.3l6.55,2Zm11.76,35.58-8.94-2.56V140.93l8.94,2.73Zm0-16L714.44,138V125l8.94,2.73Zm0-16L714.44,122v-9.25l8.94,2.79Zm10.85,35.1-8-2.31v-13l8,2.45Zm0-15.82-8-2.46v-13l8,2.46Zm0-16-8-2.46v-9.16l8,2.51Z" style="fill: #fff;fill-rule: evenodd;opacity: 0.1608"/>
    <path d="M754.24,182.85q4.86,3.24,9.5,6.79v-2.71h-.09V165h-5.08a11,11,0,0,1-2,.19h-.08v1.08L752.08,165H742l3.12.89v11.28c.94.55,1.88,1.1,2.81,1.66V166.67l8.56,2.45v14.36Z" style="fill: #fff;fill-rule: evenodd;opacity: 0.1608"/>
    <polygon points="781.08 165.45 836.9 165.45 854.25 182.79 854.25 251.07 763.74 251.07 763.74 182.79 781.08 165.45" style="fill: none;stroke: #fff;stroke-linejoin: round;stroke-width: 3px"/>
  </g>
  <g id="Expanded_Text" data-name="Expanded Text">
    <g>
      <path d="M568.52,329.36l-6.1-15.52v15.52h-2.73V309.55h3.91l6.3,16.51,5.94-16.51h3.69v19.81h-2.64V314l-5.73,15.38Z" style="fill: #fff"/>
      <path d="M596.12,325.23c-.71,2.62-3,4.54-6.41,4.54-4.07,0-7-2.53-7-7.56s2.91-7.57,6.88-7.57,6.71,2.37,6.71,8.14h-10.9c.22,3.31,2,4.76,4.4,4.76a3.49,3.49,0,0,0,3.47-2.31Zm-10.62-4.54h8.09c-.19-2.67-1.76-3.93-4-3.93S585.92,318.05,585.5,320.69Z" style="fill: #fff"/>
      <path d="M605.84,329.5a7.27,7.27,0,0,1-2,.27c-2.53,0-3.82-1.59-3.82-4v-8.5h-2.12v-2.26h2.12l.17-3.44h2.47v3.44h3.08v2.26H602.7v8.56c0,1.07.52,1.59,1.51,1.59a6.12,6.12,0,0,0,1.63-.22Z" style="fill: #fff"/>
      <path d="M608.32,329.36V315.05h2.17l.36,2.12a3.93,3.93,0,0,1,3.63-2.53,6.64,6.64,0,0,1,1.57.19v2.64a6.74,6.74,0,0,0-1.68-.24c-1.82,0-3.41,1.34-3.41,4.95v7.18Z" style="fill: #fff"/>
      <path d="M624.08,314.64c3.91,0,7,2.42,7,7.57s-3,7.56-7.07,7.56-7-2.61-7-7.56C617,317.06,620.2,314.64,624.08,314.64Zm0,13c2.53,0,4.26-1.87,4.26-5.42s-1.84-5.42-4.29-5.42-4.32,1.84-4.32,5.42S621.63,327.63,624.11,327.63Z" style="fill: #fff"/>
      <path d="M645.85,320.45H637.1V327h9.54v2.37H634.29V309.55h12.35v2.37H637.1v6.21h8.75Z" style="fill: #fff"/>
      <path d="M673.47,320.31a12.64,12.64,0,0,1-1.87,5.2l2.7,2.53-1.95,1.73L670,327.49a8.32,8.32,0,0,1-5.83,2.28c-4,0-6.77-2-6.77-5.14,0-2.84,1.54-4.24,4-5.61-1.93-2-2.54-3-2.54-4.63a5,5,0,0,1,5.26-4.7c3.14,0,5.17,2.17,5.17,4.26,0,2.7-1.7,4.35-4,5.53l4.59,4.35a11.87,11.87,0,0,0,1.21-3.82Zm-5.14,5.56L663,320.61c-1.81,1-2.83,2.09-2.83,3.82s1.51,3.06,4.21,3.06A5.57,5.57,0,0,0,668.33,325.87Zm-4.76-8c2.28-1.21,3.25-2.23,3.25-3.85a2.37,2.37,0,0,0-2.65-2.21,2.55,2.55,0,0,0-2.75,2.54C661.42,315.58,661.92,316.26,663.57,317.89Z" style="fill: #fff"/>
      <path d="M709.74,309.55l-5.23,19.81h-3.24l-4.49-16.78-4.62,16.78h-3.44l-5.2-19.81h2.86L690.59,326l4.54-16.48h3.49l4.3,16.43,4.23-16.43Z" style="fill: #fff"/>
      <path d="M718.38,309.55c5.84,0,9.74,3.11,9.74,9.91,0,6.41-4.12,9.9-9.93,9.9H712V309.55Zm-3.63,2.23v15.27h3.72c4.34,0,6.82-2.62,6.82-7.59,0-5.2-2.64-7.68-6.88-7.68Z" style="fill: #fff"/>
      <path d="M740.26,329.36l-6.11-15.52v15.52h-2.72V309.55h3.91l6.29,16.51,6-16.51h3.68v19.81h-2.64V314l-5.72,15.38Z" style="fill: #fff"/>
      <path d="M601.05,342.57c4.57,0,6.9,2,6.9,5.26a4.31,4.31,0,0,1-3.19,4.07,4.82,4.82,0,0,1,3.8,4.9c0,3.49-2.59,5.58-7.57,5.58h-7.07V342.57Zm-4.32,2.12v6.25h4.7c2.43,0,3.69-1.27,3.69-3.11s-1.4-3.14-3.85-3.14Zm0,8.39v7h4.68c2.86,0,4.23-1.19,4.23-3.3,0-2.42-1.4-3.72-4.12-3.72Z" style="fill: #fff"/>
      <path d="M611.18,352.06c.27-2.64,2.56-4.4,6.13-4.4,3.74,0,5.84,2,5.84,4.95v9.77H621l-.33-1.95a5.59,5.59,0,0,1-4.79,2.36c-3.13,0-5-1.76-5-4.1,0-2.61,1.57-4.09,5.42-4.76l4.18-.71v-.72c0-1.76-1.18-2.75-3.3-2.75s-3,.88-3.22,2.31Zm9.32,5.07v-1.85l-3.55.64c-2.55.44-3.24,1.23-3.24,2.5s1,2.14,2.78,2.14C618.5,360.56,620.5,359.08,620.5,357.13Z" style="fill: #fff"/>
      <path d="M639.08,357.79c-.39,2.77-2.73,5-6.28,5-3.79,0-6.76-2.61-6.76-7.45s2.69-7.68,6.74-7.68c3.24,0,5.72,1.74,6.19,4.65h-2.92a3,3,0,0,0-3.22-2.42c-2.34,0-4,1.73-4,5.53,0,3.49,1.79,5.14,4,5.14a3.14,3.14,0,0,0,3.33-2.77Z" style="fill: #fff"/>
      <path d="M642.11,362.38V342.57h2.64v11.06l5.61-5.56h3.47l-6.44,6.22,7.23,8.09H651.1l-6.35-7.21v7.21Z" style="fill: #fff"/>
      <path d="M656.42,362.38V342.57h2.64v7.49a5.62,5.62,0,0,1,4.78-2.4c3.77,0,6.3,2.7,6.3,7.46,0,4.95-2.72,7.67-6.49,7.67a5.38,5.38,0,0,1-4.65-2.31l-.41,1.9Zm6.82-12.46c-2.37,0-4.32,1.73-4.32,5.14s1.73,5.48,4.32,5.48,4.15-1.71,4.15-5.48C667.39,351.54,665.6,349.92,663.24,349.92Z" style="fill: #fff"/>
      <path d="M679.42,347.66c3.91,0,7,2.42,7,7.57,0,5-3,7.56-7.07,7.56s-7-2.61-7-7.56C672.35,350.08,675.54,347.66,679.42,347.66Zm0,13c2.53,0,4.26-1.87,4.26-5.42s-1.84-5.42-4.29-5.42-4.32,1.84-4.32,5.42S677,360.65,679.45,360.65Z" style="fill: #fff"/>
      <path d="M689.49,362.38V348.07h2.17l.31,1.82a5.26,5.26,0,0,1,4.34-2.23c3.11,0,5.07,1.9,5.07,5.39v9.33h-2.64v-9.3c0-2.14-1.1-3.16-3.06-3.16a3.47,3.47,0,0,0-3.55,3.63v8.83Z" style="fill: #fff"/>
      <path d="M717.69,358.25c-.71,2.62-3,4.54-6.41,4.54-4.07,0-7-2.53-7-7.56s2.91-7.57,6.88-7.57,6.71,2.37,6.71,8.15H707c.22,3.3,2,4.75,4.41,4.75a3.48,3.48,0,0,0,3.46-2.31Zm-10.62-4.54h8.09c-.19-2.66-1.76-3.93-4-3.93S707.49,351.07,707.07,353.71Z" style="fill: #fff"/>
    </g>
    <g>
      <path d="M261.78,475.28l-6.11-15.52v15.52H253V455.47h3.91l6.3,16.5,5.94-16.5h3.69v19.81h-2.64V459.9l-5.73,15.38Z" style="fill: #fff"/>
      <path d="M276.23,465c.28-2.64,2.56-4.4,6.14-4.4,3.74,0,5.83,2,5.83,4.95v9.77H286l-.33-2a5.58,5.58,0,0,1-4.78,2.37c-3.14,0-5-1.76-5-4.1,0-2.61,1.56-4.1,5.41-4.76l4.19-.71v-.72c0-1.76-1.19-2.75-3.31-2.75s-3,.88-3.21,2.31Zm9.33,5.06v-1.84l-3.55.63c-2.56.44-3.25,1.24-3.25,2.5s1,2.15,2.78,2.15C283.55,473.46,285.56,472,285.56,470Z" style="fill: #fff"/>
      <path d="M296.12,468.76c-3.35-.75-4.7-2-4.7-4.13,0-2.45,1.95-4.07,5.56-4.07,3.19,0,5.39,1.57,5.86,4.18h-2.7c-.3-1.32-1.37-2.09-3.19-2.09-2,0-2.86.74-2.86,1.73s.58,1.6,3.33,2.2c3.33.75,5.53,1.68,5.53,4.63,0,2.61-2.18,4.48-6,4.48-3.58,0-5.92-1.76-6.17-4.51h2.7c.3,1.7,1.49,2.42,3.49,2.42s3.28-1,3.28-2.2C300.28,469.72,298.68,469.33,296.12,468.76Z" style="fill: #fff"/>
      <path d="M312.36,475.41a6.87,6.87,0,0,1-2,.28c-2.53,0-3.82-1.6-3.82-4v-8.5h-2.12V461h2.12l.17-3.44h2.47V461h3.08v2.26h-3.08v8.55c0,1.08.52,1.6,1.52,1.6a6.11,6.11,0,0,0,1.62-.22Z" style="fill: #fff"/>
      <path d="M327.3,471.15a6.23,6.23,0,0,1-6.41,4.54c-4.07,0-7-2.53-7-7.57s2.92-7.56,6.88-7.56,6.71,2.36,6.71,8.14H316.57c.22,3.3,2,4.76,4.4,4.76a3.5,3.5,0,0,0,3.47-2.31Zm-10.62-4.54h8.09c-.19-2.67-1.76-3.93-4-3.93S317.09,464,316.68,466.61Z" style="fill: #fff"/>
      <path d="M330.63,475.28V461h2.17l.36,2.12a4,4,0,0,1,3.63-2.53,6.64,6.64,0,0,1,1.57.19v2.64a6.18,6.18,0,0,0-1.68-.25c-1.81,0-3.41,1.35-3.41,5v7.18Z" style="fill: #fff"/>
      <path d="M364.14,455.47v19.81h-2.83v-8.83h-9.68v8.83h-2.81V455.47h2.81v8.61h9.68v-8.61Z" style="fill: #fff"/>
      <path d="M380.74,471.15a6.23,6.23,0,0,1-6.41,4.54c-4.07,0-7-2.53-7-7.57s2.92-7.56,6.88-7.56,6.71,2.36,6.71,8.14H370c.22,3.3,2,4.76,4.4,4.76a3.51,3.51,0,0,0,3.47-2.31Zm-10.62-4.54h8.09c-.2-2.67-1.76-3.93-4-3.93S370.53,464,370.12,466.61Z" style="fill: #fff"/>
      <path d="M383.52,465c.27-2.64,2.56-4.4,6.13-4.4,3.75,0,5.84,2,5.84,4.95v9.77h-2.18l-.33-2a5.58,5.58,0,0,1-4.78,2.37c-3.14,0-5-1.76-5-4.1,0-2.61,1.57-4.1,5.42-4.76l4.19-.71v-.72c0-1.76-1.19-2.75-3.31-2.75s-3,.88-3.21,2.31Zm9.33,5.06v-1.84l-3.55.63c-2.56.44-3.25,1.24-3.25,2.5s1,2.15,2.78,2.15C390.84,473.46,392.85,472,392.85,470Z" style="fill: #fff"/>
      <path d="M409.93,475.28l-.46-2a5.56,5.56,0,0,1-4.76,2.42c-3.61,0-6.33-2.64-6.33-7.48,0-5.12,2.67-7.65,6.49-7.65a5.4,5.4,0,0,1,4.6,2.23v-7.32h2.64v19.81Zm-4.65-1.85c2.73,0,4.32-2.14,4.32-5.14,0-3.5-1.68-5.48-4.32-5.48s-4.15,1.71-4.15,5.45C401.13,471.7,402.89,473.43,405.28,473.43Z" style="fill: #fff"/>
      <path d="M416.51,467.57v-2.34h9.91v2.34Z" style="fill: #fff"/>
      <path d="M442.51,466.36h-8.74v6.55h9.54v2.37H431V455.47h12.35v2.36h-9.54v6.22h8.74Z" style="fill: #fff"/>
      <path d="M446.62,475.28V461h2.17l.3,1.82a5.28,5.28,0,0,1,4.35-2.23c3.11,0,5.06,1.9,5.06,5.39v9.33h-2.64V466c0-2.15-1.1-3.17-3.05-3.17a3.48,3.48,0,0,0-3.55,3.64v8.83Z" style="fill: #fff"/>
      <path d="M473,475.28l-.47-2a5.53,5.53,0,0,1-4.76,2.42c-3.6,0-6.33-2.64-6.33-7.48,0-5.12,2.67-7.65,6.5-7.65a5.38,5.38,0,0,1,4.59,2.23v-7.32h2.64v19.81Zm-4.65-1.85c2.72,0,4.32-2.14,4.32-5.14,0-3.5-1.68-5.48-4.32-5.48s-4.16,1.71-4.16,5.45C464.14,471.7,465.9,473.43,468.3,473.43Z" style="fill: #fff"/>
    </g>
    <g>
      <path d="M892.45,435.65a3.66,3.66,0,0,1-3.87,3.1c-2.35,0-4.18-1.62-4.18-4.61s1.66-4.74,4.16-4.74c2,0,3.54,1.07,3.83,2.87h-1.81a1.86,1.86,0,0,0-2-1.49c-1.44,0-2.46,1.07-2.46,3.41,0,2.16,1.1,3.18,2.48,3.18a1.94,1.94,0,0,0,2.06-1.72Z" style="fill: #fff"/>
      <path d="M898.64,426.25c2.82,0,4.27,1.23,4.27,3.25a2.67,2.67,0,0,1-2,2.52,3,3,0,0,1,2.34,3c0,2.16-1.6,3.45-4.67,3.45h-4.37V426.25ZM896,427.56v3.86h2.91c1.5,0,2.28-.78,2.28-1.92s-.87-1.94-2.38-1.94Zm0,5.19v4.33h2.89c1.77,0,2.62-.73,2.62-2,0-1.49-.87-2.29-2.55-2.29Z" style="fill: #fff"/>
      <path d="M912.75,438.49l-3-4.66h-2.9v4.66h-1.74V426.25h4c3.11,0,4.85,1.38,4.85,3.84a3.46,3.46,0,0,1-2.47,3.39l3.3,5Zm-5.86-10.83v4.76h2.31c1.9,0,3-.9,3-2.33s-1-2.43-3-2.43Z" style="fill: #fff"/>
      <path d="M916.15,433.73v-1.44h6.12v1.44Z" style="fill: #fff"/>
      <path d="M930.67,432.15a3.51,3.51,0,0,1,2.4,3.13c0,2-1.74,3.47-4.34,3.47s-4.33-1.41-4.33-3.35a3.3,3.3,0,0,1,2.33-3.15,2.93,2.93,0,0,1-1.89-2.73c0-2.2,1.85-3.18,3.89-3.18s3.89.9,3.89,3.06A3.24,3.24,0,0,1,930.67,432.15Zm-2.3.61a2.75,2.75,0,0,0-2.24,2.52c0,1.16.83,2.12,2.6,2.12s2.6-.88,2.6-2.12C931.33,433.39,929.7,433.05,928.37,432.76Zm.7-1a2.61,2.61,0,0,0,1.92-2.3c0-1.12-1-1.82-2.26-1.82s-2.29.6-2.29,1.82C926.44,431.23,928.05,431.59,929.07,431.73Z" style="fill: #fff"/>
    </g>
    <g>
      <path d="M1332,574.75h-8.37v8.37h-2.8V563.31h12.13v2.36h-9.33v6.74H1332Z" style="fill: #fff"/>
      <path d="M1335.92,566.42v-3.11h3v3.11Zm.17,16.7V568.81h2.64v14.31Z" style="fill: #fff"/>
      <path d="M1342.58,583.12V563.31h2.64v7.48a5.63,5.63,0,0,1,4.79-2.39c3.77,0,6.3,2.69,6.3,7.45,0,4.95-2.72,7.68-6.49,7.68a5.37,5.37,0,0,1-4.65-2.31l-.41,1.9Zm6.83-12.47c-2.37,0-4.32,1.74-4.32,5.15s1.73,5.47,4.32,5.47,4.15-1.7,4.15-5.47C1353.56,572.28,1351.77,570.65,1349.41,570.65Z" style="fill: #fff"/>
      <path d="M1371.94,579a6.23,6.23,0,0,1-6.41,4.54c-4.07,0-7-2.53-7-7.57s2.92-7.56,6.88-7.56,6.72,2.36,6.72,8.14h-10.9c.22,3.3,2,4.76,4.4,4.76a3.49,3.49,0,0,0,3.47-2.31Zm-10.62-4.54h8.09c-.19-2.67-1.76-3.93-4-3.93S1361.73,571.81,1361.32,574.45Z" style="fill: #fff"/>
      <path d="M1375.27,583.12V568.81h2.18l.35,2.12a4,4,0,0,1,3.64-2.53,6.61,6.61,0,0,1,1.56.19v2.64a6.16,6.16,0,0,0-1.67-.25c-1.82,0-3.42,1.35-3.42,5v7.18Z" style="fill: #fff"/>
      <path d="M1393.32,583.12V568.81h2.18l.3,1.81a5.28,5.28,0,0,1,4.35-2.22c3.1,0,5.06,1.89,5.06,5.39v9.33h-2.64v-9.3c0-2.15-1.1-3.17-3.06-3.17a3.49,3.49,0,0,0-3.55,3.64v8.83Z" style="fill: #fff"/>
      <path d="M1415.17,568.4c3.91,0,7,2.42,7,7.56s-3,7.57-7.07,7.57-7-2.62-7-7.57C1408.1,570.82,1411.29,568.4,1415.17,568.4Zm0,13c2.53,0,4.26-1.87,4.26-5.42s-1.84-5.42-4.29-5.42-4.32,1.85-4.32,5.42S1412.72,581.38,1415.2,581.38Z" style="fill: #fff"/>
      <path d="M1436,583.12l-.47-2a5.53,5.53,0,0,1-4.75,2.42c-3.61,0-6.33-2.64-6.33-7.49,0-5.11,2.67-7.64,6.49-7.64a5.38,5.38,0,0,1,4.59,2.22v-7.31h2.65v19.81Zm-4.65-1.85c2.73,0,4.32-2.14,4.32-5.14,0-3.5-1.68-5.48-4.32-5.48s-4.15,1.71-4.15,5.45C1427.17,579.54,1428.93,581.27,1431.32,581.27Z" style="fill: #fff"/>
      <path d="M1454.6,579a6.22,6.22,0,0,1-6.41,4.54c-4.07,0-7-2.53-7-7.57s2.91-7.56,6.87-7.56,6.72,2.36,6.72,8.14h-10.9c.22,3.3,2,4.76,4.4,4.76a3.49,3.49,0,0,0,3.47-2.31ZM1444,574.45h8.09c-.19-2.67-1.76-3.93-4-3.93S1444.39,571.81,1444,574.45Z" style="fill: #fff"/>
    </g>
    <g>
      <path d="M1478.27,534.18h2.84c-.22,3.85-3.61,7.4-8.64,7.4-5.53,0-9.08-3.71-9.08-10.32s3.85-10.31,9.3-10.31c4.76,0,8.12,3.13,8.39,6.76h-2.83c-.36-2.69-2.51-4.43-5.56-4.43-3.8,0-6.44,2.62-6.44,8,0,5.12,2.56,8,6.27,8A5.44,5.44,0,0,0,1478.27,534.18Z" style="fill: #fff"/>
      <path d="M1490.38,526.45c3.91,0,7,2.42,7,7.56s-3,7.57-7.07,7.57-7-2.62-7-7.57C1483.31,528.87,1486.5,526.45,1490.38,526.45Zm0,13c2.53,0,4.27-1.87,4.27-5.42s-1.85-5.42-4.3-5.42-4.32,1.85-4.32,5.42S1487.94,539.43,1490.41,539.43Z" style="fill: #fff"/>
      <path d="M1499.91,530.85c.27-2.64,2.55-4.4,6.13-4.4,3.74,0,5.83,2,5.83,4.95v9.77h-2.17l-.33-2a5.61,5.61,0,0,1-4.79,2.37c-3.13,0-4.95-1.76-4.95-4.1,0-2.61,1.57-4.1,5.42-4.76l4.18-.71v-.72c0-1.76-1.18-2.75-3.3-2.75s-3,.88-3.22,2.31Zm9.32,5.06v-1.84l-3.55.63c-2.56.44-3.24,1.24-3.24,2.51s1,2.14,2.78,2.14C1507.22,539.35,1509.23,537.87,1509.23,535.91Z" style="fill: #fff"/>
      <path d="M1522.33,533.54l5.61,7.63h-3.22l-3.87-5.53-3.8,5.53h-3.11l5.34-7.43-5-6.88h3.16l3.42,4.82,3.24-4.82h3Z" style="fill: #fff"/>
    </g>
    <g>
      <path d="M1543.77,561.78v19.81h-2.84v-8.83h-9.68v8.83h-2.81V561.78h2.81v8.61h9.68v-8.61Z" style="fill: #fff"/>
      <path d="M1554,566.87c3.9,0,7,2.42,7,7.57,0,5-3,7.56-7.07,7.56s-7-2.61-7-7.56C1546.94,569.29,1550.13,566.87,1554,566.87Zm0,13c2.54,0,4.27-1.88,4.27-5.42S1556.46,569,1554,569s-4.32,1.84-4.32,5.42S1551.56,579.86,1554,579.86Z" style="fill: #fff"/>
      <path d="M1564.08,581.59V567.28h2.17l.28,1.68a4.9,4.9,0,0,1,4.21-2.09,4.5,4.5,0,0,1,4.21,2.26,5.17,5.17,0,0,1,4.65-2.26c2.91,0,4.84,1.73,4.84,5.14v9.58h-2.64v-9.38c0-2.18-.94-3.08-2.78-3.08a3.52,3.52,0,0,0-3.44,3.74v8.72h-2.64v-9.38c0-2.2-1-3.08-2.78-3.08a3.52,3.52,0,0,0-3.44,3.66v8.8Z" style="fill: #fff"/>
      <path d="M1600.76,577.46a6.22,6.22,0,0,1-6.41,4.54c-4.07,0-7-2.53-7-7.56s2.92-7.57,6.88-7.57,6.71,2.37,6.71,8.14H1590c.22,3.31,2,4.76,4.4,4.76a3.51,3.51,0,0,0,3.47-2.31Zm-10.62-4.54h8.09c-.2-2.67-1.76-3.93-4-3.93S1590.55,570.28,1590.14,572.92Z" style="fill: #fff"/>
      <path d="M1609.84,561.37h2.5l-6.85,22.69H1603Z" style="fill: #fff"/>
      <path d="M1614.41,571.68c0-6.65,4.21-10.31,9.44-10.31s9.38,3.49,9.38,10.31c0,6.55-4.07,10.32-9.41,10.32C1618.32,582,1614.41,578.23,1614.41,571.68Zm16,0c0-5.22-2.67-8-6.55-8s-6.55,2.81-6.55,8,2.67,8,6.55,8S1630.37,576.91,1630.37,571.68Z" style="fill: #fff"/>
      <path d="M1652.46,581.59V569.54h-4.79v12.05H1645V569.54h-5.25v12.05h-2.64V569.54H1635v-2.26h2.12V566.1c0-2.34,1.32-4.46,4.57-4.46a13.24,13.24,0,0,1,4.45.88,4.78,4.78,0,0,1,3.44-1.15,14.32,14.32,0,0,1,3.41.47v2.28a14.18,14.18,0,0,0-3-.47c-1.59,0-2.34.5-2.34,1.73v1.9h7.43v14.31Zm-7.29-17.28a9.17,9.17,0,0,0-3.11-.52c-1.59,0-2.28.82-2.28,2.14v1.35H1645v-1.73A4.54,4.54,0,0,1,1645.17,564.31Z" style="fill: #fff"/>
      <path d="M1671.17,577c-.38,2.78-2.72,5-6.27,5-3.79,0-6.77-2.61-6.77-7.45s2.7-7.68,6.75-7.68c3.24,0,5.72,1.73,6.19,4.65h-2.92a3,3,0,0,0-3.22-2.42c-2.34,0-4,1.73-4,5.53,0,3.49,1.79,5.14,4,5.14a3.14,3.14,0,0,0,3.33-2.78Z" style="fill: #fff"/>
      <path d="M1686.8,577.46c-.71,2.62-3,4.54-6.41,4.54-4.07,0-7-2.53-7-7.56s2.91-7.57,6.88-7.57,6.71,2.37,6.71,8.14h-10.89c.21,3.31,2,4.76,4.4,4.76a3.48,3.48,0,0,0,3.46-2.31Zm-10.62-4.54h8.09c-.19-2.67-1.76-3.93-4-3.93S1676.6,570.28,1676.18,572.92Z" style="fill: #fff"/>
      <path d="M1694.35,575.07c-3.36-.74-4.71-2-4.71-4.13,0-2.45,1.95-4.07,5.56-4.07,3.19,0,5.39,1.57,5.86,4.18h-2.7c-.3-1.32-1.37-2.09-3.19-2.09-2,0-2.86.74-2.86,1.73s.58,1.6,3.33,2.21c3.33.74,5.53,1.67,5.53,4.62,0,2.61-2.17,4.48-6,4.48-3.58,0-5.92-1.76-6.16-4.51h2.69c.31,1.71,1.49,2.42,3.5,2.42s3.27-1,3.27-2.2C1698.5,576,1696.9,575.65,1694.35,575.07Z" style="fill: #fff"/>
    </g>
    <g>
      <path d="M902.74,472.3v19.81H899.9v-8.83h-9.68v8.83h-2.81V472.3h2.81v8.62h9.68V472.3Z" style="fill: #fff"/>
      <path d="M909.23,477.81v9.38c0,2.12,1.13,3.08,3,3.08a3.43,3.43,0,0,0,3.53-3.74v-8.72h2.64v14.3h-2.18l-.3-1.65a5.17,5.17,0,0,1-4.29,2.07c-2.94,0-5-1.74-5-5.4v-9.32Z" style="fill: #fff"/>
      <path d="M922.22,492.11V472.3h2.64v7.49a5.63,5.63,0,0,1,4.79-2.4c3.77,0,6.3,2.7,6.3,7.46,0,4.95-2.72,7.68-6.49,7.68a5.38,5.38,0,0,1-4.65-2.32l-.41,1.9ZM929,479.65c-2.36,0-4.31,1.73-4.31,5.14s1.73,5.48,4.31,5.48,4.16-1.71,4.16-5.48C933.2,481.27,931.41,479.65,929,479.65Z" style="fill: #fff"/>
    </g>
    <g id="Digital_Fiber" data-name="Digital Fiber">
      <g id="Digital_Fiber-2" data-name="Digital Fiber">
        <path d="M1076.67,325.28c5.83,0,9.74,3.11,9.74,9.9,0,6.41-4.13,9.91-9.93,9.91h-6.25V325.28Zm-3.63,2.23v15.27h3.71c4.35,0,6.83-2.62,6.83-7.6,0-5.2-2.65-7.67-6.88-7.67Z" style="fill: #fff"/>
        <path d="M1089.41,328.39v-3.11h3v3.11Zm.17,16.7V330.78h2.64v14.31Z" style="fill: #fff"/>
        <path d="M1098.74,346.05c.25,1.43,1.46,2.31,3.55,2.31,2.67,0,4-1.35,4-3.71V342.8a6,6,0,0,1-4.76,1.87c-3.35,0-6.32-2.5-6.32-7.07s2.61-7.23,6.49-7.23a5.31,5.31,0,0,1,4.65,2.31l.41-1.9H1109v14c0,3.25-2.36,5.67-6.6,5.67-3.82,0-6-1.73-6.46-4.4Zm3.41-3.63c2.73,0,4.32-1.79,4.32-4.68,0-3.36-1.76-5.12-4.32-5.12s-4.15,1.63-4.15,5C1098,340.68,1099.87,342.42,1102.15,342.42Z" style="fill: #fff"/>
        <path d="M1112.66,328.39v-3.11h3v3.11Zm.17,16.7V330.78h2.64v14.31Z" style="fill: #fff"/>
        <path d="M1125.71,345.22a6.92,6.92,0,0,1-2,.28c-2.53,0-3.82-1.6-3.82-4V333h-2.12v-2.26h2.12l.16-3.44h2.48v3.44h3.08V333h-3.08v8.55c0,1.07.52,1.6,1.51,1.6a6.12,6.12,0,0,0,1.63-.22Z" style="fill: #fff"/>
        <path d="M1127.63,334.77c.28-2.64,2.56-4.4,6.14-4.4,3.74,0,5.83,2,5.83,4.95v9.77h-2.17l-.33-2a5.61,5.61,0,0,1-4.79,2.37c-3.14,0-5-1.76-5-4.1,0-2.61,1.57-4.1,5.42-4.76l4.18-.72v-.71c0-1.76-1.18-2.75-3.3-2.75s-3,.88-3.22,2.31Zm9.33,5.06V338l-3.55.63c-2.56.44-3.24,1.24-3.24,2.5s1,2.15,2.77,2.15C1135,343.27,1137,341.79,1137,339.83Z" style="fill: #fff"/>
        <path d="M1146,345.09h-2.64V325.28H1146Z" style="fill: #fff"/>
        <path d="M1089.05,369.74h-8.36v8.37h-2.81V358.3H1090v2.36h-9.32v6.75h8.36Z" style="fill: #fff"/>
        <path d="M1093,361.41V358.3h3v3.11Zm.16,16.7V363.8h2.64v14.31Z" style="fill: #fff"/>
        <path d="M1099.68,378.11V358.3h2.64v7.48a5.63,5.63,0,0,1,4.78-2.39c3.77,0,6.3,2.69,6.3,7.45,0,5-2.72,7.68-6.49,7.68a5.38,5.38,0,0,1-4.65-2.31l-.41,1.9Zm6.82-12.47c-2.37,0-4.32,1.74-4.32,5.15s1.73,5.47,4.32,5.47,4.15-1.7,4.15-5.47C1110.65,367.27,1108.87,365.64,1106.5,365.64Z" style="fill: #fff"/>
        <path d="M1129,374a6.24,6.24,0,0,1-6.42,4.54c-4.07,0-7-2.53-7-7.56s2.92-7.57,6.88-7.57,6.71,2.36,6.71,8.14h-10.9c.23,3.3,2,4.76,4.41,4.76a3.48,3.48,0,0,0,3.46-2.31Zm-10.62-4.54h8.08c-.19-2.67-1.76-3.93-4-3.93S1118.83,366.8,1118.42,369.44Z" style="fill: #fff"/>
        <path d="M1132.37,378.11V363.8h2.17l.36,2.12a3.94,3.94,0,0,1,3.63-2.53,6.64,6.64,0,0,1,1.57.19v2.64a6.3,6.3,0,0,0-1.68-.25c-1.82,0-3.41,1.35-3.41,5v7.18Z" style="fill: #fff"/>
      </g>
    </g>
    <g>
      <path d="M775.87,550.53c-2.84-.78-3.72-1.78-3.72-3.47s1.58-3.14,4.39-3.14c2.61,0,4.53,1.24,4.84,3.31H779.6c-.19-1.19-1.23-1.88-3.06-1.88s-2.66.73-2.66,1.64.41,1.42,3.22,2.2c3.4.95,4.37,1.95,4.37,3.84s-1.74,3.64-4.78,3.64c-2.64,0-4.62-1.45-5-3.69h1.78c.2,1.37,1.33,2.26,3.14,2.26,2,0,3.08-1,3.08-2.14S779.17,551.43,775.87,550.53Z" style="fill: #fff"/>
      <path d="M783.25,556.41v-8.84h1.34l.17,1a3,3,0,0,1,2.6-1.29,2.78,2.78,0,0,1,2.61,1.39,3.2,3.2,0,0,1,2.87-1.39c1.8,0,3,1.07,3,3.18v5.91H794.2v-5.8c0-1.34-.58-1.9-1.72-1.9a2.18,2.18,0,0,0-2.12,2.31v5.39h-1.63v-5.8c0-1.36-.6-1.9-1.72-1.9a2.18,2.18,0,0,0-2.13,2.26v5.44Z" style="fill: #fff"/>
      <path d="M797.62,550c.17-1.63,1.58-2.72,3.79-2.72s3.6,1.24,3.6,3.06v6h-1.34l-.21-1.21a3.44,3.44,0,0,1-3,1.47c-1.94,0-3.06-1.09-3.06-2.54,0-1.61,1-2.53,3.35-2.94l2.58-.44v-.44c0-1.09-.73-1.7-2-1.7s-1.87.54-2,1.43Zm5.76,3.12V552l-2.19.39c-1.58.27-2,.76-2,1.54s.61,1.33,1.72,1.33A2.39,2.39,0,0,0,803.38,553.16Z" style="fill: #fff"/>
      <path d="M808.77,556.41h-1.63V544.17h1.63Z" style="fill: #fff"/>
      <path d="M812.61,556.41H811V544.17h1.63Z" style="fill: #fff"/>
      <path d="M829.3,544.17v12.24h-1.75V551h-6v5.45h-1.74V544.17h1.74v5.32h6v-5.32Z" style="fill: #fff"/>
      <path d="M833.14,547.57v5.8a1.67,1.67,0,0,0,1.84,1.9,2.12,2.12,0,0,0,2.18-2.31v-5.39h1.63v8.84h-1.35l-.18-1a3.2,3.2,0,0,1-2.65,1.28c-1.82,0-3.1-1.08-3.1-3.34v-5.76Z" style="fill: #fff"/>
      <path d="M841,556.41V544.17h1.63v4.63a3.48,3.48,0,0,1,3-1.48c2.33,0,3.89,1.66,3.89,4.6s-1.68,4.75-4,4.75a3.32,3.32,0,0,1-2.87-1.43l-.26,1.17Zm4.21-7.7c-1.46,0-2.66,1.07-2.66,3.18s1.07,3.38,2.66,3.38,2.57-1,2.57-3.38C847.78,549.71,846.68,548.71,845.21,548.71Z" style="fill: #fff"/>
    </g>
    <g>
      <path d="M748.51,578.29l-3-4.65h-2.9v4.65h-1.74V566.06h4c3.11,0,4.85,1.37,4.85,3.84a3.45,3.45,0,0,1-2.47,3.38l3.3,5Zm-5.86-10.82v4.76H745c1.9,0,3-.9,3-2.33s-1-2.43-3-2.43Z" style="fill: #fff"/>
      <path d="M759.27,575.75a3.84,3.84,0,0,1-4,2.8c-2.51,0-4.33-1.56-4.33-4.67s1.8-4.68,4.25-4.68,4.14,1.46,4.14,5h-6.73c.14,2,1.24,2.94,2.72,2.94a2.15,2.15,0,0,0,2.14-1.42Zm-6.56-2.81h5a2.32,2.32,0,0,0-2.45-2.43A2.52,2.52,0,0,0,752.71,572.94Z" style="fill: #fff"/>
      <path d="M761.16,578.29v-8.83h1.34l.17,1a3,3,0,0,1,2.6-1.29,2.78,2.78,0,0,1,2.6,1.39,3.22,3.22,0,0,1,2.88-1.39c1.8,0,3,1.07,3,3.18v5.91h-1.63V572.5c0-1.34-.58-1.91-1.72-1.91a2.18,2.18,0,0,0-2.12,2.32v5.38h-1.64V572.5c0-1.36-.59-1.91-1.71-1.91a2.19,2.19,0,0,0-2.13,2.27v5.43Z" style="fill: #fff"/>
      <path d="M779.72,569.2c2.42,0,4.35,1.5,4.35,4.68s-1.86,4.67-4.36,4.67-4.36-1.61-4.36-4.67S777.33,569.2,779.72,569.2Zm0,8c1.56,0,2.64-1.15,2.64-3.34s-1.14-3.35-2.66-3.35-2.67,1.14-2.67,3.35S778.21,577.22,779.74,577.22Z" style="fill: #fff"/>
      <path d="M789.72,578.38a4.36,4.36,0,0,1-1.21.17,2.21,2.21,0,0,1-2.36-2.45v-5.25h-1.31v-1.39h1.31l.1-2.13h1.53v2.13h1.9v1.39h-1.9v5.29c0,.66.32,1,.94,1a3.6,3.6,0,0,0,1-.13Z" style="fill: #fff"/>
      <path d="M798.78,575.75a3.85,3.85,0,0,1-4,2.8c-2.52,0-4.34-1.56-4.34-4.67s1.81-4.68,4.25-4.68,4.15,1.46,4.15,5h-6.73c.14,2,1.24,2.94,2.72,2.94a2.15,2.15,0,0,0,2.14-1.42Zm-6.56-2.81h5a2.31,2.31,0,0,0-2.44-2.43A2.51,2.51,0,0,0,792.22,572.94Z" style="fill: #fff"/>
      <path d="M809.66,566.06c3.08,0,4.79,1.39,4.79,4s-1.65,3.9-4.86,3.9h-2.18v4.36h-1.73V566.06Zm-2.25,1.41v5h2.21c2.16,0,3-.89,3-2.49s-1-2.56-3-2.56Z" style="fill: #fff"/>
      <path d="M825.71,566.06v12.23H824v-5.45h-6v5.45h-1.73V566.06H818v5.32h6v-5.32Z" style="fill: #fff"/>
      <path d="M831.3,578.29v-4.86l-4.49-7.37h1.91l3.45,5.88,3.57-5.88h1.76L833,573.43v4.86Z" style="fill: #fff"/>
      <path d="M847,572.41c-2.84-.78-3.73-1.78-3.73-3.46s1.58-3.15,4.39-3.15c2.62,0,4.54,1.24,4.84,3.32h-1.78c-.19-1.19-1.22-1.89-3.06-1.89S845,568,845,568.88s.41,1.41,3.21,2.19c3.4.95,4.37,2,4.37,3.84s-1.73,3.64-4.78,3.64c-2.63,0-4.62-1.44-5-3.69h1.78c.21,1.38,1.33,2.26,3.15,2.26,2,0,3.08-1,3.08-2.14S850.3,573.31,847,572.41Z" style="fill: #fff"/>
      <path d="M854.39,578.29V566.06H856v4.4a3.21,3.21,0,0,1,2.58-1.26c1.92,0,3.13,1.17,3.13,3.33v5.76H860.1v-5.74a1.71,1.71,0,0,0-1.89-2,2.15,2.15,0,0,0-2.19,2.32v5.38Z" style="fill: #fff"/>
      <path d="M871.64,575.75a3.85,3.85,0,0,1-4,2.8c-2.52,0-4.34-1.56-4.34-4.67s1.81-4.68,4.25-4.68,4.15,1.46,4.15,5H865c.14,2,1.24,2.94,2.72,2.94a2.15,2.15,0,0,0,2.14-1.42Zm-6.56-2.81h5a2.32,2.32,0,0,0-2.45-2.43A2.51,2.51,0,0,0,865.08,572.94Z" style="fill: #fff"/>
      <path d="M875.16,578.29h-1.63V566.06h1.63Z" style="fill: #fff"/>
      <path d="M881.74,567.42a5.37,5.37,0,0,0-1.35-.21.85.85,0,0,0-.93.9v1.35h1.9v1.39h-1.9v7.44h-1.63v-7.44h-1.31v-1.39h1.31v-1.25a2.3,2.3,0,0,1,2.46-2.41,5.58,5.58,0,0,1,1.45.2Z" style="fill: #fff"/>
    </g>
    <g>
      <path d="M772.26,126.38c-2.83-.79-3.72-1.79-3.72-3.47s1.58-3.15,4.39-3.15c2.61,0,4.54,1.24,4.84,3.32H776c-.19-1.19-1.23-1.89-3.06-1.89s-2.65.73-2.65,1.65.4,1.41,3.21,2.19c3.4,1,4.37,2,4.37,3.84s-1.74,3.64-4.78,3.64c-2.63,0-4.62-1.44-5-3.69h1.78c.21,1.38,1.33,2.26,3.15,2.26,2,0,3.07-1,3.07-2.14S775.56,127.28,772.26,126.38Z" style="fill: #fff"/>
      <path d="M779.64,132.26v-8.84H781l.17,1a3,3,0,0,1,2.6-1.3,2.79,2.79,0,0,1,2.6,1.4,3.21,3.21,0,0,1,2.87-1.4c1.8,0,3,1.07,3,3.18v5.92h-1.63v-5.8c0-1.34-.58-1.9-1.72-1.9a2.17,2.17,0,0,0-2.12,2.31v5.39h-1.63v-5.8c0-1.36-.6-1.9-1.72-1.9a2.18,2.18,0,0,0-2.13,2.26v5.44Z" style="fill: #fff"/>
      <path d="M794,125.88c.17-1.63,1.58-2.72,3.79-2.72s3.6,1.24,3.6,3.06v6h-1.34l-.21-1.21a3.42,3.42,0,0,1-3,1.46c-1.94,0-3.06-1.09-3.06-2.53,0-1.62,1-2.53,3.35-2.94l2.58-.44v-.45c0-1.08-.73-1.69-2-1.69s-1.87.54-2,1.42Zm5.76,3.13v-1.14l-2.19.39c-1.58.27-2,.77-2,1.55s.61,1.32,1.72,1.32A2.38,2.38,0,0,0,799.77,129Z" style="fill: #fff"/>
      <path d="M805.16,132.26h-1.63V120h1.63Z" style="fill: #fff"/>
      <path d="M809,132.26h-1.63V120H809Z" style="fill: #fff"/>
      <path d="M825.69,120v12.24h-1.75V126.8h-6v5.46h-1.73V120H818v5.32h6V120Z" style="fill: #fff"/>
      <path d="M829.54,123.42v5.79a1.67,1.67,0,0,0,1.83,1.91,2.12,2.12,0,0,0,2.18-2.31v-5.39h1.63v8.84h-1.34l-.19-1a3.19,3.19,0,0,1-2.65,1.27c-1.82,0-3.1-1.07-3.1-3.33v-5.76Z" style="fill: #fff"/>
      <path d="M837.39,132.26V120H839v4.62a3.48,3.48,0,0,1,3-1.48c2.33,0,3.89,1.67,3.89,4.61s-1.68,4.74-4,4.74a3.31,3.31,0,0,1-2.87-1.43l-.26,1.18Zm4.21-7.7c-1.46,0-2.66,1.07-2.66,3.18s1.07,3.38,2.66,3.38,2.57-1.06,2.57-3.38S843.07,124.56,841.6,124.56Z" style="fill: #fff"/>
    </g>
    <g>
      <path d="M744.9,154.14l-3-4.66H739v4.66H737.3V141.9h4c3.11,0,4.85,1.38,4.85,3.84a3.46,3.46,0,0,1-2.47,3.39l3.3,5ZM739,143.31v4.76h2.31c1.9,0,3-.9,3-2.33,0-1.58-1-2.43-3-2.43Z" style="fill: #fff"/>
      <path d="M755.66,151.59a3.84,3.84,0,0,1-4,2.81c-2.51,0-4.33-1.57-4.33-4.68s1.8-4.67,4.25-4.67,4.14,1.46,4.14,5H749c.14,2,1.24,2.94,2.72,2.94a2.15,2.15,0,0,0,2.14-1.43Zm-6.56-2.8h5a2.32,2.32,0,0,0-2.45-2.43A2.51,2.51,0,0,0,749.1,148.79Z" style="fill: #fff"/>
      <path d="M757.55,154.14V145.3h1.34l.17,1a3,3,0,0,1,2.6-1.29,2.76,2.76,0,0,1,2.6,1.39,3.22,3.22,0,0,1,2.88-1.39c1.8,0,3,1.07,3,3.18v5.91H768.5v-5.8c0-1.34-.58-1.9-1.72-1.9a2.17,2.17,0,0,0-2.12,2.31v5.39H763v-5.8c0-1.36-.59-1.9-1.71-1.9a2.18,2.18,0,0,0-2.13,2.26v5.44Z" style="fill: #fff"/>
      <path d="M776.11,145.05c2.42,0,4.36,1.49,4.36,4.67s-1.87,4.68-4.37,4.68-4.35-1.62-4.35-4.68S773.72,145.05,776.11,145.05Zm0,8c1.56,0,2.64-1.16,2.64-3.35s-1.14-3.35-2.66-3.35-2.66,1.14-2.66,3.35S774.6,153.07,776.13,153.07Z" style="fill: #fff"/>
      <path d="M786.11,154.23a4.77,4.77,0,0,1-1.21.17,2.21,2.21,0,0,1-2.36-2.45V146.7h-1.31v-1.4h1.31l.1-2.12h1.53v2.12h1.91v1.4h-1.91V152c0,.66.32,1,.94,1a3.65,3.65,0,0,0,1-.14Z" style="fill: #fff"/>
      <path d="M795.17,151.59a3.85,3.85,0,0,1-4,2.81c-2.52,0-4.34-1.57-4.34-4.68s1.81-4.67,4.25-4.67,4.15,1.46,4.15,5h-6.73c.14,2,1.24,2.94,2.72,2.94a2.15,2.15,0,0,0,2.14-1.43Zm-6.56-2.8h5a2.32,2.32,0,0,0-2.45-2.43A2.51,2.51,0,0,0,788.61,148.79Z" style="fill: #fff"/>
      <path d="M806.05,141.9c3.08,0,4.79,1.4,4.79,4s-1.65,3.89-4.86,3.89h-2.17v4.37h-1.74V141.9Zm-2.24,1.41v5.05H806c2.15,0,3-.88,3-2.48s-1-2.57-3-2.57Z" style="fill: #fff"/>
      <path d="M822.1,141.9v12.24h-1.75v-5.46h-6v5.46h-1.73V141.9h1.73v5.32h6V141.9Z" style="fill: #fff"/>
      <path d="M827.69,154.14v-4.86l-4.49-7.38h1.91l3.45,5.88,3.57-5.88h1.76l-4.48,7.38v4.86Z" style="fill: #fff"/>
      <path d="M843.4,148.26c-2.84-.78-3.73-1.79-3.73-3.47s1.59-3.14,4.39-3.14c2.62,0,4.54,1.24,4.84,3.31h-1.78c-.19-1.19-1.22-1.88-3.06-1.88s-2.65.73-2.65,1.64.41,1.41,3.21,2.2c3.4,1,4.37,2,4.37,3.84s-1.73,3.64-4.78,3.64c-2.63,0-4.62-1.45-5-3.69H841c.21,1.37,1.33,2.26,3.15,2.26,2,0,3.08-1,3.08-2.14S846.69,149.16,843.4,148.26Z" style="fill: #fff"/>
      <path d="M850.78,154.14V141.9h1.63v4.4a3.2,3.2,0,0,1,2.58-1.25c1.92,0,3.13,1.17,3.13,3.33v5.76h-1.63V148.4a1.71,1.71,0,0,0-1.89-2,2.14,2.14,0,0,0-2.19,2.31v5.39Z" style="fill: #fff"/>
      <path d="M868,151.59a3.85,3.85,0,0,1-4,2.81c-2.52,0-4.34-1.57-4.34-4.68s1.81-4.67,4.25-4.67,4.15,1.46,4.15,5H861.4c.14,2,1.24,2.94,2.72,2.94a2.15,2.15,0,0,0,2.14-1.43Zm-6.56-2.8h5a2.32,2.32,0,0,0-2.45-2.43A2.51,2.51,0,0,0,861.47,148.79Z" style="fill: #fff"/>
      <path d="M871.55,154.14h-1.63V141.9h1.63Z" style="fill: #fff"/>
      <path d="M878.13,143.26a5.79,5.79,0,0,0-1.34-.2.85.85,0,0,0-.94.9v1.34h1.9v1.4h-1.9v7.44h-1.63V146.7h-1.31v-1.4h1.31v-1.24a2.3,2.3,0,0,1,2.46-2.41,5.18,5.18,0,0,1,1.45.2Z" style="fill: #fff"/>
    </g>
    <g>
      <path d="M1358,456.45l-3-4.65h-2.91v4.65h-1.73V444.21h4c3.11,0,4.85,1.38,4.85,3.85a3.46,3.46,0,0,1-2.47,3.38l3.3,5Zm-5.87-10.83v4.76h2.32c1.9,0,3-.9,3-2.32,0-1.58-1-2.44-3-2.44Z" style="fill: #fff"/>
      <path d="M1368.74,453.9a3.85,3.85,0,0,1-4,2.81c-2.52,0-4.34-1.57-4.34-4.68s1.81-4.67,4.25-4.67,4.15,1.46,4.15,5h-6.73c.14,2,1.24,2.94,2.72,2.94a2.15,2.15,0,0,0,2.14-1.43Zm-6.56-2.8h5a2.32,2.32,0,0,0-2.45-2.43A2.51,2.51,0,0,0,1362.18,451.1Z" style="fill: #fff"/>
      <path d="M1370.63,456.45v-8.84H1372l.17,1a3,3,0,0,1,2.6-1.29,2.77,2.77,0,0,1,2.6,1.39,3.2,3.2,0,0,1,2.87-1.39c1.81,0,3,1.07,3,3.18v5.91h-1.64v-5.79c0-1.35-.57-1.91-1.71-1.91a2.19,2.19,0,0,0-2.13,2.31v5.39h-1.63v-5.79c0-1.36-.59-1.91-1.72-1.91a2.18,2.18,0,0,0-2.12,2.26v5.44Z" style="fill: #fff"/>
      <path d="M1389.19,447.36c2.42,0,4.35,1.49,4.35,4.67s-1.87,4.68-4.37,4.68-4.35-1.62-4.35-4.68S1386.79,447.36,1389.19,447.36Zm0,8c1.56,0,2.63-1.15,2.63-3.35s-1.14-3.35-2.65-3.35-2.67,1.14-2.67,3.35S1387.68,455.38,1389.21,455.38Z" style="fill: #fff"/>
      <path d="M1399.19,456.54a4.41,4.41,0,0,1-1.21.17,2.21,2.21,0,0,1-2.36-2.45V449h-1.31v-1.4h1.31l.1-2.12h1.53v2.12h1.9V449h-1.9v5.28c0,.67.32,1,.93,1a3.76,3.76,0,0,0,1-.14Z" style="fill: #fff"/>
      <path d="M1408.25,453.9a3.85,3.85,0,0,1-4,2.81c-2.52,0-4.34-1.57-4.34-4.68s1.8-4.67,4.25-4.67,4.15,1.46,4.15,5h-6.73c.13,2,1.24,2.94,2.72,2.94a2.16,2.16,0,0,0,2.14-1.43Zm-6.56-2.8h5a2.32,2.32,0,0,0-2.45-2.43A2.51,2.51,0,0,0,1401.69,451.1Z" style="fill: #fff"/>
      <path d="M1419.13,444.21c3.07,0,4.79,1.4,4.79,4s-1.65,3.89-4.86,3.89h-2.18v4.37h-1.73V444.21Zm-2.25,1.41v5.05h2.21c2.16,0,3-.88,3-2.48s-1-2.57-3-2.57Z" style="fill: #fff"/>
      <path d="M1435.17,444.21v12.24h-1.75V451h-6v5.45h-1.73V444.21h1.73v5.33h6v-5.33Z" style="fill: #fff"/>
      <path d="M1440.77,456.45v-4.86l-4.49-7.38h1.9l3.45,5.89,3.57-5.89H1447l-4.49,7.38v4.86Z" style="fill: #fff"/>
      <path d="M1462.68,444.21v12.24h-2.19l-5.9-10.25v10.25H1453V444.21h2.29l5.83,10.17V444.21Z" style="fill: #fff"/>
      <path d="M1468.83,447.36c2.42,0,4.36,1.49,4.36,4.67s-1.87,4.68-4.37,4.68-4.36-1.62-4.36-4.68S1466.44,447.36,1468.83,447.36Zm0,8c1.56,0,2.64-1.15,2.64-3.35s-1.14-3.35-2.66-3.35-2.66,1.14-2.66,3.35S1467.32,455.38,1468.85,455.38Z" style="fill: #fff"/>
      <path d="M1481.52,456.45l-.29-1.24a3.43,3.43,0,0,1-2.94,1.5c-2.23,0-3.91-1.63-3.91-4.63,0-3.16,1.64-4.72,4-4.72a3.34,3.34,0,0,1,2.84,1.38v-4.53h1.63v12.24Zm-2.88-1.14c1.69,0,2.67-1.32,2.67-3.17,0-2.16-1-3.39-2.67-3.39s-2.56,1.06-2.56,3.37C1476.08,454.24,1477.16,455.31,1478.64,455.31Z" style="fill: #fff"/>
      <path d="M1492.85,453.9a3.84,3.84,0,0,1-4,2.81c-2.51,0-4.33-1.57-4.33-4.68s1.8-4.67,4.25-4.67,4.15,1.46,4.15,5h-6.74c.14,2,1.24,2.94,2.72,2.94a2.16,2.16,0,0,0,2.15-1.43Zm-6.56-2.8h5a2.32,2.32,0,0,0-2.45-2.43A2.52,2.52,0,0,0,1486.29,451.1Z" style="fill: #fff"/>
    </g>
  </g>
</svg>
