<svg xmlns="http://www.w3.org/2000/svg" xmlns:xlink="http://www.w3.org/1999/xlink" viewBox="0 0 1938 558.39"><defs><style>.cls-1,.cls-11,.cls-13,.cls-15,.cls-16,.cls-17,.cls-18,.cls-19,.cls-2,.cls-5,.cls-6,.cls-7,.cls-9{fill:none;}.cls-11,.cls-13,.cls-15,.cls-16,.cls-18,.cls-19,.cls-2,.cls-5,.cls-6,.cls-7,.cls-9{stroke:#fff;}.cls-11,.cls-15,.cls-18,.cls-19,.cls-2,.cls-5,.cls-6{stroke-linejoin:round;}.cls-2{stroke-width:3.64px;}.cls-14,.cls-3,.cls-4,.cls-8{fill:#fff;}.cls-17,.cls-3,.cls-4{fill-rule:evenodd;}.cls-4{opacity:0.16;}.cls-5,.cls-7{stroke-width:3px;}.cls-18,.cls-19,.cls-6,.cls-9{stroke-width:2px;}.cls-13,.cls-16,.cls-7,.cls-9{stroke-miterlimit:10;}.cls-10,.cls-19{opacity:0.75;}.cls-11{stroke-width:2px;}.cls-12{clip-path:url(#clip-path);}.cls-13{stroke-width:4px;opacity:0.8;}.cls-14,.cls-17,.cls-18{opacity:0.5;}.cls-14{font-size:12px;font-family:MyriadPro-Regular, Myriad Pro;letter-spacing:-0.01em;}.cls-15{stroke-width:1.98px;}.cls-16{stroke-width:3.13px;}</style><clipPath id="clip-path" transform="translate(9 -25.68)"><circle id="Digital_Fiber_Circle" data-name="Digital Fiber Circle" class="cls-1" cx="1108.03" cy="346.35" r="121.35" transform="translate(-35.12 144.1) rotate(-7.33)"/></clipPath></defs><title>Cable Architecture CCAP Transform cnBR</title><g id="cBR-8_Architecture" data-name="cBR-8 Architecture"><g id="CCAP_Core_Icon" data-name="CCAP Core Icon"><rect class="cls-2" x="883.74" y="338.99" width="70.93" height="60.17"/><path class="cls-3" d="M910.22,374.73a19.86,19.86,0,1,1-19.86,19.85A19.86,19.86,0,0,1,910.22,374.73Zm0,2.19a18.14,18.14,0,0,0-3.56.36l-.73.23v7.74H902l7.9,7.89,7.89-7.89h-3.95v-8h0A18.14,18.14,0,0,0,910.22,376.92Zm-9.55,9.91v3.95H893l-.08.24a17.83,17.83,0,0,0,0,7.13l.16.52h7.59v3.94l7.89-7.89Zm18.41,0-7.89,7.89,7.89,7.89v-3.94h8.28l.17-.52a18.33,18.33,0,0,0,0-7.13l-.08-.24h-8.37Zm-9.2,9.47-7.9,7.89h3.95v7.47l.73.23a17.78,17.78,0,0,0,7.12,0h0v-7.69h3.95Z" transform="translate(9 -25.68)"/></g><path class="cls-4" d="M1921.78,250.12h-32.09V279h-9.62V184.26h-27.28V164.18h-37.7L1803.85,177H1795v18.48h-20.86v57l-5.1,5.11-23.39-23.36V209.38l-20.9-20.88v-57h-20.91V113H1695l-11.26-12.86H1646v20.09h-27.34v12.41l8.6,4.35v-7.13H1635v9l3.25,5.1v19.18H1654a4.53,4.53,0,0,1,4.46,4.52v52.47H1564V167.69a4.53,4.53,0,0,1,4.46-4.52h1.13V97.91h-77.72v18h-32.11v89.27h-24.83V139.53h-13.31V92.45h-38.47v47.08h-11.78V92.45l-34,47.08h-16.25v36h-23.76v29.64h-52.85V179.24h-22.62V145.79h-15v63h-35.4V92h-33.85V88.92h-12.85l-7.69-8.41V73.9h-39.7l.45,15h-23.32V175h-20.37V136.57h-22.72v45.75H977.2v59.76l9.46,24.73V375.38h3.53a121.48,121.48,0,0,1,82.22-145.09v-2.64h7.43v.62a121.43,121.43,0,0,1,146,147.11h136a34.72,34.72,0,0,1,49.89,0h165.58l33.86-27,17.16,12.54v-8.64h12v18.11l5.93,5H1929V249.32Zm-921.9-16.41h-7v-15h7Zm0-25h-7v-15h7Zm31.87-37.55h-7.19V153.79h7.19Zm38.35-57.51v-15h7v15Zm11.78,91.68h-7.42v-16h7.42Zm1.11-32.12h-7.43v-16H1083Zm9,32.12h-7.42V189.23H1092Zm1.11-32.12h-7.43v-16h7.43Zm9.84-.08h-7v-16h7Zm3.11-16.05h7v16.05h-7Zm7.51,49.78h-7.42v-16h7.42Zm21-88.34h-8.2V101.66h8.2Zm4-16.39h8.21v16.82h-8.21Zm9.23,58.22h-8.2V143.48h8.2Zm1-58.73h7v16.9h-7Zm14.34,104.22h-7.43V189.75h7.43Zm2.84-87.32h-7v-17h7Zm73.18,111.7h-7.75V213.83h7.75Zm.25-26.94H1232V187.19h7.43Zm13.07,26.94h-7.75V213.83h7.75Zm5.57-16.35h7.76v16.35h-7.76Zm.72,24.38h7.76v16.35h-7.76Zm7.94,40.74H1259V262.59h7.76Zm4.67-65.12h7.75v16.35h-7.75Zm.72,24.38h7.75v16.35h-7.75ZM1280,279h-7.76V262.59H1280Zm39,24.53h-7.76V287.12h7.76Zm0-24.53h-7.76V262.59h7.76Zm13.32,0h-7.75V262.59h7.75Zm19.55,24.53h-7.75V287.12h7.75Zm26.51,47.93h-7.75V335.06h7.75Zm46.1-154.82h-3.18a34.76,34.76,0,1,1-50.67-34.78V147.19h10.13v11.17a33.63,33.63,0,0,1,4.63-.5V147.19h10.13v11.75a35,35,0,0,1,4.63,1.56V147.19h10.13V167a34.83,34.83,0,0,1,6.6,8.23h7.6Zm.56-28H1415V147.19h10.13Zm42,61.3h7.75v16.36h-7.75Zm8,65.44h-7.76V279h7.76Zm0-24.38h-7.76V254.56h7.76Zm13.32,24.38h-7.76V279h7.76Zm159.94-149.08h-7.75V129.86h7.75Zm5.57,0V129.86h7.76v16.36ZM1552.1,106.68h7.76V123h-7.76Zm-13.32,0h7.76V123h-7.76Zm-26.65,0h7.76V123h-7.76Zm8.82,62.73h-7.76V153.05H1521ZM1533.21,123h-7.75V106.68h7.75Zm5.57,6.83h7.76v16.36h-7.76Zm8.81,39.55h-7.75V153.05h7.75Zm4.51-39.55h7.76v16.36h-7.76Zm1.06,23.19h7.76v16.36h-7.76Zm109.19,171.27H1608v6h-41.66V303.71h-6.23l18-9.59V280.81a4,4,0,0,1,4-3.91h16.12V253.19a4,4,0,0,1,4-4h14.07a4,4,0,0,1,4,4v37.46h20.08V268a11,11,0,0,1,22,0Zm4.86-194.46H1675v16.36h-7.76Zm8.6,122.76h-7.76V236.26h7.76ZM1689.13,319h-7.75V302.6h7.75Zm0-66.33h-7.75V236.26h7.75Zm16.21-67.25h-7.75V169h7.75Zm13.32,0h-7.75V169h7.75ZM1729.1,319h-7.75V302.6h7.75ZM1791.27,222h-7.75V205.65h7.75Zm12.61,24.39h-7.76V230h7.76Zm.72-24.39h-7.76V205.65h7.76Zm12.6,24.39h-7.75V230h7.75Zm.72-24.39h-7.76V205.65h7.76Zm12.61,24.39h-7.76V230h7.76Zm.71-24.39h-7.75V205.65h7.75Zm12.61,24.39h-7.76V230h7.76Zm10.26,60.3h-7.76V290.33h7.76Zm13.32,0h-7.76V290.33h7.76Z" transform="translate(9 -25.68)"/><polygon id="House" class="cls-5" points="1670.81 469.48 1649.35 451.37 1649.35 433.26 1637.37 433.26 1637.37 441.89 1620.21 429.36 1569.94 469.48 1583.88 469.48 1584.15 514.06 1656.32 514.06 1656.32 469.2 1670.81 469.48"/><path class="cls-4" d="M833.74,375.38V331.19a178.34,178.34,0,0,1-5.53,44.19Z" transform="translate(9 -25.68)"/><path class="cls-4" d="M390.5,205.34c.28-1.13.59-2.26.87-3.39h0l-.87.51Z" transform="translate(9 -25.68)"/><path class="cls-4" d="M483,375.38a178.34,178.34,0,0,1-5.53-44.19v44.19Z" transform="translate(9 -25.68)"/><line class="cls-6" x1="1430" y1="166.91" x2="1573" y2="166.91"/><line class="cls-6" x1="1430.8" y1="488.32" x2="1581.85" y2="488.32"/><g id="FIber_Node" data-name="FIber Node"><path class="cls-7" d="M1421.58,511.49a34.76,34.76,0,1,1-34.76-34.76A34.76,34.76,0,0,1,1421.58,511.49Z" transform="translate(9 -25.68)"/><path class="cls-3" d="M1389.26,504.55l-.06,1.11c-.11,3.51,0,11.47,0,16.69a66.18,66.18,0,0,1,5.06-11.35l2-3,.9,1.35a4.37,4.37,0,0,0,3.12,1.31l.35-.07-1,1.22c-3.09,4.15-6.72,11.79-7.66,15.92-1.07,4.71-.71,10.79-.55,16h-8.82c-.06-4.39.68-9.32-1.13-14.73a83.58,83.58,0,0,0-8.67-16.76l-1-1.31,1.37-.28a4.16,4.16,0,0,0,2.2-2.22l0-.23,2.18,3.19a55.42,55.42,0,0,1,5.94,12c.19-4.23.14-14.68-.14-18.29l0-.43.87.59a5.09,5.09,0,0,0,4,0Z" transform="translate(9 -25.68)"/><path class="cls-8" d="M1364.25,504.55c0-2.08,2-3.76,4.39-3.76s4.39,1.68,4.39,3.76-2,3.76-4.39,3.76S1364.25,506.63,1364.25,504.55Z" transform="translate(9 -25.68)"/><circle class="cls-8" cx="1394.57" cy="471.35" r="5.02"/><circle class="cls-8" cx="1411.5" cy="478.25" r="4.39"/></g><circle id="Digital_Fiber_Circle-2" data-name="Digital Fiber Circle" class="cls-7" cx="1108.03" cy="346.32" r="121.35" transform="translate(-26.11 118.43) rotate(-7.33)"/><polygon id="House-2" data-name="House" class="cls-5" points="1670.81 362.8 1649.36 344.69 1649.36 326.58 1637.37 326.58 1637.37 335.21 1620.21 322.68 1569.94 362.8 1583.88 362.8 1584.15 407.38 1656.32 407.38 1656.32 362.52 1670.81 362.8"/><g id="FIber_Node-2" data-name="FIber Node"><path class="cls-7" d="M1421.58,192.59a34.76,34.76,0,1,1-34.76-34.76A34.76,34.76,0,0,1,1421.58,192.59Z" transform="translate(9 -25.68)"/><path class="cls-3" d="M1389.26,185.65l-.06,1.11c-.11,3.51,0,11.46,0,16.69a65.83,65.83,0,0,1,5.06-11.35l2-3,.9,1.35a4.37,4.37,0,0,0,3.12,1.31l.35-.08-1,1.23c-3.09,4.15-6.72,11.78-7.66,15.91-1.07,4.72-.71,10.79-.55,15.95h-8.82c-.06-4.39.68-9.32-1.13-14.72a83.66,83.66,0,0,0-8.67-16.77l-1-1.3,1.37-.28a4.18,4.18,0,0,0,2.2-2.23l0-.22,2.18,3.18a55.51,55.51,0,0,1,5.94,12c.19-4.24.14-14.68-.14-18.3l0-.43.87.6a5.21,5.21,0,0,0,4,0Z" transform="translate(9 -25.68)"/><path class="cls-8" d="M1364.25,185.65c0-2.08,2-3.77,4.39-3.77s4.39,1.69,4.39,3.77-2,3.76-4.39,3.76S1364.25,187.72,1364.25,185.65Z" transform="translate(9 -25.68)"/><path class="cls-8" d="M1380.55,178.12a5,5,0,1,1,5,5A5,5,0,0,1,1380.55,178.12Z" transform="translate(9 -25.68)"/><path class="cls-8" d="M1398.11,185a4.39,4.39,0,1,1,4.39,4.39A4.39,4.39,0,0,1,1398.11,185Z" transform="translate(9 -25.68)"/></g><path id="Business_Icon" data-name="Business Icon" class="cls-5" d="M1654.05,163.17h-15.8V144a2.56,2.56,0,0,0-1.21-2.06l-25.79-13-25.78,13a2.54,2.54,0,0,0-1.22,2.06v19.18h-15.8a4.52,4.52,0,0,0-4.45,4.52v52.47h94.5V167.69a4.53,4.53,0,0,0-4.45-4.52m-65.34,43.29h-8.92v-9h8.92Zm0-20.55h-8.92v-9h8.92Zm18.09,20.55h-9v-9h9Zm0-20.55h-9v-9h9Zm-4.6-34.25a9.05,9.05,0,0,1,18.1,0,9.05,9.05,0,1,1-18.1,0Zm22.55,54.8h-9v-9h9Zm0-20.55h-9v-9h9Zm18,20.55h-8.92v-9h8.92Zm0-20.55h-8.92v-9h8.92Z" transform="translate(9 -25.68)"/><path class="cls-5" d="M1651.28,257.1A10.93,10.93,0,0,0,1640.34,268v22.64h-20.08V253.19a4,4,0,0,0-4-4h-14.07a4,4,0,0,0-4,4V276.9h-16.12a4,4,0,0,0-4,3.91v13.31l6.52-3.47h-.5v-7.82h10v7.82h-4.48l7.82,4.16v-6.57H1603v9.47l1.31.69v-1.82h10v7.94H1608v5.93h6.23v7.94H1608v5.93h54.34V268A11,11,0,0,0,1651.28,257.1Zm-37,33.55h-10v-7.82h10Zm0-13.75h-10V269h10Zm0-13.87h-10v-7.95h10Zm22,55.36h-12v-7.94h12Zm0-13.87h-12v-7.94h12Zm20.08,13.87h-10v-7.94h10Zm0-13.87h-10v-7.94h10Zm0-13.87h-10v-7.82h10Zm0-13.75h-10V269h10Z" transform="translate(9 -25.68)"/><polygon class="cls-5" points="1606.5 262.57 1611.95 262.57 1611.95 272.03 1623.24 278.04 1617.01 278.04 1617.01 304.66 1575.35 304.66 1575.35 278.04 1569.13 278.04 1596.18 263.64 1606.5 269.13 1606.5 262.57"/><g id="Access_Switch_Icon" data-name="Access Switch Icon"><rect class="cls-9" x="883.44" y="232.32" width="71.23" height="71.23" rx="0.71" ry="0.71"/><path class="cls-3" d="M940.51,283.27l-7.21-6.37a3,3,0,0,0-3.86,0l-.16.15a2.18,2.18,0,0,0,0,3.38l2,1.7H904.39a2.19,2.19,0,0,0-2.38,2.09v.15a2.41,2.41,0,0,0,2.38,2.35H932l-2.7,2.61a2.33,2.33,0,0,0,0,3.52l.16.2a3,3,0,0,0,3.86,0l7.21-6.35a2.29,2.29,0,0,0,0-3.46Z" transform="translate(9 -25.68)"/><path class="cls-3" d="M940.51,314.56l-7.21-6.36a3,3,0,0,0-3.86,0l-.16.15a2,2,0,0,0,0,3.24l2,1.56H904.39a2.42,2.42,0,0,0-2.38,2.36v.15c0,1.35,1.18,3.23,2.38,3.23H932l-2.7,2.17a2.1,2.1,0,0,0,0,3.3l.16.09a3,3,0,0,0,3.86,0l7.21-6.38a2.32,2.32,0,0,0,0-3.49Z" transform="translate(9 -25.68)"/><path class="cls-3" d="M881.63,273.23l7.21,6.36a3,3,0,0,0,3.86,0l.17-.15a2.35,2.35,0,0,0,0-3.52l-2-1.84h26.84c1.2,0,2.64-.46,2.64-1.8v-.15a2.91,2.91,0,0,0-2.64-2.64H890.16l2.71-2.47a2.26,2.26,0,0,0,0-3.44l-.17-.17a3,3,0,0,0-3.86,0l-7.21,6.36a2.3,2.3,0,0,0,0,3.47Z" transform="translate(9 -25.68)"/><path class="cls-3" d="M881.63,306.65l7.21,6.37a3,3,0,0,0,3.86,0l.17-.15a2.41,2.41,0,0,0,0-3.58l-2-1.89h26.84c1.2,0,2.64-.35,2.64-1.7v-.14a3,3,0,0,0-2.64-2.75H890.16l2.71-2.42a2.23,2.23,0,0,0,0-3.41l-.17-.16a3,3,0,0,0-3.86,0l-7.21,6.37a2.29,2.29,0,0,0,0,3.46Z" transform="translate(9 -25.68)"/></g><path class="cls-4" d="M603.62,62.16a14.65,14.65,0,0,1,3.93.93V37.21L584.42,43h5.47a14.72,14.72,0,0,1,14.77,15,20.83,20.83,0,0,1-1,4.19Z" transform="translate(9 -25.68)"/><path class="cls-4" d="M723.3,102a6.21,6.21,0,0,1-4.33,1,7.06,7.06,0,0,1-3.61-1.5,7.13,7.13,0,0,1-1.68-1.86c-1.07-1.85-4.35-7.32-7.65-12.83l-22.5-8.62,8.24-2.09.05-30.8L611.17,25.68l-126,31.56v73.18h-1.68v48.82l-6,.65v151.3a177.42,177.42,0,0,1,20.31-82.66v-8.46l5-.44a179.33,179.33,0,0,1,29.63-37.1l-1.67.17v-9.82l12-1.47v1.94a178,178,0,0,1,24.47-16.86L563,177V166.55l12.69-1.78V172c1.1-.55,2.2-1.1,3.32-1.63v-6l15.17-2.13v1.77q6.57-2.43,13.39-4.32V109.75H555.34l-9.27,1.63v-1.63h-3.31V112l-12,2.12v-4.33h-4v5l-12.93,2.28v-7.31h-8.61A14.58,14.58,0,0,1,490.9,95.31c0-8.42,6.56-15,14.31-15l16,.09c0-.06,0-.1-.05-.15a14.48,14.48,0,0,1-.25-3.19h0a15.3,15.3,0,0,1,1.75-7.14,13.64,13.64,0,0,1,.72-1.23,14.67,14.67,0,0,1,5-4.74,13.76,13.76,0,0,1,6.73-1.77s19.76,0,24.53,0h.08a10.32,10.32,0,0,1-.59-4.19,15.32,15.32,0,0,1,3.18-9.42l-76.6,19.18V63.62L608.53,32.38h6.06l71,18.08-1,6-70-19V68.79c.17.26.33.53.49.8a14.92,14.92,0,0,1,2,7.43h0a9.68,9.68,0,0,1-.1,1.33,11.66,11.66,0,0,1-.7,2.56,14.68,14.68,0,0,1,5,2.78c.31.25.6.52.89.8a16.55,16.55,0,0,1,2.28,2.78,14.91,14.91,0,0,1,2.44,8,14.63,14.63,0,0,1-12.31,14.27v48.23a178.89,178.89,0,0,1,99.85,5.2v-5.93l8.94,2.56v6.77c.94.39,1.87.78,2.81,1.19v-7.15l8,2.3v8.57c.94.46,1.88.92,2.82,1.4v-9.16l8,2.3v11.28c.94.55,1.88,1.1,2.81,1.66V166.67l8.56,2.45v14.36l-2.22-.63c9,6,9.41,4.08,9.41,4.08V108.86L726.7,94.7A6.89,6.89,0,0,1,723.3,102ZM579,117.6l15.17-2.68v12.6L579,129.92Zm0,24.3,15.17-2.4v10.73L579,152.36Zm-32.92-18.51L559.66,121v12l-13.59,2.15Zm0,23.72L559.66,145v10.11L546.07,157Zm0,21.81,13.59-1.9v10.39l-13.59,1.67Zm-15.34-42.83,12-2.11v11.67l-12,1.9Zm0,23.44,12-1.9v9.81l-12,1.69Zm0,21.55,12-1.69v10.1l-12,1.47Zm-16.91-42,12.93-2.28v11.39l-12.93,2Zm0,23.14,12.93-2.05v9.53l-12.93,1.81Zm0,21.24,12.93-1.81v9.81L513.82,183Zm0,21.51,12.93-1.59v9.75l-12.93,1.36ZM497.77,131.9l12.07-2.13v11.09l-12.07,1.91Zm0,22.85,12.07-1.91v9.22l-12.07,1.7Zm0,20.95L509.84,174v9.52L497.77,185Zm0,21.23,12.07-1.48v9.45l-12.07,1.26Zm0,21.13,12.07-1.27v10.35l-12.07,1.05ZM688.64,105.83l0-1.1,3.52,1.1Zm23,23.06h-6.55v-6.78l6.55,2Zm0-7.72-6.55-2v-9.3l6.55,2Zm11.76,35.58-8.94-2.56V140.93l8.94,2.73Zm0-16L714.44,138V125l8.94,2.73Zm0-16L714.44,122v-9.25l8.94,2.79Zm24.52-1.52,8.56,2.67v9l-8.56-2.61Zm0,27.91,8.56,2.61v12.47l-8.56-2.46Zm-10.85-31.3,8,2.51v9l-8-2.45Zm0,12,8,2.45v13l-8-2.46Zm0,16,8,2.46V163l-8-2.31Zm-2.82,12-8-2.31v-13l8,2.45Zm0-15.82-8-2.46v-13l8,2.46Zm0-16-8-2.46v-9.16l8,2.51Z" transform="translate(9 -25.68)"/><g class="cls-10"><path class="cls-11" d="M445.87,109.24c-21.27,16-43.32,40.91-67,80.62-1.23-2.26-6.12-12.53-6.25-12.74a7.48,7.48,0,0,0-5.12-3.33h-.05c-.41-.05-1.41-.05-1.5-.05a6.67,6.67,0,0,0-1.24.2,7.12,7.12,0,0,0-5.25,5.58,8.17,8.17,0,0,0-.15,1.75,6,6,0,0,0,.73,2.72s12,27.53,12.26,28.17a8.88,8.88,0,0,0,3.87,3.62,7.9,7.9,0,0,0,6.28-.13c2.43-1.08,23.65-11.45,27.75-13.37a7.2,7.2,0,0,0,2-1.52,7.13,7.13,0,0,0,1.81-3.46,6.29,6.29,0,0,0-.59-4.4,7,7,0,0,0-9.35-3.43s-12.31,5.7-12.59,5.7c1.11-2.14,1.94-3.64,2.09-4,17.79-31.33,48.53-59.69,61.56-70.46C461.76,115,457.24,102.54,445.87,109.24Z" transform="translate(9 -25.68)"/></g><g class="cls-10"><path class="cls-11" d="M809.48,126.94c-17.84-19.77-44.57-39.54-86.2-59.63,2.14-1.43,11.94-7.2,12.13-7.35a7.47,7.47,0,0,0,2.88-5.39v-.06c0-.4-.07-1.4-.08-1.49a7.53,7.53,0,0,0-.31-1.22,7.1,7.1,0,0,0-.63-1.34,7.49,7.49,0,0,0-5.39-3.4,8,8,0,0,0-1.76,0,6,6,0,0,0-2.65,1s-26.36,14.34-27,14.69a8.78,8.78,0,0,0-3.27,4.17,7.91,7.91,0,0,0,.68,6.24c1.29,2.33,13.49,22.55,15.77,26.47a7.13,7.13,0,0,0,1.68,1.86A7.06,7.06,0,0,0,719,103a6.21,6.21,0,0,0,4.33-1,7,7,0,0,0,2.6-9.61s-6.77-11.76-6.79-12c2.23.92,3.8,1.62,4.13,1.74C756,97,787,125.17,798.85,137.2,805.18,143.28,817.15,137.67,809.48,126.94Z" transform="translate(9 -25.68)"/></g></g><g id="Layer_4" data-name="Layer 4"><g id="Digital_Fiber_Clipped" data-name="Digital Fiber Clipped"><g class="cls-12"><circle id="Digital_Fiber_Circle-3" data-name="Digital Fiber Circle" class="cls-13" cx="1108.03" cy="346.35" r="121.35" transform="translate(-26.12 118.43) rotate(-7.33)"/><text class="cls-14" transform="translate(969.14 192.74)">0101010111001101101001010101111000001010101101010<tspan x="0" y="12">1010101101100101010110110110110101010101011100110</tspan><tspan x="0" y="24">1101001010101111000001010101101010101010110110010</tspan><tspan x="0" y="36">1010110110110110101010101011100110110100101010111</tspan><tspan x="0" y="48">1000001010101101010101010110110010101011011011011</tspan><tspan x="0" y="60">0101010101011100110110100101010111100000101010110</tspan><tspan x="0" y="72">1010101010110110010101011011011011010101010101110</tspan><tspan x="0" y="84">0110110100101010111100000101010110101010101011011</tspan><tspan x="0" y="96">0010101011011011011010101010101110011011010010101</tspan><tspan x="0" y="108">0111100000101010110101010101011011001010101101101</tspan><tspan x="0" y="120">1011010101010101110011011010010101011110000010101</tspan><tspan x="0" y="132">0110101010101011011001010101101101101101010101010</tspan><tspan x="0" y="144">1110011011010010101011110000010101011010101010101</tspan><tspan x="0" y="156">1011001010101101101101101010101010111001101101001</tspan><tspan x="0" y="168">0101011110000010101011010101010101101100101010110</tspan><tspan x="0" y="180">1101101101010101010111001101101001010101111000001</tspan><tspan x="0" y="192">0101011010101010101101100101010110110110110101010</tspan><tspan x="0" y="204">1010111001101101001010101111000001010101101010101</tspan><tspan x="0" y="216">0101101100101010110110110110101010101011100110110</tspan><tspan x="0" y="228">1001010101111000001010101101010101010110110010101</tspan><tspan x="0" y="240">0110110110110101010101011100110110100101010111100</tspan><tspan x="0" y="252">0001010101101010101010110110010101011011011011010</tspan><tspan x="0" y="264">1010101011100110110100101010111100000101010110101</tspan></text></g></g><line class="cls-6" x1="863.39" y1="166.94" x2="1361.06" y2="166.94"/><line class="cls-15" x1="861.65" y1="488.35" x2="1361.99" y2="488.35"/><g id="R_PHY_Icon" data-name="R PHY Icon"><path class="cls-3" d="M807.48,177.12l-7.17,7.42a2.22,2.22,0,0,0,0,2.68,1.67,1.67,0,0,0,2.59,0l4.18-4.13v14.23a1.8,1.8,0,1,0,3.59,0V182.89l4.18,4.33a1.67,1.67,0,0,0,2.59,0,1.79,1.79,0,0,0,0-2.68l-7.17-7.42A1.87,1.87,0,0,0,807.48,177.12Z" transform="translate(9 -25.68)"/><path class="cls-3" d="M810.27,241.94l7.17-7.63a1.79,1.79,0,0,0,0-2.68,1.84,1.84,0,0,0-2.59.2L810.67,236V221.73a1.61,1.61,0,0,0-1.8-1.85,1.81,1.81,0,0,0-1.79,1.85v14.43l-4.18-4.33a1.67,1.67,0,0,0-2.59,0,2.22,2.22,0,0,0,0,2.68l7.37,7.43A1.67,1.67,0,0,0,810.27,241.94Z" transform="translate(9 -25.68)"/><path class="cls-3" d="M790.11,204.62h36.64a.21.21,0,0,1,.2.22v9.37a.21.21,0,0,1-.2.22H790.11a.22.22,0,0,1-.21-.22v-9.37A.22.22,0,0,1,790.11,204.62Zm4,2.67-1.53,4.3h1.84l1.64-4.3Zm3.16,0-1.53,4.3h1.84l1.64-4.3Zm3.13,0-1.53,4.3h1.84l1.64-4.3Zm3.16,0-1.53,4.3h1.84l1.64-4.3Zm3.21,0-1.53,4.3h1.83l1.65-4.3Zm15.72.72a1.44,1.44,0,1,0,1.36,1.44A1.4,1.4,0,0,0,822.47,208Z" transform="translate(9 -25.68)"/><path class="cls-3" d="M784.89,200.26a1.78,1.78,0,0,1,1.3,3.1l-3.68,3.73-.39.39H787a1.84,1.84,0,0,1,0,3.68l-5,.12,4.21,4.46a1.88,1.88,0,0,1,0,2.44,1.7,1.7,0,0,1-2.61,0l-7.41-7.31a1.93,1.93,0,0,1,.2-2.64l7.21-7.51A2.22,2.22,0,0,1,784.89,200.26Z" transform="translate(9 -25.68)"/><path class="cls-3" d="M833.06,218.79a2.07,2.07,0,0,1-1.3-.48,2.4,2.4,0,0,1,0-2.8l3.68-3.95.39-.42h-4.89a2,2,0,0,1,0-3.89l5-.12-4.21-4.73a2.07,2.07,0,0,1,0-2.58,1.63,1.63,0,0,1,2.6,0l7.42,7.74a2.13,2.13,0,0,1-.2,2.79l-7.22,8A2.07,2.07,0,0,1,833.06,218.79Z" transform="translate(9 -25.68)"/></g><g id="R_PHY_Icon-2" data-name="R PHY Icon"><path class="cls-3" d="M807.48,461l-7.17,7.42a2.23,2.23,0,0,0,0,2.69,1.67,1.67,0,0,0,2.59,0l4.18-4.13v14.23a1.8,1.8,0,1,0,3.59,0V466.78l4.18,4.33a1.67,1.67,0,0,0,2.59,0,1.8,1.8,0,0,0,0-2.69L810.27,461A1.89,1.89,0,0,0,807.48,461Z" transform="translate(9 -25.68)"/><path class="cls-3" d="M810.27,525.82l7.17-7.62a1.79,1.79,0,0,0,0-2.68,1.84,1.84,0,0,0-2.59.2l-4.18,4.13V505.62a1.62,1.62,0,0,0-1.8-1.86,1.82,1.82,0,0,0-1.79,1.86v14.43l-4.18-4.33a1.67,1.67,0,0,0-2.59,0,2.22,2.22,0,0,0,0,2.68l7.37,7.42A1.66,1.66,0,0,0,810.27,525.82Z" transform="translate(9 -25.68)"/><path class="cls-3" d="M790.11,488.51h36.64a.21.21,0,0,1,.2.22v9.37a.21.21,0,0,1-.2.22H790.11a.22.22,0,0,1-.21-.22v-9.37A.22.22,0,0,1,790.11,488.51Zm4,2.67-1.53,4.3h1.84l1.64-4.3Zm3.16,0-1.53,4.3h1.84l1.64-4.3Zm3.13,0-1.53,4.3h1.84l1.64-4.3Zm3.16,0-1.53,4.3h1.84l1.64-4.3Zm3.21,0-1.53,4.3h1.83l1.65-4.3Zm15.72.72a1.44,1.44,0,1,0,1.36,1.44A1.4,1.4,0,0,0,822.47,491.9Z" transform="translate(9 -25.68)"/><path class="cls-3" d="M784.89,484.15a2.11,2.11,0,0,1,1.3.46,2.16,2.16,0,0,1,0,2.64L782.51,491l-.39.39H787a1.84,1.84,0,0,1,0,3.67l-5,.12,4.21,4.47a1.88,1.88,0,0,1,0,2.44,1.7,1.7,0,0,1-2.61,0l-7.41-7.31a1.93,1.93,0,0,1,.2-2.64l7.21-7.51A2.16,2.16,0,0,1,784.89,484.15Z" transform="translate(9 -25.68)"/><path class="cls-3" d="M833.06,502.68a2.09,2.09,0,0,1-1.3-.49,2.38,2.38,0,0,1,0-2.79l3.68-3.95.39-.42h-4.89a2,2,0,0,1,0-3.89l5-.13-4.21-4.72a2.07,2.07,0,0,1,0-2.58,1.63,1.63,0,0,1,2.6,0l7.42,7.73a2.14,2.14,0,0,1-.2,2.8l-7.22,7.95A2.09,2.09,0,0,1,833.06,502.68Z" transform="translate(9 -25.68)"/></g><polygon class="cls-5" points="790.08 423.85 845.9 423.85 863.25 441.19 863.25 509.47 772.74 509.47 772.74 441.19 790.08 423.85"/><path class="cls-7" d="M763.74,251.07V189.63a178.14,178.14,0,1,0,0,283.12v-5.88l17.34-17.35h7.67a178.23,178.23,0,0,0,26-198.45Z" transform="translate(9 -25.68)"/><polygon class="cls-7" points="982.15 205.84 863.25 205.84 863.25 225.4 849.58 225.4 842.74 241.13 842.74 423.85 845.9 423.85 857.23 435.18 995.66 435.18 995.66 241.13 982.15 205.84"/><polygon class="cls-5" points="790.08 139.77 845.9 139.77 863.25 157.12 863.25 225.4 772.74 225.4 772.74 157.12 790.08 139.77"/><g id="Local_Data_Center" data-name="Local Data Center"><polygon id="Box" class="cls-16" points="221.62 421.02 221.62 245.85 248.21 213.99 463.06 213.99 486.46 245.85 486.46 421.02 221.62 421.02"/></g><path class="cls-4" d="M814.73,251.07a177.4,177.4,0,0,1,19,80.12V266.81l6.84-15.74Z" transform="translate(9 -25.68)"/><path class="cls-4" d="M936.07,224.19V204.25l-21.6-16.82V132h-21.1V111.14l-10.22-1.2-9.06-9V99.68H832.91v20H806.75V124c.93,1,1.84,2,2.73,3,4.89,6.84,1.79,11.6-2.73,12.57v25.94H836.9l17.35,17.34v47.9h1.66v.82h27.24V216.27h7v15.24H959.1v-7.32Z" transform="translate(9 -25.68)"/></g><g id="Layer_7" data-name="Layer 7"><line class="cls-9" x1="1496.24" y1="267.35" x2="1583.95" y2="267.35"/><line class="cls-9" x1="1496.24" y1="373.9" x2="1583.95" y2="373.9"/><line class="cls-9" x1="1236.83" y1="322.5" x2="1361.24" y2="267.35"/><line class="cls-9" x1="1236.83" y1="322.5" x2="1361.24" y2="372.9"/><g id="RPHY_and_FIber_Node" data-name="RPHY and FIber Node"><path class="cls-8" d="M1450.88,368.21a31.36,31.36,0,0,1,0,62.72H1388.6a31.36,31.36,0,1,1,0-62.72h62.28m0-5H1388.6a36.36,36.36,0,1,0,0,72.72h62.28a36.36,36.36,0,0,0,0-72.72Z" transform="translate(9 -25.68)"/><path class="cls-3" d="M1451.8,392.05l-.06,1.11c-.12,3.51,0,11.47,0,16.69a66.18,66.18,0,0,1,5.07-11.35l2-3,.89,1.35a4.38,4.38,0,0,0,3.12,1.31l.36-.07-1,1.22c-3.09,4.15-6.72,11.78-7.65,15.91-1.07,4.72-.72,10.8-.55,15.95h-8.83c0-4.39.68-9.32-1.12-14.72a84.63,84.63,0,0,0-8.67-16.76l-1-1.31,1.38-.28a4.17,4.17,0,0,0,2.19-2.22l0-.23,2.18,3.19a55.88,55.88,0,0,1,5.94,12c.18-4.24.13-14.68-.15-18.3l0-.42.88.59a5.18,5.18,0,0,0,4,0Z" transform="translate(9 -25.68)"/><path class="cls-8" d="M1426.79,392.05c0-2.08,2-3.76,4.39-3.76s4.39,1.68,4.39,3.76-2,3.76-4.39,3.76S1426.79,394.13,1426.79,392.05Z" transform="translate(9 -25.68)"/><path class="cls-8" d="M1443.09,384.53a5,5,0,1,1,5,5A5,5,0,0,1,1443.09,384.53Z" transform="translate(9 -25.68)"/><path class="cls-8" d="M1460.64,391.42a4.39,4.39,0,1,1,4.39,4.39A4.4,4.4,0,0,1,1460.64,391.42Z" transform="translate(9 -25.68)"/><g id="R_PHY_Node_Icon" data-name="R PHY Node Icon"><path class="cls-3" d="M1390,372.41a27.16,27.16,0,1,1-27.16,27.16A27.16,27.16,0,0,1,1390,372.41Zm0,3a24.38,24.38,0,0,0-4.87.49l-1,.31v10.59h-5.4l10.79,10.79,10.8-10.79h-5.4V375.92h-.06A24.2,24.2,0,0,0,1390,375.42ZM1376.91,389v5.39h-10.49l-.11.34a24.45,24.45,0,0,0,0,9.74l.23.71h10.37v5.4l10.79-10.79Zm25.19,0-10.8,10.79,10.8,10.79v-5.4h11.32l.22-.71a24.45,24.45,0,0,0,0-9.74l-.1-.34H1402.1Zm-12.6,12.95-10.79,10.79h5.4v10.22l1,.31a24.4,24.4,0,0,0,9.73,0l.06,0V412.71h5.4Z" transform="translate(9 -25.68)"/></g></g><g id="RPHY_and_FIber_Node-2" data-name="RPHY and FIber Node"><path class="cls-8" d="M1450.88,261.69a31.36,31.36,0,0,1,0,62.72H1388.6a31.36,31.36,0,1,1,0-62.72h62.28m0-5H1388.6a36.36,36.36,0,1,0,0,72.72h62.28a36.36,36.36,0,0,0,0-72.72Z" transform="translate(9 -25.68)"/><path class="cls-3" d="M1451.8,285.53l-.06,1.11c-.12,3.51,0,11.47,0,16.69a66.18,66.18,0,0,1,5.07-11.35l2-3,.89,1.35a4.38,4.38,0,0,0,3.12,1.31l.36-.07-1,1.22c-3.09,4.15-6.72,11.78-7.65,15.91-1.07,4.72-.72,10.8-.55,16h-8.83c0-4.39.68-9.32-1.12-14.72a84.63,84.63,0,0,0-8.67-16.76l-1-1.31,1.38-.28a4.17,4.17,0,0,0,2.19-2.22l0-.23,2.18,3.19a55.88,55.88,0,0,1,5.94,12c.18-4.24.13-14.68-.15-18.3l0-.42.88.59a5.18,5.18,0,0,0,4,0Z" transform="translate(9 -25.68)"/><path class="cls-8" d="M1426.79,285.53c0-2.08,2-3.76,4.39-3.76s4.39,1.68,4.39,3.76-2,3.76-4.39,3.76S1426.79,287.61,1426.79,285.53Z" transform="translate(9 -25.68)"/><path class="cls-8" d="M1443.09,278a5,5,0,1,1,5,5A5,5,0,0,1,1443.09,278Z" transform="translate(9 -25.68)"/><path class="cls-8" d="M1460.64,284.9a4.39,4.39,0,1,1,4.39,4.39A4.4,4.4,0,0,1,1460.64,284.9Z" transform="translate(9 -25.68)"/><g id="R_PHY_Node_Icon-2" data-name="R PHY Node Icon"><path class="cls-3" d="M1390,265.89a27.16,27.16,0,1,1-27.16,27.16A27.16,27.16,0,0,1,1390,265.89Zm0,3a24.38,24.38,0,0,0-4.87.5l-1,.31v10.59h-5.4l10.79,10.79,10.8-10.79h-5.4V269.4h-.06A24.2,24.2,0,0,0,1390,268.89Zm-13.07,13.56v5.39h-10.49l-.11.34a24.45,24.45,0,0,0,0,9.74l.23.71h10.37V304l10.79-10.79Zm25.19,0-10.8,10.79L1402.1,304v-5.4h11.32l.22-.71a24.45,24.45,0,0,0,0-9.74l-.1-.34H1402.1Zm-12.6,12.95-10.79,10.79h5.4v10.22l1,.31a24.4,24.4,0,0,0,9.73,0l.06,0V306.19h5.4Z" transform="translate(9 -25.68)"/></g></g></g><g id="Expanded_Text" data-name="Expanded Text"><path class="cls-8" d="M1358,456.45l-3-4.65h-2.91v4.65h-1.73V444.21h4c3.11,0,4.85,1.38,4.85,3.85a3.46,3.46,0,0,1-2.47,3.38l3.3,5Zm-5.87-10.83v4.76h2.32c1.9,0,3-.9,3-2.32,0-1.58-1-2.44-3-2.44Z" transform="translate(9 -25.68)"/><path class="cls-8" d="M1368.74,453.9a3.85,3.85,0,0,1-4,2.81c-2.52,0-4.34-1.57-4.34-4.68s1.81-4.67,4.25-4.67,4.15,1.46,4.15,5h-6.73c.14,2,1.24,2.94,2.72,2.94a2.15,2.15,0,0,0,2.14-1.43Zm-6.56-2.8h5a2.32,2.32,0,0,0-2.45-2.43A2.51,2.51,0,0,0,1362.18,451.1Z" transform="translate(9 -25.68)"/><path class="cls-8" d="M1370.63,456.45v-8.84H1372l.17,1a3,3,0,0,1,2.6-1.29,2.77,2.77,0,0,1,2.6,1.39,3.2,3.2,0,0,1,2.87-1.39c1.81,0,3,1.07,3,3.18v5.91h-1.64v-5.79c0-1.35-.57-1.91-1.71-1.91a2.19,2.19,0,0,0-2.13,2.31v5.39h-1.63v-5.79c0-1.36-.59-1.91-1.72-1.91a2.18,2.18,0,0,0-2.12,2.26v5.44Z" transform="translate(9 -25.68)"/><path class="cls-8" d="M1389.19,447.36c2.42,0,4.35,1.49,4.35,4.67s-1.87,4.68-4.37,4.68-4.35-1.62-4.35-4.68S1386.79,447.36,1389.19,447.36Zm0,8c1.56,0,2.63-1.15,2.63-3.35s-1.14-3.35-2.65-3.35-2.67,1.14-2.67,3.35S1387.68,455.38,1389.21,455.38Z" transform="translate(9 -25.68)"/><path class="cls-8" d="M1399.19,456.54a4.41,4.41,0,0,1-1.21.17,2.21,2.21,0,0,1-2.36-2.45V449h-1.31v-1.4h1.31l.1-2.12h1.53v2.12h1.9V449h-1.9v5.28c0,.67.32,1,.93,1a3.76,3.76,0,0,0,1-.14Z" transform="translate(9 -25.68)"/><path class="cls-8" d="M1408.25,453.9a3.85,3.85,0,0,1-4,2.81c-2.52,0-4.34-1.57-4.34-4.68s1.8-4.67,4.25-4.67,4.15,1.46,4.15,5h-6.73c.13,2,1.24,2.94,2.72,2.94a2.16,2.16,0,0,0,2.14-1.43Zm-6.56-2.8h5a2.32,2.32,0,0,0-2.45-2.43A2.51,2.51,0,0,0,1401.69,451.1Z" transform="translate(9 -25.68)"/><path class="cls-8" d="M1419.13,444.21c3.07,0,4.79,1.4,4.79,4s-1.65,3.89-4.86,3.89h-2.18v4.37h-1.73V444.21Zm-2.25,1.41v5.05h2.21c2.16,0,3-.88,3-2.48s-1-2.57-3-2.57Z" transform="translate(9 -25.68)"/><path class="cls-8" d="M1435.17,444.21v12.24h-1.75V451h-6v5.45h-1.73V444.21h1.73v5.33h6v-5.33Z" transform="translate(9 -25.68)"/><path class="cls-8" d="M1440.77,456.45v-4.86l-4.49-7.38h1.9l3.45,5.89,3.57-5.89H1447l-4.49,7.38v4.86Z" transform="translate(9 -25.68)"/><path class="cls-8" d="M1462.68,444.21v12.24h-2.19l-5.9-10.25v10.25H1453V444.21h2.29l5.83,10.17V444.21Z" transform="translate(9 -25.68)"/><path class="cls-8" d="M1468.83,447.36c2.42,0,4.36,1.49,4.36,4.67s-1.87,4.68-4.37,4.68-4.36-1.62-4.36-4.68S1466.44,447.36,1468.83,447.36Zm0,8c1.56,0,2.64-1.15,2.64-3.35s-1.14-3.35-2.66-3.35-2.66,1.14-2.66,3.35S1467.32,455.38,1468.85,455.38Z" transform="translate(9 -25.68)"/><path class="cls-8" d="M1481.52,456.45l-.29-1.24a3.43,3.43,0,0,1-2.94,1.5c-2.23,0-3.91-1.63-3.91-4.63,0-3.16,1.64-4.72,4-4.72a3.34,3.34,0,0,1,2.84,1.38v-4.53h1.63v12.24Zm-2.88-1.14c1.69,0,2.67-1.32,2.67-3.17,0-2.16-1-3.39-2.67-3.39s-2.56,1.06-2.56,3.37C1476.08,454.24,1477.16,455.31,1478.64,455.31Z" transform="translate(9 -25.68)"/><path class="cls-8" d="M1492.85,453.9a3.84,3.84,0,0,1-4,2.81c-2.51,0-4.33-1.57-4.33-4.68s1.8-4.67,4.25-4.67,4.15,1.46,4.15,5h-6.74c.14,2,1.24,2.94,2.72,2.94a2.16,2.16,0,0,0,2.15-1.43Zm-6.56-2.8h5a2.32,2.32,0,0,0-2.45-2.43A2.52,2.52,0,0,0,1486.29,451.1Z" transform="translate(9 -25.68)"/><path class="cls-8" d="M568.52,329.36l-6.1-15.52v15.52h-2.73V309.55h3.91l6.3,16.51,5.94-16.51h3.69v19.81h-2.64V314l-5.73,15.38Z" transform="translate(9 -25.68)"/><path class="cls-8" d="M596.12,325.23c-.71,2.62-3,4.54-6.41,4.54-4.07,0-7-2.53-7-7.56s2.91-7.57,6.88-7.57,6.71,2.37,6.71,8.14h-10.9c.22,3.31,2,4.76,4.4,4.76a3.49,3.49,0,0,0,3.47-2.31Zm-10.62-4.54h8.09c-.19-2.67-1.76-3.93-4-3.93S585.92,318.05,585.5,320.69Z" transform="translate(9 -25.68)"/><path class="cls-8" d="M605.84,329.5a7.27,7.27,0,0,1-2,.27c-2.53,0-3.82-1.59-3.82-4v-8.5h-2.12v-2.26h2.12l.17-3.44h2.47v3.44h3.08v2.26H602.7v8.56c0,1.07.52,1.59,1.51,1.59a6.12,6.12,0,0,0,1.63-.22Z" transform="translate(9 -25.68)"/><path class="cls-8" d="M608.32,329.36V315.05h2.17l.36,2.12a3.93,3.93,0,0,1,3.63-2.53,6.64,6.64,0,0,1,1.57.19v2.64a6.74,6.74,0,0,0-1.68-.24c-1.82,0-3.41,1.34-3.41,4.95v7.18Z" transform="translate(9 -25.68)"/><path class="cls-8" d="M624.08,314.64c3.91,0,7,2.42,7,7.57s-3,7.56-7.07,7.56-7-2.61-7-7.56C617,317.06,620.2,314.64,624.08,314.64Zm0,13c2.53,0,4.26-1.87,4.26-5.42s-1.84-5.42-4.29-5.42-4.32,1.84-4.32,5.42S621.63,327.63,624.11,327.63Z" transform="translate(9 -25.68)"/><path class="cls-8" d="M645.85,320.45H637.1V327h9.54v2.37H634.29V309.55h12.35v2.37H637.1v6.21h8.75Z" transform="translate(9 -25.68)"/><path class="cls-8" d="M673.47,320.31a12.64,12.64,0,0,1-1.87,5.2l2.7,2.53-1.95,1.73L670,327.49a8.32,8.32,0,0,1-5.83,2.28c-4,0-6.77-2-6.77-5.14,0-2.84,1.54-4.24,4-5.61-1.93-2-2.54-3-2.54-4.63a5,5,0,0,1,5.26-4.7c3.14,0,5.17,2.17,5.17,4.26,0,2.7-1.7,4.35-4,5.53l4.59,4.35a11.87,11.87,0,0,0,1.21-3.82Zm-5.14,5.56L663,320.61c-1.81,1-2.83,2.09-2.83,3.82s1.51,3.06,4.21,3.06A5.57,5.57,0,0,0,668.33,325.87Zm-4.76-8c2.28-1.21,3.25-2.23,3.25-3.85a2.37,2.37,0,0,0-2.65-2.21,2.55,2.55,0,0,0-2.75,2.54C661.42,315.58,661.92,316.26,663.57,317.89Z" transform="translate(9 -25.68)"/><path class="cls-8" d="M709.74,309.55l-5.23,19.81h-3.24l-4.49-16.78-4.62,16.78h-3.44l-5.2-19.81h2.86L690.59,326l4.54-16.48h3.49l4.3,16.43,4.23-16.43Z" transform="translate(9 -25.68)"/><path class="cls-8" d="M718.38,309.55c5.84,0,9.74,3.11,9.74,9.91,0,6.41-4.12,9.9-9.93,9.9H712V309.55Zm-3.63,2.23v15.27h3.72c4.34,0,6.82-2.62,6.82-7.59,0-5.2-2.64-7.68-6.88-7.68Z" transform="translate(9 -25.68)"/><path class="cls-8" d="M740.26,329.36l-6.11-15.52v15.52h-2.72V309.55h3.9l6.3,16.51,6-16.51h3.68v19.81h-2.64V314l-5.72,15.38Z" transform="translate(9 -25.68)"/><path class="cls-8" d="M601.05,342.57c4.57,0,6.9,2,6.9,5.26a4.31,4.31,0,0,1-3.19,4.07,4.82,4.82,0,0,1,3.8,4.9c0,3.49-2.59,5.58-7.57,5.58h-7.07V342.57Zm-4.32,2.12v6.25h4.7c2.43,0,3.69-1.27,3.69-3.11s-1.4-3.14-3.85-3.14Zm0,8.39v7h4.68c2.86,0,4.23-1.19,4.23-3.3,0-2.42-1.4-3.72-4.12-3.72Z" transform="translate(9 -25.68)"/><path class="cls-8" d="M611.18,352.06c.27-2.64,2.56-4.4,6.13-4.4,3.74,0,5.84,2,5.84,4.95v9.77H621l-.33-1.95a5.58,5.58,0,0,1-4.79,2.36c-3.13,0-5-1.76-5-4.1,0-2.61,1.57-4.09,5.42-4.76l4.18-.71v-.72c0-1.76-1.18-2.75-3.3-2.75s-3,.88-3.22,2.31Zm9.32,5.07v-1.85l-3.55.64c-2.55.44-3.24,1.23-3.24,2.5s1,2.14,2.78,2.14C618.5,360.56,620.5,359.08,620.5,357.13Z" transform="translate(9 -25.68)"/><path class="cls-8" d="M639.08,357.79c-.39,2.77-2.73,5-6.28,5-3.79,0-6.76-2.61-6.76-7.45s2.69-7.68,6.74-7.68c3.24,0,5.72,1.74,6.19,4.65h-2.92a3,3,0,0,0-3.22-2.42c-2.34,0-4,1.73-4,5.53,0,3.49,1.79,5.14,4,5.14a3.14,3.14,0,0,0,3.33-2.77Z" transform="translate(9 -25.68)"/><path class="cls-8" d="M642.11,362.38V342.57h2.64v11.06l5.61-5.56h3.47l-6.44,6.22,7.23,8.09H651.1l-6.35-7.21v7.21Z" transform="translate(9 -25.68)"/><path class="cls-8" d="M656.42,362.38V342.57h2.64v7.49a5.62,5.62,0,0,1,4.78-2.4c3.77,0,6.3,2.7,6.3,7.46,0,4.95-2.72,7.67-6.49,7.67a5.38,5.38,0,0,1-4.65-2.31l-.41,1.9Zm6.82-12.46c-2.37,0-4.32,1.73-4.32,5.14s1.73,5.48,4.32,5.48,4.15-1.71,4.15-5.48C667.39,351.54,665.6,349.92,663.24,349.92Z" transform="translate(9 -25.68)"/><path class="cls-8" d="M679.42,347.66c3.91,0,7,2.42,7,7.57,0,5-3,7.56-7.07,7.56s-7-2.61-7-7.56C672.35,350.08,675.54,347.66,679.42,347.66Zm0,13c2.53,0,4.26-1.87,4.26-5.42s-1.84-5.42-4.29-5.42-4.32,1.84-4.32,5.42S677,360.65,679.45,360.65Z" transform="translate(9 -25.68)"/><path class="cls-8" d="M689.49,362.38V348.07h2.18l.3,1.82a5.26,5.26,0,0,1,4.34-2.23c3.11,0,5.07,1.9,5.07,5.39v9.33h-2.64v-9.3c0-2.14-1.1-3.16-3.06-3.16a3.47,3.47,0,0,0-3.55,3.63v8.83Z" transform="translate(9 -25.68)"/><path class="cls-8" d="M717.69,358.25c-.71,2.62-3,4.54-6.41,4.54-4.07,0-7-2.53-7-7.56s2.91-7.57,6.88-7.57,6.71,2.37,6.71,8.15H707c.22,3.3,2,4.75,4.41,4.75a3.48,3.48,0,0,0,3.46-2.31Zm-10.62-4.54h8.09c-.19-2.66-1.76-3.93-4-3.93S707.49,351.07,707.07,353.71Z" transform="translate(9 -25.68)"/><path class="cls-8" d="M236.23,455.47v17.3h9.33v2.51H233.4V455.47Z" transform="translate(9 -25.68)"/><path class="cls-8" d="M254.42,460.56c3.9,0,7,2.42,7,7.56s-3,7.57-7.07,7.57-7-2.61-7-7.57C247.35,463,250.54,460.56,254.42,460.56Zm0,13c2.53,0,4.26-1.87,4.26-5.42s-1.84-5.42-4.29-5.42-4.32,1.85-4.32,5.42S252,473.54,254.45,473.54Z" transform="translate(9 -25.68)"/><path class="cls-8" d="M276.71,470.68c-.39,2.78-2.73,5-6.28,5-3.79,0-6.76-2.61-6.76-7.46s2.69-7.67,6.74-7.67c3.24,0,5.72,1.73,6.19,4.65h-2.92a3,3,0,0,0-3.22-2.42c-2.34,0-4,1.73-4,5.53,0,3.49,1.79,5.14,4,5.14a3.14,3.14,0,0,0,3.33-2.78Z" transform="translate(9 -25.68)"/><path class="cls-8" d="M279.19,465c.27-2.64,2.55-4.4,6.13-4.4,3.74,0,5.83,2,5.83,4.95v9.77H289l-.33-2a5.61,5.61,0,0,1-4.79,2.37c-3.13,0-4.95-1.76-4.95-4.1,0-2.61,1.57-4.1,5.42-4.76l4.18-.71v-.72c0-1.76-1.18-2.75-3.3-2.75s-3,.88-3.22,2.31Zm9.32,5.06v-1.84l-3.55.63c-2.56.44-3.24,1.24-3.24,2.51s1,2.14,2.78,2.14C286.5,473.46,288.51,472,288.51,470Z" transform="translate(9 -25.68)"/><path class="cls-8" d="M297.51,475.28h-2.64V455.47h2.64Z" transform="translate(9 -25.68)"/><path class="cls-8" d="M316.19,455.47c5.84,0,9.74,3.11,9.74,9.9,0,6.41-4.12,9.91-9.93,9.91h-6.24V455.47Zm-3.63,2.23V473h3.72c4.34,0,6.82-2.62,6.82-7.6,0-5.2-2.64-7.67-6.88-7.67Z" transform="translate(9 -25.68)"/><path class="cls-8" d="M328.55,465c.28-2.64,2.56-4.4,6.14-4.4,3.74,0,5.83,2,5.83,4.95v9.77h-2.17l-.34-2a5.58,5.58,0,0,1-4.78,2.37c-3.14,0-5-1.76-5-4.1,0-2.61,1.56-4.1,5.42-4.76l4.18-.71v-.72c0-1.76-1.19-2.75-3.3-2.75s-3,.88-3.22,2.31Zm9.33,5.06v-1.84l-3.55.63c-2.56.44-3.25,1.24-3.25,2.51s1,2.14,2.78,2.14C335.87,473.46,337.88,472,337.88,470Z" transform="translate(9 -25.68)"/><path class="cls-8" d="M350.62,475.42a7.22,7.22,0,0,1-2,.27c-2.53,0-3.82-1.6-3.82-4v-8.5h-2.12V461h2.12l.17-3.44h2.47V461h3.08v2.26h-3.08v8.55c0,1.08.52,1.6,1.52,1.6a6.11,6.11,0,0,0,1.62-.22Z" transform="translate(9 -25.68)"/><path class="cls-8" d="M352.55,465c.27-2.64,2.55-4.4,6.13-4.4,3.74,0,5.83,2,5.83,4.95v9.77h-2.17l-.33-2a5.61,5.61,0,0,1-4.79,2.37c-3.13,0-5-1.76-5-4.1,0-2.61,1.57-4.1,5.42-4.76l4.18-.71v-.72c0-1.76-1.18-2.75-3.3-2.75s-3,.88-3.22,2.31Zm9.32,5.06v-1.84l-3.55.63c-2.56.44-3.24,1.24-3.24,2.51s1,2.14,2.78,2.14C359.86,473.46,361.87,472,361.87,470Z" transform="translate(9 -25.68)"/><path class="cls-8" d="M390.68,468.29h2.83c-.22,3.85-3.6,7.4-8.63,7.4-5.53,0-9.08-3.71-9.08-10.32s3.85-10.31,9.3-10.31c4.76,0,8.11,3.13,8.39,6.76h-2.84c-.35-2.69-2.5-4.43-5.55-4.43-3.8,0-6.44,2.62-6.44,8,0,5.12,2.56,7.95,6.27,7.95A5.44,5.44,0,0,0,390.68,468.29Z" transform="translate(9 -25.68)"/><path class="cls-8" d="M409.15,471.15a6.24,6.24,0,0,1-6.42,4.54c-4.07,0-7-2.53-7-7.57s2.92-7.56,6.88-7.56,6.71,2.36,6.71,8.14H398.42c.22,3.3,2,4.76,4.4,4.76a3.48,3.48,0,0,0,3.46-2.31Zm-10.62-4.54h8.08c-.19-2.67-1.76-3.93-4-3.93S398.94,464,398.53,466.61Z" transform="translate(9 -25.68)"/><path class="cls-8" d="M412.48,475.28V461h2.17l.3,1.82a5.28,5.28,0,0,1,4.35-2.23c3.11,0,5.06,1.9,5.06,5.39v9.33h-2.64V466c0-2.15-1.1-3.17-3.05-3.17a3.48,3.48,0,0,0-3.55,3.64v8.83Z" transform="translate(9 -25.68)"/><path class="cls-8" d="M434.46,475.42a7.15,7.15,0,0,1-1.95.27c-2.53,0-3.82-1.6-3.82-4v-8.5h-2.12V461h2.12l.16-3.44h2.48V461h3.08v2.26h-3.08v8.55c0,1.08.52,1.6,1.51,1.6a6.06,6.06,0,0,0,1.62-.22Z" transform="translate(9 -25.68)"/><path class="cls-8" d="M449.4,471.15a6.22,6.22,0,0,1-6.41,4.54c-4.07,0-7-2.53-7-7.57s2.91-7.56,6.88-7.56,6.71,2.36,6.71,8.14h-10.9c.22,3.3,2,4.76,4.41,4.76a3.48,3.48,0,0,0,3.46-2.31Zm-10.62-4.54h8.09c-.19-2.67-1.76-3.93-4-3.93S439.2,464,438.78,466.61Z" transform="translate(9 -25.68)"/><path class="cls-8" d="M452.74,475.28V461h2.17l.36,2.12a3.93,3.93,0,0,1,3.63-2.53,6.64,6.64,0,0,1,1.57.19v2.64a6.3,6.3,0,0,0-1.68-.25c-1.82,0-3.41,1.35-3.41,5v7.18Z" transform="translate(9 -25.68)"/><path class="cls-8" d="M895.45,444a3.66,3.66,0,0,1-3.87,3.09c-2.35,0-4.18-1.61-4.18-4.61s1.66-4.74,4.16-4.74c2,0,3.54,1.07,3.83,2.87h-1.81a1.86,1.86,0,0,0-2-1.49c-1.44,0-2.46,1.07-2.46,3.41,0,2.16,1.1,3.18,2.48,3.18a1.93,1.93,0,0,0,2.06-1.71Z" transform="translate(9 -25.68)"/><path class="cls-8" d="M901.64,434.59c2.82,0,4.27,1.22,4.27,3.24a2.67,2.67,0,0,1-2,2.52,3,3,0,0,1,2.34,3c0,2.15-1.6,3.45-4.67,3.45h-4.37V434.59ZM899,435.9v3.85h2.91c1.5,0,2.28-.78,2.28-1.92s-.87-1.93-2.38-1.93Zm0,5.18v4.33h2.89c1.77,0,2.62-.73,2.62-2,0-1.5-.87-2.3-2.55-2.3Z" transform="translate(9 -25.68)"/><path class="cls-8" d="M915.75,446.83l-3-4.66h-2.9v4.66h-1.74V434.59h4c3.11,0,4.85,1.37,4.85,3.84a3.45,3.45,0,0,1-2.47,3.38l3.3,5ZM909.89,436v4.76h2.31c1.9,0,3-.9,3-2.33s-1-2.43-3-2.43Z" transform="translate(9 -25.68)"/><path class="cls-8" d="M919.15,442.07v-1.45h6.12v1.45Z" transform="translate(9 -25.68)"/><path class="cls-8" d="M933.67,440.48a3.52,3.52,0,0,1,2.4,3.13c0,2-1.74,3.47-4.34,3.47s-4.33-1.41-4.33-3.35a3.28,3.28,0,0,1,2.33-3.14,3,3,0,0,1-1.89-2.74c0-2.19,1.85-3.18,3.89-3.18s3.89.9,3.89,3.06A3.24,3.24,0,0,1,933.67,440.48Zm-2.3.62a2.75,2.75,0,0,0-2.24,2.51c0,1.16.83,2.13,2.6,2.13s2.6-.89,2.6-2.13C934.33,441.73,932.7,441.39,931.37,441.1Zm.7-1a2.61,2.61,0,0,0,1.92-2.3c0-1.12-1-1.81-2.26-1.81s-2.29.59-2.29,1.81C929.44,439.57,931.05,439.92,932.07,440.06Z" transform="translate(9 -25.68)"/><path class="cls-8" d="M1332,574.75h-8.37v8.37h-2.8V563.31h12.13v2.36h-9.33v6.74H1332Z" transform="translate(9 -25.68)"/><path class="cls-8" d="M1335.92,566.42v-3.11h3v3.11Zm.17,16.7V568.81h2.64v14.31Z" transform="translate(9 -25.68)"/><path class="cls-8" d="M1342.58,583.12V563.31h2.64v7.48a5.63,5.63,0,0,1,4.79-2.39c3.77,0,6.3,2.69,6.3,7.45,0,4.95-2.72,7.68-6.49,7.68a5.37,5.37,0,0,1-4.65-2.31l-.41,1.9Zm6.83-12.47c-2.37,0-4.32,1.74-4.32,5.15s1.73,5.47,4.32,5.47,4.15-1.7,4.15-5.47C1353.56,572.28,1351.77,570.65,1349.41,570.65Z" transform="translate(9 -25.68)"/><path class="cls-8" d="M1371.94,579a6.23,6.23,0,0,1-6.41,4.54c-4.07,0-7-2.53-7-7.57s2.92-7.56,6.88-7.56,6.72,2.36,6.72,8.14h-10.9c.22,3.3,2,4.76,4.4,4.76a3.49,3.49,0,0,0,3.47-2.31Zm-10.62-4.54h8.09c-.19-2.67-1.76-3.93-4-3.93S1361.73,571.81,1361.32,574.45Z" transform="translate(9 -25.68)"/><path class="cls-8" d="M1375.27,583.12V568.81h2.18l.35,2.12a4,4,0,0,1,3.64-2.53,6.61,6.61,0,0,1,1.56.19v2.64a6.16,6.16,0,0,0-1.67-.25c-1.82,0-3.42,1.35-3.42,5v7.18Z" transform="translate(9 -25.68)"/><path class="cls-8" d="M1393.32,583.12V568.81h2.18l.3,1.81a5.28,5.28,0,0,1,4.35-2.22c3.1,0,5.06,1.89,5.06,5.39v9.33h-2.64v-9.3c0-2.15-1.1-3.17-3.06-3.17a3.49,3.49,0,0,0-3.55,3.64v8.83Z" transform="translate(9 -25.68)"/><path class="cls-8" d="M1415.17,568.4c3.91,0,7,2.42,7,7.56s-3,7.57-7.07,7.57-7-2.62-7-7.57C1408.1,570.82,1411.29,568.4,1415.17,568.4Zm0,13c2.53,0,4.26-1.87,4.26-5.42s-1.84-5.42-4.29-5.42-4.32,1.85-4.32,5.42S1412.72,581.38,1415.2,581.38Z" transform="translate(9 -25.68)"/><path class="cls-8" d="M1436,583.12l-.47-2a5.53,5.53,0,0,1-4.75,2.42c-3.61,0-6.33-2.64-6.33-7.49,0-5.11,2.67-7.64,6.49-7.64a5.38,5.38,0,0,1,4.59,2.22v-7.31h2.65v19.81Zm-4.65-1.85c2.73,0,4.32-2.14,4.32-5.14,0-3.5-1.68-5.48-4.32-5.48s-4.15,1.71-4.15,5.45C1427.17,579.54,1428.93,581.27,1431.32,581.27Z" transform="translate(9 -25.68)"/><path class="cls-8" d="M1454.6,579a6.22,6.22,0,0,1-6.41,4.54c-4.07,0-7-2.53-7-7.57s2.91-7.56,6.87-7.56,6.72,2.36,6.72,8.14h-10.9c.22,3.3,2,4.76,4.4,4.76a3.49,3.49,0,0,0,3.47-2.31ZM1444,574.45h8.09c-.19-2.67-1.76-3.93-4-3.93S1444.39,571.81,1444,574.45Z" transform="translate(9 -25.68)"/><path class="cls-8" d="M1543.77,561.78v19.81h-2.84v-8.83h-9.68v8.83h-2.81V561.78h2.81v8.61h9.68v-8.61Z" transform="translate(9 -25.68)"/><path class="cls-8" d="M1554,566.87c3.9,0,7,2.42,7,7.57,0,5-3,7.56-7.07,7.56s-7-2.61-7-7.56C1546.94,569.29,1550.13,566.87,1554,566.87Zm0,13c2.54,0,4.27-1.88,4.27-5.42S1556.46,569,1554,569s-4.32,1.84-4.32,5.42S1551.56,579.86,1554,579.86Z" transform="translate(9 -25.68)"/><path class="cls-8" d="M1564.08,581.59V567.28h2.17l.28,1.68a4.9,4.9,0,0,1,4.21-2.09,4.5,4.5,0,0,1,4.21,2.26,5.17,5.17,0,0,1,4.65-2.26c2.91,0,4.84,1.73,4.84,5.14v9.58h-2.64v-9.38c0-2.18-.94-3.08-2.78-3.08a3.52,3.52,0,0,0-3.44,3.74v8.72h-2.64v-9.38c0-2.2-1-3.08-2.78-3.08a3.52,3.52,0,0,0-3.44,3.66v8.8Z" transform="translate(9 -25.68)"/><path class="cls-8" d="M1600.76,577.46a6.22,6.22,0,0,1-6.41,4.54c-4.07,0-7-2.53-7-7.56s2.92-7.57,6.88-7.57,6.71,2.37,6.71,8.14H1590c.22,3.31,2,4.76,4.4,4.76a3.51,3.51,0,0,0,3.47-2.31Zm-10.62-4.54h8.09c-.2-2.67-1.76-3.93-4-3.93S1590.55,570.28,1590.14,572.92Z" transform="translate(9 -25.68)"/><path class="cls-8" d="M1609.84,561.37h2.5l-6.85,22.69H1603Z" transform="translate(9 -25.68)"/><path class="cls-8" d="M1614.41,571.68c0-6.65,4.21-10.31,9.44-10.31s9.38,3.49,9.38,10.31c0,6.55-4.07,10.32-9.41,10.32C1618.32,582,1614.41,578.23,1614.41,571.68Zm16,0c0-5.22-2.67-8-6.55-8s-6.55,2.81-6.55,8,2.67,8,6.55,8S1630.37,576.91,1630.37,571.68Z" transform="translate(9 -25.68)"/><path class="cls-8" d="M1652.46,581.59V569.54h-4.79v12.05H1645V569.54h-5.25v12.05h-2.64V569.54H1635v-2.26h2.12V566.1c0-2.34,1.32-4.46,4.57-4.46a13.24,13.24,0,0,1,4.45.88,4.78,4.78,0,0,1,3.44-1.15,14.32,14.32,0,0,1,3.41.47v2.28a14.18,14.18,0,0,0-3-.47c-1.59,0-2.34.5-2.34,1.73v1.9h7.43v14.31Zm-7.29-17.28a9.17,9.17,0,0,0-3.11-.52c-1.59,0-2.28.82-2.28,2.14v1.35H1645v-1.73A4.54,4.54,0,0,1,1645.17,564.31Z" transform="translate(9 -25.68)"/><path class="cls-8" d="M1671.17,577c-.38,2.78-2.72,5-6.27,5-3.79,0-6.77-2.61-6.77-7.45s2.7-7.68,6.75-7.68c3.24,0,5.72,1.73,6.19,4.65h-2.92a3,3,0,0,0-3.22-2.42c-2.34,0-4,1.73-4,5.53,0,3.49,1.79,5.14,4,5.14a3.14,3.14,0,0,0,3.33-2.78Z" transform="translate(9 -25.68)"/><path class="cls-8" d="M1686.8,577.46c-.71,2.62-3,4.54-6.41,4.54-4.07,0-7-2.53-7-7.56s2.91-7.57,6.88-7.57,6.71,2.37,6.71,8.14h-10.89c.21,3.31,2,4.76,4.4,4.76a3.48,3.48,0,0,0,3.46-2.31Zm-10.62-4.54h8.09c-.19-2.67-1.76-3.93-4-3.93S1676.6,570.28,1676.18,572.92Z" transform="translate(9 -25.68)"/><path class="cls-8" d="M1694.35,575.07c-3.36-.74-4.71-2-4.71-4.13,0-2.45,1.95-4.07,5.56-4.07,3.19,0,5.39,1.57,5.86,4.18h-2.7c-.3-1.32-1.37-2.09-3.19-2.09-2,0-2.86.74-2.86,1.73s.58,1.6,3.33,2.21c3.33.74,5.53,1.67,5.53,4.62,0,2.61-2.17,4.48-6,4.48-3.58,0-5.92-1.76-6.16-4.51h2.69c.31,1.71,1.49,2.42,3.5,2.42s3.27-1,3.27-2.2C1698.5,576,1696.9,575.65,1694.35,575.07Z" transform="translate(9 -25.68)"/><path class="cls-8" d="M902.74,472.3v19.81H899.9v-8.83h-9.68v8.83h-2.81V472.3h2.81v8.62h9.68V472.3Z" transform="translate(9 -25.68)"/><path class="cls-8" d="M909.23,477.81v9.38c0,2.12,1.13,3.08,3,3.08a3.43,3.43,0,0,0,3.53-3.74v-8.72h2.64v14.3h-2.18l-.3-1.65a5.17,5.17,0,0,1-4.29,2.07c-2.94,0-5-1.74-5-5.4v-9.32Z" transform="translate(9 -25.68)"/><path class="cls-8" d="M922.22,492.11V472.3h2.64v7.49a5.63,5.63,0,0,1,4.79-2.4c3.77,0,6.3,2.7,6.3,7.46,0,4.95-2.72,7.68-6.49,7.68a5.38,5.38,0,0,1-4.65-2.32l-.41,1.9ZM929,479.65c-2.36,0-4.31,1.73-4.31,5.14s1.73,5.48,4.31,5.48,4.16-1.71,4.16-5.48C933.2,481.27,931.41,479.65,929,479.65Z" transform="translate(9 -25.68)"/><g id="Digital_Fiber" data-name="Digital Fiber"><g id="Digital_Fiber-2" data-name="Digital Fiber"><path class="cls-8" d="M1076.67,325.28c5.83,0,9.74,3.11,9.74,9.9,0,6.41-4.13,9.91-9.93,9.91h-6.25V325.28Zm-3.63,2.23v15.26h3.71c4.35,0,6.83-2.61,6.83-7.59,0-5.2-2.65-7.67-6.88-7.67Z" transform="translate(9 -25.68)"/><path class="cls-8" d="M1089.41,328.39v-3.11h3v3.11Zm.17,16.7V330.78h2.64v14.31Z" transform="translate(9 -25.68)"/><path class="cls-8" d="M1098.74,346.05c.25,1.43,1.46,2.31,3.55,2.31,2.67,0,4-1.35,4-3.71V342.8a6,6,0,0,1-4.76,1.87c-3.35,0-6.32-2.5-6.32-7.07s2.61-7.23,6.49-7.23a5.31,5.31,0,0,1,4.65,2.31l.41-1.9H1109v14c0,3.25-2.36,5.67-6.6,5.67-3.82,0-6-1.73-6.46-4.4Zm3.41-3.63c2.73,0,4.32-1.79,4.32-4.68,0-3.36-1.76-5.12-4.32-5.12s-4.15,1.63-4.15,5C1098,340.68,1099.87,342.42,1102.15,342.42Z" transform="translate(9 -25.68)"/><path class="cls-8" d="M1112.66,328.39v-3.11h3v3.11Zm.17,16.7V330.78h2.64v14.31Z" transform="translate(9 -25.68)"/><path class="cls-8" d="M1125.71,345.22a6.92,6.92,0,0,1-2,.28c-2.53,0-3.82-1.6-3.82-4V333h-2.12v-2.26h2.12l.16-3.44h2.48v3.44h3.08V333h-3.08v8.55c0,1.08.52,1.6,1.51,1.6a6.12,6.12,0,0,0,1.63-.22Z" transform="translate(9 -25.68)"/><path class="cls-8" d="M1127.63,334.77c.28-2.64,2.56-4.4,6.14-4.4,3.74,0,5.83,2,5.83,4.95v9.77h-2.17l-.33-2a5.61,5.61,0,0,1-4.79,2.37c-3.14,0-5-1.76-5-4.1,0-2.61,1.57-4.1,5.42-4.76l4.18-.72v-.71c0-1.76-1.18-2.75-3.3-2.75s-3,.88-3.22,2.31Zm9.33,5.06V338l-3.55.63c-2.56.44-3.24,1.24-3.24,2.5s1,2.15,2.77,2.15C1135,343.27,1137,341.78,1137,339.83Z" transform="translate(9 -25.68)"/><path class="cls-8" d="M1146,345.09h-2.64V325.28H1146Z" transform="translate(9 -25.68)"/><path class="cls-8" d="M1089.05,369.74h-8.36v8.37h-2.81V358.3H1090v2.37h-9.32v6.74h8.36Z" transform="translate(9 -25.68)"/><path class="cls-8" d="M1093,361.41V358.3h3v3.11Zm.16,16.7V363.8h2.64v14.31Z" transform="translate(9 -25.68)"/><path class="cls-8" d="M1099.68,378.11V358.3h2.64v7.48a5.63,5.63,0,0,1,4.78-2.39c3.77,0,6.3,2.69,6.3,7.45,0,5-2.72,7.68-6.49,7.68a5.38,5.38,0,0,1-4.65-2.31l-.41,1.9Zm6.82-12.47c-2.37,0-4.32,1.74-4.32,5.15s1.73,5.47,4.32,5.47,4.15-1.7,4.15-5.47C1110.65,367.27,1108.87,365.64,1106.5,365.64Z" transform="translate(9 -25.68)"/><path class="cls-8" d="M1129,374a6.24,6.24,0,0,1-6.42,4.54c-4.07,0-7-2.53-7-7.56s2.92-7.57,6.88-7.57,6.71,2.36,6.71,8.14h-10.9c.23,3.3,2,4.76,4.41,4.76a3.48,3.48,0,0,0,3.46-2.31Zm-10.62-4.54h8.08c-.19-2.67-1.76-3.93-4-3.93S1118.83,366.8,1118.42,369.44Z" transform="translate(9 -25.68)"/><path class="cls-8" d="M1132.37,378.11V363.8h2.17l.36,2.12a3.94,3.94,0,0,1,3.63-2.53,6.64,6.64,0,0,1,1.57.19v2.64a6.3,6.3,0,0,0-1.68-.25c-1.82,0-3.41,1.35-3.41,5v7.18Z" transform="translate(9 -25.68)"/></g></g><path class="cls-8" d="M775.87,550.53c-2.84-.78-3.72-1.78-3.72-3.47s1.58-3.14,4.39-3.14c2.61,0,4.53,1.24,4.84,3.31H779.6c-.19-1.19-1.23-1.88-3.06-1.88s-2.66.73-2.66,1.64.41,1.42,3.22,2.2c3.4.95,4.37,1.95,4.37,3.84s-1.74,3.64-4.78,3.64c-2.64,0-4.62-1.45-5-3.69h1.78c.2,1.37,1.33,2.26,3.14,2.26,2,0,3.08-1,3.08-2.14S779.17,551.43,775.87,550.53Z" transform="translate(9 -25.68)"/><path class="cls-8" d="M783.25,556.41v-8.84h1.34l.17,1a3,3,0,0,1,2.6-1.29,2.78,2.78,0,0,1,2.61,1.39,3.2,3.2,0,0,1,2.87-1.39c1.8,0,3,1.07,3,3.18v5.91H794.2v-5.8c0-1.34-.58-1.9-1.72-1.9a2.18,2.18,0,0,0-2.12,2.31v5.39h-1.63v-5.8c0-1.36-.6-1.9-1.72-1.9a2.18,2.18,0,0,0-2.13,2.26v5.44Z" transform="translate(9 -25.68)"/><path class="cls-8" d="M797.62,550c.17-1.63,1.58-2.72,3.79-2.72s3.6,1.24,3.6,3.06v6h-1.34l-.21-1.21a3.44,3.44,0,0,1-3,1.47c-1.94,0-3.06-1.09-3.06-2.54,0-1.61,1-2.53,3.35-2.94l2.58-.44v-.44c0-1.09-.73-1.7-2-1.7s-1.87.54-2,1.43Zm5.76,3.12V552l-2.19.39c-1.58.27-2,.76-2,1.54s.61,1.33,1.72,1.33A2.39,2.39,0,0,0,803.38,553.16Z" transform="translate(9 -25.68)"/><path class="cls-8" d="M808.77,556.41h-1.63V544.17h1.63Z" transform="translate(9 -25.68)"/><path class="cls-8" d="M812.61,556.41H811V544.17h1.63Z" transform="translate(9 -25.68)"/><path class="cls-8" d="M829.3,544.17v12.24h-1.75V551h-6v5.45h-1.74V544.17h1.74v5.32h6v-5.32Z" transform="translate(9 -25.68)"/><path class="cls-8" d="M833.14,547.57v5.8a1.67,1.67,0,0,0,1.84,1.9,2.12,2.12,0,0,0,2.18-2.31v-5.39h1.63v8.84h-1.35l-.18-1a3.2,3.2,0,0,1-2.65,1.28c-1.82,0-3.1-1.08-3.1-3.34v-5.76Z" transform="translate(9 -25.68)"/><path class="cls-8" d="M841,556.41V544.17h1.63v4.63a3.48,3.48,0,0,1,3-1.48c2.33,0,3.89,1.66,3.89,4.6s-1.68,4.75-4,4.75a3.32,3.32,0,0,1-2.87-1.43l-.26,1.17Zm4.21-7.7c-1.46,0-2.66,1.07-2.66,3.18s1.07,3.38,2.66,3.38,2.57-1,2.57-3.38C847.78,549.71,846.68,548.71,845.21,548.71Z" transform="translate(9 -25.68)"/><path class="cls-8" d="M748.51,578.29l-3-4.65h-2.9v4.65h-1.74V566.06h4c3.11,0,4.85,1.37,4.85,3.84a3.45,3.45,0,0,1-2.47,3.38l3.3,5Zm-5.86-10.82v4.76H745c1.9,0,3-.9,3-2.33s-1-2.43-3-2.43Z" transform="translate(9 -25.68)"/><path class="cls-8" d="M759.27,575.75a3.84,3.84,0,0,1-4,2.8c-2.51,0-4.33-1.56-4.33-4.67s1.8-4.68,4.25-4.68,4.14,1.46,4.14,5h-6.73c.14,2,1.24,2.94,2.72,2.94a2.15,2.15,0,0,0,2.14-1.42Zm-6.56-2.81h5a2.32,2.32,0,0,0-2.45-2.43A2.52,2.52,0,0,0,752.71,572.94Z" transform="translate(9 -25.68)"/><path class="cls-8" d="M761.16,578.29v-8.83h1.34l.17,1a3,3,0,0,1,2.6-1.29,2.78,2.78,0,0,1,2.6,1.39,3.22,3.22,0,0,1,2.88-1.39c1.8,0,3,1.07,3,3.18v5.91h-1.63V572.5c0-1.34-.58-1.91-1.72-1.91a2.18,2.18,0,0,0-2.12,2.32v5.38h-1.64V572.5c0-1.36-.59-1.91-1.71-1.91a2.19,2.19,0,0,0-2.13,2.27v5.43Z" transform="translate(9 -25.68)"/><path class="cls-8" d="M779.72,569.2c2.42,0,4.35,1.5,4.35,4.68s-1.86,4.67-4.36,4.67-4.36-1.61-4.36-4.67S777.33,569.2,779.72,569.2Zm0,8c1.56,0,2.64-1.15,2.64-3.34s-1.14-3.35-2.66-3.35-2.67,1.14-2.67,3.35S778.21,577.22,779.74,577.22Z" transform="translate(9 -25.68)"/><path class="cls-8" d="M789.72,578.38a4.36,4.36,0,0,1-1.21.17,2.21,2.21,0,0,1-2.36-2.45v-5.25h-1.31v-1.39h1.31l.1-2.13h1.53v2.13h1.9v1.39h-1.9v5.29c0,.66.32,1,.94,1a3.6,3.6,0,0,0,1-.13Z" transform="translate(9 -25.68)"/><path class="cls-8" d="M798.78,575.75a3.85,3.85,0,0,1-4,2.8c-2.52,0-4.34-1.56-4.34-4.67s1.81-4.68,4.25-4.68,4.15,1.46,4.15,5h-6.73c.14,2,1.24,2.94,2.72,2.94a2.15,2.15,0,0,0,2.14-1.42Zm-6.56-2.81h5a2.31,2.31,0,0,0-2.44-2.43A2.51,2.51,0,0,0,792.22,572.94Z" transform="translate(9 -25.68)"/><path class="cls-8" d="M809.66,566.06c3.08,0,4.79,1.39,4.79,4s-1.65,3.9-4.86,3.9h-2.17v4.36h-1.74V566.06Zm-2.24,1.41v5h2.2c2.16,0,3-.89,3-2.49s-1-2.56-3-2.56Z" transform="translate(9 -25.68)"/><path class="cls-8" d="M825.71,566.06v12.23H824v-5.45h-6v5.45h-1.73V566.06H818v5.32h6v-5.32Z" transform="translate(9 -25.68)"/><path class="cls-8" d="M831.3,578.29v-4.86l-4.49-7.37h1.91l3.45,5.88,3.57-5.88h1.76L833,573.43v4.86Z" transform="translate(9 -25.68)"/><path class="cls-8" d="M847,572.41c-2.84-.78-3.73-1.78-3.73-3.46s1.58-3.15,4.39-3.15c2.62,0,4.54,1.24,4.84,3.32h-1.78c-.19-1.19-1.22-1.89-3.06-1.89S845,568,845,568.88s.41,1.41,3.21,2.19c3.4.95,4.37,2,4.37,3.84s-1.73,3.64-4.78,3.64c-2.63,0-4.62-1.44-5-3.69h1.78c.21,1.38,1.33,2.26,3.15,2.26,2,0,3.08-1,3.08-2.14S850.3,573.31,847,572.41Z" transform="translate(9 -25.68)"/><path class="cls-8" d="M854.39,578.29V566.06H856v4.4a3.21,3.21,0,0,1,2.58-1.26c1.92,0,3.13,1.17,3.13,3.33v5.76H860.1v-5.74a1.71,1.71,0,0,0-1.89-2,2.15,2.15,0,0,0-2.19,2.32v5.38Z" transform="translate(9 -25.68)"/><path class="cls-8" d="M871.64,575.75a3.85,3.85,0,0,1-4,2.8c-2.52,0-4.34-1.56-4.34-4.67s1.81-4.68,4.25-4.68,4.15,1.46,4.15,5H865c.14,2,1.24,2.94,2.72,2.94a2.15,2.15,0,0,0,2.14-1.42Zm-6.56-2.81h5a2.32,2.32,0,0,0-2.45-2.43A2.51,2.51,0,0,0,865.08,572.94Z" transform="translate(9 -25.68)"/><path class="cls-8" d="M875.16,578.29h-1.63V566.06h1.63Z" transform="translate(9 -25.68)"/><path class="cls-8" d="M881.74,567.42a5.37,5.37,0,0,0-1.35-.21.85.85,0,0,0-.93.9v1.35h1.9v1.39h-1.9v7.44h-1.63v-7.44h-1.31v-1.39h1.31v-1.25a2.3,2.3,0,0,1,2.46-2.41,5.58,5.58,0,0,1,1.45.2Z" transform="translate(9 -25.68)"/><path class="cls-8" d="M304.09,389.29h1.75a5.09,5.09,0,0,1-5.34,4.57c-3.42,0-5.61-2.29-5.61-6.37s2.38-6.38,5.74-6.38c2.95,0,5,1.94,5.19,4.19h-1.75a3.18,3.18,0,0,0-3.44-2.74c-2.34,0-4,1.61-4,4.93,0,3.16,1.58,4.91,3.87,4.91A3.38,3.38,0,0,0,304.09,389.29Z" transform="translate(9 -25.68)"/><path class="cls-8" d="M309.34,393.61h-1.63V381.37h1.63Z" transform="translate(9 -25.68)"/><path class="cls-8" d="M315.58,384.51c2.41,0,4.35,1.5,4.35,4.68s-1.87,4.67-4.37,4.67-4.35-1.61-4.35-4.67S313.18,384.51,315.58,384.51Zm0,8c1.57,0,2.64-1.16,2.64-3.35s-1.14-3.35-2.65-3.35-2.67,1.14-2.67,3.35S314.06,392.54,315.59,392.54Z" transform="translate(9 -25.68)"/><path class="cls-8" d="M323.35,384.77v5.8a1.66,1.66,0,0,0,1.83,1.9,2.12,2.12,0,0,0,2.18-2.31v-5.39H329v8.84h-1.34l-.19-1a3.19,3.19,0,0,1-2.65,1.27c-1.82,0-3.1-1.07-3.1-3.33v-5.76Z" transform="translate(9 -25.68)"/><path class="cls-8" d="M338,393.61l-.29-1.24a3.42,3.42,0,0,1-2.94,1.49c-2.23,0-3.91-1.63-3.91-4.62,0-3.16,1.65-4.73,4-4.73a3.34,3.34,0,0,1,2.84,1.38v-4.52h1.63v12.24Zm-2.87-1.14c1.68,0,2.67-1.33,2.67-3.18,0-2.16-1-3.38-2.67-3.38s-2.57,1-2.57,3.36C332.56,391.4,333.65,392.47,335.13,392.47Z" transform="translate(9 -25.68)"/><path class="cls-8" d="M356.58,381.37v12.24h-2.19l-5.9-10.25v10.25h-1.58V381.37h2.29L355,391.53V381.37Z" transform="translate(9 -25.68)"/><path class="cls-8" d="M358.71,387.23c.17-1.63,1.58-2.72,3.79-2.72s3.6,1.24,3.6,3.06v6h-1.34l-.21-1.21a3.43,3.43,0,0,1-2.95,1.46c-1.94,0-3.06-1.08-3.06-2.53,0-1.61,1-2.53,3.34-2.94l2.59-.44v-.44c0-1.09-.73-1.7-2-1.7s-1.87.54-2,1.42Zm5.76,3.13v-1.14l-2.19.39c-1.59.28-2,.77-2,1.55s.61,1.33,1.72,1.33A2.39,2.39,0,0,0,364.47,390.36Z" transform="translate(9 -25.68)"/><path class="cls-8" d="M372.34,393.69a4.36,4.36,0,0,1-1.21.17,2.2,2.2,0,0,1-2.36-2.44v-5.26h-1.31v-1.39h1.31l.1-2.13h1.53v2.13h1.91v1.39H370.4v5.29c0,.66.32,1,.94,1a3.7,3.7,0,0,0,1-.14Z" transform="translate(9 -25.68)"/><path class="cls-8" d="M373.77,383.29v-1.92h1.83v1.92Zm.1,10.32v-8.84h1.63v8.84Z" transform="translate(9 -25.68)"/><path class="cls-8" d="M385.26,384.77l-3.11,8.84h-2.21l-3.08-8.84h1.79l2.44,7.51,2.47-7.51Z" transform="translate(9 -25.68)"/><path class="cls-8" d="M394.06,391.06a3.84,3.84,0,0,1-4,2.8c-2.51,0-4.33-1.56-4.33-4.67s1.8-4.68,4.25-4.68,4.15,1.47,4.15,5h-6.74c.14,2,1.25,2.94,2.72,2.94a2.16,2.16,0,0,0,2.15-1.43Zm-6.56-2.81h5a2.33,2.33,0,0,0-2.45-2.43A2.52,2.52,0,0,0,387.5,388.25Z" transform="translate(9 -25.68)"/><path class="cls-8" d="M278.55,401.77c2.82,0,4.27,1.22,4.27,3.25a2.67,2.67,0,0,1-2,2.51,3,3,0,0,1,2.34,3c0,2.16-1.59,3.45-4.67,3.45h-4.37V401.77Zm-2.67,1.31v3.86h2.91c1.5,0,2.28-.79,2.28-1.92s-.87-1.94-2.38-1.94Zm0,5.18v4.34h2.89c1.77,0,2.62-.73,2.62-2,0-1.5-.87-2.3-2.55-2.3Z" transform="translate(9 -25.68)"/><path class="cls-8" d="M285.15,414v-8.84h1.34l.22,1.31a2.45,2.45,0,0,1,2.25-1.57,4.14,4.14,0,0,1,1,.12v1.64a3.78,3.78,0,0,0-1-.16c-1.12,0-2.11.83-2.11,3.06V414Z" transform="translate(9 -25.68)"/><path class="cls-8" d="M294.89,404.91c2.41,0,4.35,1.5,4.35,4.68s-1.87,4.67-4.37,4.67-4.35-1.61-4.35-4.67S292.49,404.91,294.89,404.91Zm0,8c1.56,0,2.63-1.16,2.63-3.35s-1.14-3.35-2.65-3.35-2.67,1.14-2.67,3.35S293.38,412.94,294.91,412.94Z" transform="translate(9 -25.68)"/><path class="cls-8" d="M300.77,407.63c.17-1.63,1.58-2.72,3.79-2.72s3.61,1.24,3.61,3.06v6h-1.35l-.2-1.21a3.45,3.45,0,0,1-3,1.46c-1.94,0-3.06-1.09-3.06-2.53,0-1.61,1-2.53,3.35-2.94l2.58-.44v-.44c0-1.09-.73-1.7-2-1.7s-1.87.54-2,1.42Zm5.76,3.13v-1.14l-2.19.39c-1.58.28-2,.77-2,1.55s.62,1.33,1.72,1.33A2.39,2.39,0,0,0,306.53,410.76Z" transform="translate(9 -25.68)"/><path class="cls-8" d="M317.09,414l-.29-1.24a3.42,3.42,0,0,1-2.94,1.49c-2.23,0-3.91-1.63-3.91-4.62,0-3.16,1.65-4.73,4-4.73a3.33,3.33,0,0,1,2.84,1.38v-4.52h1.63V414Zm-2.87-1.14c1.68,0,2.67-1.33,2.67-3.18,0-2.16-1-3.38-2.67-3.38s-2.57,1.05-2.57,3.36C311.65,411.8,312.74,412.87,314.22,412.87Z" transform="translate(9 -25.68)"/><path class="cls-8" d="M320.81,414V401.77h1.64v4.62a3.47,3.47,0,0,1,2.95-1.48c2.33,0,3.9,1.67,3.9,4.61s-1.69,4.74-4,4.74a3.31,3.31,0,0,1-2.87-1.43l-.25,1.18Zm4.22-7.7c-1.46,0-2.67,1.07-2.67,3.18s1.07,3.38,2.67,3.38,2.57-1.05,2.57-3.38S326.49,406.31,325,406.31Z" transform="translate(9 -25.68)"/><path class="cls-8" d="M330.83,407.63c.17-1.63,1.58-2.72,3.79-2.72s3.6,1.24,3.6,3.06v6h-1.34l-.21-1.21a3.43,3.43,0,0,1-2.95,1.46c-1.94,0-3.06-1.09-3.06-2.53,0-1.61,1-2.53,3.35-2.94l2.58-.44v-.44c0-1.09-.73-1.7-2-1.7s-1.87.54-2,1.42Zm5.76,3.13v-1.14l-2.19.39c-1.58.28-2,.77-2,1.55s.61,1.33,1.72,1.33A2.39,2.39,0,0,0,336.59,410.76Z" transform="translate(9 -25.68)"/><path class="cls-8" d="M340.52,414v-8.84h1.34l.19,1.12a3.25,3.25,0,0,1,2.68-1.38c1.92,0,3.13,1.18,3.13,3.34V414h-1.63v-5.75a1.71,1.71,0,0,0-1.89-1.95,2.15,2.15,0,0,0-2.19,2.24V414Z" transform="translate(9 -25.68)"/><path class="cls-8" d="M356.78,414l-.28-1.24a3.45,3.45,0,0,1-2.95,1.49c-2.22,0-3.9-1.63-3.9-4.62,0-3.16,1.64-4.73,4-4.73a3.34,3.34,0,0,1,2.84,1.38v-4.52h1.63V414Zm-2.87-1.14c1.68,0,2.67-1.33,2.67-3.18,0-2.16-1-3.38-2.67-3.38s-2.56,1.05-2.56,3.36C351.35,411.8,352.43,412.87,353.91,412.87Z" transform="translate(9 -25.68)"/><path class="cls-8" d="M373.29,414l-3-4.66h-2.9V414h-1.74V401.77h4c3.11,0,4.85,1.38,4.85,3.84A3.45,3.45,0,0,1,372,409l3.3,5Zm-5.86-10.83v4.76h2.31c1.9,0,3-.9,3-2.33,0-1.58-1-2.43-3-2.43Z" transform="translate(9 -25.68)"/><path class="cls-8" d="M380.3,404.91c2.41,0,4.35,1.5,4.35,4.68s-1.87,4.67-4.37,4.67-4.35-1.61-4.35-4.67S377.9,404.91,380.3,404.91Zm0,8c1.57,0,2.64-1.16,2.64-3.35s-1.14-3.35-2.65-3.35-2.67,1.14-2.67,3.35S378.78,412.94,380.31,412.94Z" transform="translate(9 -25.68)"/><path class="cls-8" d="M388.06,405.17V411a1.68,1.68,0,0,0,1.84,1.91,2.12,2.12,0,0,0,2.18-2.31v-5.39h1.63V414h-1.35l-.18-1a3.19,3.19,0,0,1-2.65,1.27c-1.82,0-3.1-1.07-3.1-3.33v-5.76Z" transform="translate(9 -25.68)"/><path class="cls-8" d="M400,414.09a4.34,4.34,0,0,1-1.2.17,2.2,2.2,0,0,1-2.37-2.44v-5.26h-1.31v-1.39h1.31l.1-2.13h1.53v2.13H400v1.39h-1.91v5.29a.85.85,0,0,0,.94,1,3.56,3.56,0,0,0,1-.13Z" transform="translate(9 -25.68)"/><path class="cls-8" d="M409.26,411.46a3.84,3.84,0,0,1-4,2.8c-2.51,0-4.33-1.56-4.33-4.67s1.8-4.68,4.25-4.68,4.14,1.47,4.14,5h-6.73c.14,2,1.24,2.94,2.72,2.94a2.16,2.16,0,0,0,2.14-1.43Zm-6.56-2.81h5a2.32,2.32,0,0,0-2.45-2.43A2.52,2.52,0,0,0,402.7,408.65Z" transform="translate(9 -25.68)"/><path class="cls-8" d="M411.32,414v-8.84h1.34l.22,1.31a2.45,2.45,0,0,1,2.25-1.57,4.14,4.14,0,0,1,1,.12v1.64a3.78,3.78,0,0,0-1-.16c-1.12,0-2.11.83-2.11,3.06V414Z" transform="translate(9 -25.68)"/><path class="cls-8" d="M904.79,345.17h1.75a5.09,5.09,0,0,1-5.34,4.58c-3.41,0-5.61-2.3-5.61-6.38S898,337,901.34,337c2.94,0,5,1.94,5.18,4.18h-1.75a3.18,3.18,0,0,0-3.43-2.74c-2.35,0-4,1.62-4,4.93,0,3.16,1.58,4.92,3.88,4.92A3.38,3.38,0,0,0,904.79,345.17Z" transform="translate(9 -25.68)"/><path class="cls-8" d="M910.06,337.25v12.24h-1.73V337.25Z" transform="translate(9 -25.68)"/><path class="cls-8" d="M922.11,337.25v12.24h-2.19L914,339.24v10.25h-1.58V337.25h2.29l5.83,10.17V337.25Z" transform="translate(9 -25.68)"/></g><g id="Layer_6" data-name="Layer 6"><g id="Cloud"><path class="cls-3" d="M296.3,333.65H277.13c-9.23,0-17.05,7.88-17.05,17.9a17.36,17.36,0,0,0,17.05,17.19H405A17.36,17.36,0,0,0,422,351.55a18.48,18.48,0,0,0-12.79-17.18,17.13,17.13,0,0,1-16.33,11.46H312.64a16.86,16.86,0,0,1-16.34-12.18" transform="translate(9 -25.68)"/><path class="cls-6" d="M296.3,333.65H277.13c-9.23,0-17.05,7.88-17.05,17.9a17.36,17.36,0,0,0,17.05,17.19H405A17.36,17.36,0,0,0,422,351.55a18.48,18.48,0,0,0-12.79-17.18,17.13,17.13,0,0,1-16.33,11.46H312.64a16.86,16.86,0,0,1-16.34-12.18" transform="translate(9 -25.68)"/><path class="cls-3" d="M341.74,310.87h-29c-9.19,0-17,7.8-17,17.73a12.06,12.06,0,0,0,.71,5H404.64c1.42,0,2.83.71,4.25.71a13.52,13.52,0,0,0,1.41-5.67A17.75,17.75,0,0,0,394,310.87a16.76,16.76,0,0,1-16.26,12.05H358a16.75,16.75,0,0,1-16.25-12.05" transform="translate(9 -25.68)"/><path class="cls-6" d="M341.74,310.87h-29c-9.19,0-17,7.8-17,17.73a12.06,12.06,0,0,0,.71,5H404.64c1.42,0,2.83.71,4.25.71a13.52,13.52,0,0,0,1.41-5.67A17.75,17.75,0,0,0,394,310.87a16.76,16.76,0,0,1-16.26,12.05H358a16.75,16.75,0,0,1-16.25-12.05" transform="translate(9 -25.68)"/><path class="cls-17" d="M404.82,333.65H296.41A16.84,16.84,0,0,0,312.7,346h80.07a17.11,17.11,0,0,0,16.3-11.58c-1.42,0-2.84-.73-4.25-.73" transform="translate(9 -25.68)"/><path class="cls-18" d="M404.82,333.65H296.41A16.84,16.84,0,0,0,312.7,346h80.07a17.11,17.11,0,0,0,16.3-11.58c-1.42,0-2.84-.73-4.25-.73" transform="translate(9 -25.68)"/><path class="cls-3" d="M377.93,288.09h-19.7c-9.14,0-16.88,7.83-16.88,17.8a12.29,12.29,0,0,0,.7,5h52.07a13.35,13.35,0,0,0,1.4-5,17.52,17.52,0,0,0-17.59-17.8" transform="translate(9 -25.68)"/><path class="cls-6" d="M377.93,288.09h-19.7c-9.14,0-16.88,7.83-16.88,17.8a12.29,12.29,0,0,0,.7,5h52.07a13.35,13.35,0,0,0,1.4-5,17.52,17.52,0,0,0-17.59-17.8" transform="translate(9 -25.68)"/><path class="cls-17" d="M392.88,310.87H342a16.83,16.83,0,0,0,16.27,12.32H378a16.81,16.81,0,0,0,16.26-12.32h-1.41" transform="translate(9 -25.68)"/><path class="cls-18" d="M392.88,310.87H342a16.83,16.83,0,0,0,16.27,12.32H378a16.81,16.81,0,0,0,16.26-12.32h-1.41" transform="translate(9 -25.68)"/></g><path class="cls-4" d="M391.5,195.16c.16,0,3.94-1.72,7.32-3.27v-9.28q-2.76,4.24-5.23,8.58C393.44,191.52,392.61,193,391.5,195.16Z" transform="translate(9 -25.68)"/><path class="cls-4" d="M449.24,179.89V146.44h-15v63h-35.4v-1.71c-7.09,3.44-14.94,7.25-16.36,7.88a7.9,7.9,0,0,1-6.28.13,8.88,8.88,0,0,1-3.87-3.62C372,211.51,360.05,184,360.05,184a6,6,0,0,1-.73-2.72,8.17,8.17,0,0,1,.15-1.75,7.12,7.12,0,0,1,5.25-5.58,6.67,6.67,0,0,1,1.24-.2c.09,0,1.09,0,1.5.05h.05a7.48,7.48,0,0,1,5.12,3.33c.13.21,5,10.48,6.25,12.74,6.77-11.36,13.41-21.51,19.94-30.58V92.64H365V89.57H352.11l-7.69-8.41V74.55H304.73l.44,15H281.86v86.08H261.49V137.22H238.77V183H204.54V321.31H186.45V224.84h-23V204.9l-21.59-16.82V132.61h-21.1V111.79l-10.23-1.2-9-9v-1.21H60.25v20H34.09V250.6h-9.6v-63H-9V376H212.62V271.53l26.59-31.87h60.55V228.3h7.42v11.36H454.06l23.4,31.87V179.89ZM386.3,102.14h7v17h-7Zm-10.15.08h7v16.91h-7Zm-1,58.74h-8.21V144.13h8.21Zm-9.23-58.23h8.21v16.83h-8.21ZM8.68,220.52h-7V203.7h7Zm21.65,90.11h-7V293.81h7ZM67.2,130.42h7v16.82h-7Zm11.65,62.34v15h-7v-15ZM67.2,152h7v16.82h-7ZM56.37,131h7v16.82h-7Zm-12.63-.6h9.62v16.82H43.74ZM54,248.16H44.34V231.33H54Zm0-78.7H44.34V152.64H54Zm9.44,78.1h-7V230.73h7Zm.6-78.1H57V152.64h7Zm10.22,78.7h-7V231.33h7Zm9,0h-7V231.33h7Zm.6-79.3h-7V152h7Zm0-21.62h-7V130.42h7Zm33.08,161.59h-7V292h7Zm0-37.85h-7V254.16h7Zm.6-37.24h-7V216.92h7Zm15.12-77.49h-7v-15h7ZM147,331.66h-7V314.84h7Zm34.45-21H173V293.21h8.41ZM173.64,283V266.18h7V283Zm7.81-30H173V235.54h8.41Zm45.77-18.6h-7v-15h7Zm0-25h-7v-15h7Zm31.87-37.55h-7.18V154.43h7.18Zm38.35-57.51v-15h7v15Zm11.79,91.68H301.8V190h7.43Zm1.11-32.12h-7.43v-16h7.43Zm9,32.11H312V189.88h7.43Zm1.11-32.11h-7.43v-16h7.43Zm9.84-.08h-7v-16h7Zm3.11-16.05h7v16.05h-7ZM341,207.47h-7.43v-16H341Zm12.77-105.16h8.21v16.82h-8.21Zm113,101.58h-7.42v-16h7.42Z" transform="translate(9 -25.68)"/><path class="cls-19" d="M624.46,87.27a16.55,16.55,0,0,0-2.28-2.78c-.29-.28-.58-.55-.89-.8a14.68,14.68,0,0,0-5-2.78,11.66,11.66,0,0,0,.7-2.56,9.68,9.68,0,0,0,.1-1.33h0a14.92,14.92,0,0,0-2-7.43,14.76,14.76,0,0,0-11.46-7.43v0a20.83,20.83,0,0,0,1-4.19,14.72,14.72,0,0,0-14.77-15H573.34c-7.68,0-14.18,6.58-14.18,15a10.32,10.32,0,0,0,.59,4.19h-.08c-4.77,0-24.53,0-24.53,0a13.76,13.76,0,0,0-6.73,1.77,14.67,14.67,0,0,0-5,4.74,13.64,13.64,0,0,0-.72,1.23A15.3,15.3,0,0,0,520.89,77h0a14.48,14.48,0,0,0,.25,3.19c0,.05,0,.09.05.15l-16-.09c-7.75,0-14.31,6.62-14.31,15a14.58,14.58,0,0,0,14.31,14.44H612.58A14.58,14.58,0,0,0,626.9,95.31,14.91,14.91,0,0,0,624.46,87.27Z" transform="translate(9 -25.68)"/></g></svg>