<?xml version="1.0" encoding="utf-8"?>
<!-- Generator: Adobe Illustrator 16.0.4, SVG Export Plug-In . SVG Version: 6.00 Build 0)  -->
<!DOCTYPE svg PUBLIC "-//W3C//DTD SVG 1.1//EN" "http://www.w3.org/Graphics/SVG/1.1/DTD/svg11.dtd">
<svg version="1.1" xmlns="http://www.w3.org/2000/svg" xmlns:xlink="http://www.w3.org/1999/xlink" x="0px" y="0px" width="1920px"
	 height="1080px" viewBox="0 0 1920 1080" style="enable-background:new 0 0 1920 1080;" xml:space="preserve">
<style type="text/css">
<![CDATA[
	.st0{fill-rule:evenodd;clip-rule:evenodd;fill:none;}
	.st1{fill-rule:evenodd;clip-rule:evenodd;}
	.st2{display:inline;}
	.st3{stroke:#000000;stroke-width:1.9011;stroke-miterlimit:10;}
	.st4{display:none;}
]]>
</style>
<g id="Layer_1" class="st4">
	<title>platform-icon</title>
	<g id="sing-sang-arw" class="st2">
		<path d="M484.6,1080h-26.2C196.2,1065.7-4.9,841.5,9.5,579.2C20.1,385,147.8,216.9,332,154.6c215.3-68.8,448.9,27.6,552.9,228.3
			l220.8,406.6c87.1,165.1,279.1,245.3,457.8,191c207.5-69.6,319.4-294.2,249.8-501.8c-14.9-44.3-37.4-85.6-66.7-122.1
			c-136.1-171.5-385.3-200.2-556.8-64.1c-11.9,9.5-23.3,19.6-34.1,30.4c-16.6,14.2-41.6,12.3-55.9-4.3c-12.7-14.8-12.7-36.7,0-51.5
			c185.6-185.8,486.8-186,672.6-0.3c185.8,185.6,186,486.8,0.3,672.6c-51.8,51.8-114.8,91-184.2,114.4
			c-215.3,68.8-448.9-27.6-552.9-228.3L814.7,418.9c-87.1-165.1-279.1-245.3-457.8-191C149.6,298,38.4,522.9,108.5,730.3
			c14.6,43.3,36.6,83.7,65,119.5c136.1,171.5,385.4,200.2,556.8,64.1c11.9-9.5,23.3-19.6,34.1-30.4c16.6-14.2,41.6-12.3,55.9,4.3
			c12.7,14.8,12.7,36.7,0,51.5C731.5,1028.9,610.7,1079.5,484.6,1080z"/>
		<path d="M1356.5,436c-3.7,0.5-7.4,0.5-11.1,0L1068,356.7c-21.1-5.9-33.3-27.8-27.4-48.9c0-0.1,0.1-0.2,0.1-0.3l79.3-277.4
			c4.9-21.3,26.2-34.6,47.5-29.7c21.3,4.9,34.6,26.2,29.7,47.5c-0.3,1.4-0.7,2.7-1.2,4l-68.6,237.8l237.8,68.2
			c21.9,3,37.2,23.1,34.3,45c-3,21.9-23.1,37.2-45,34.3L1356.5,436z"/>
	</g>
</g>
<g id="Layer_2">
	<path id="Ethernet_Head" class="st3" d="M1900.3,508.4v-14.1H1848V478h51.9c-1.9-9-10-15.8-19.6-15.8h-143.3h-56.7h-2.9
		c-13.4,0-25.4,6.3-33.4,16.2h-16.7v43.8h-10.8v-42.2l-17.6,1.6v40.5H1588v-39.5l-18.1,1.7v37.8h-14v-36.5l-16.7,1.6v35h-14.4v-8.6
		v-24.8h-18.5c-3-1-37.4,10.2-37.4,24.8v68.6c0,14.6,34.5,25.8,37.4,24.8h18.5v-24.8v-12.2h14.4v38.3l16.7,1.2v-39.6h14v40.6
		l18.1,1.3v-42h10.8v42.8l17.6,1.3v-44.1h10.8v43.8h18.3c7.9,8.9,19.2,14.4,31.8,14.4h2.9h56.7h143.3c8.5,0,15.7-5.2,18.7-12.6h-51
		v-16.2h52.4v-14.1H1848v-16.2h52.4V555H1848v-16.2h52.4v-14.1H1848v-16.2H1900.3z M1716.6,610.5c0,2-1.6,3.6-3.6,3.6h-38.8
		c-2,0-3.6-1.6-3.6-3.6V480.1c0-2,1.6-3.6,3.6-3.6h38.8c2,0,3.6,1.6,3.6,3.6V610.5z"/>
	<g id="Cable">
		<path d="M964.9,842.9c-23.9,0-45.9-10.2-62.1-28.6c-16.8-19.2-25.6-45.8-25.6-77V307.7c0-26.7-10-55.1-28.6-55.1
			c-13.9,0-28.6,19.3-28.6,55.1c0,65,0.6,155.1,1.1,242.3c0.5,76.1,1,148,1,193.3c0,64.6-44.3,98.4-88,98.4s-88-33.8-88-98.4V304.5
			c0-16.9-4-30.5-11.5-39.2c-5.3-6.1-12.2-9.5-19.6-9.5c-15.5,0-32.1,15.3-32.1,48.7v118.6c0,52-4.3,64.5-21.5,86.8
			c-1.3,1.7-2.6,3.4-4.1,5.4c-12.6,17-32.4,27.9-57.3,31.6c-13.8,2.1-25.5,1.4-30,1H329.3v-52.4H473l1.6,0.2
			c7.6,0.9,31.7,0.6,40.7-11.6c1.7-2.2,3.2-4.3,4.7-6.1c8.8-11.5,10.6-13.8,10.6-54.9V304.5c0-66.4,42.5-101.1,84.5-101.1
			c41.5,0,83.4,34.7,83.4,101.1v438.7c0,34,19.2,46,35.7,46c16.4,0,35.7-12.1,35.7-46c0-45.1-0.5-116.9-1-192.9
			c-0.6-87.3-1.1-177.5-1.1-242.7c0-30.9,7.8-57.4,22.4-76.7c14.8-19.5,36.1-30.7,58.5-30.7c22.4,0,43.7,11.2,58.5,30.7
			c14.7,19.4,22.4,45.9,22.4,76.7v429.6c0,26.5,10.9,53.3,35.3,53.3c18,0,37.5-16.7,37.5-53.3V292c0-27.9,13.9-52.1,39.2-67.9
			c19.7-12.4,45.7-19.2,73.2-19.2c27.6,0,53.8,6.8,73.7,19.2c25.5,15.9,39.6,40,39.6,67.9v149.5c0,13.4-0.3,24.1-0.5,32.6
			c-0.3,11.9-0.6,20.6,0.4,24.6c0.4,1.6,1.4,3.9,7.9,11.2c8.3,9.3,39.4,15.2,57.9,15.8h187.3v52.4l-188.5,0
			c-11.3-0.3-69.2-3.5-95.8-33.2c-22.9-25.6-22.5-40.2-21.6-72.2c0.2-8.2,0.5-18.5,0.5-31.2V292c0-25.3-37.4-34.8-61-34.8
			c-24.1,0-60,9.3-60,34.8v445.3c0,30.8-9.2,57.4-26.7,76.8C1011.6,832.4,988.6,842.9,964.9,842.9z"/>
	</g>
	<g id="COAX">
		<path class="st0" d="M106.3,457c10-0.9,16.2,4.6,21.7,11.6c21.5,27.5,21.9,84.8,0.8,112.7c-6,7.9-11.7,11.1-21.1,11.3
			c18.5-11.8,23.9-30.2,26.8-49.7c2.7-17.8,1.4-35.5-4.1-52.7C126.1,476.6,119.6,464.3,106.3,457z"/>
		<path class="st1" d="M220.8,507.1c1.5-25.3-17.7-42-19.9-44.4c-3.4-3.3-9.7-11.2-15.2-16.8c-2.2-2.2-5.9-3.8-9-3.8
			c-17.4-0.2-34.8,0.9-52.1,0.2c-9.7-0.4-16.2,2.7-21.6,10.2c-1.4,1.9-4.5,3.4-6.9,3.5c-11.6,0.4-23.4,0.9-35,0.1
			c-17-1.2-27.8,7-34.2,21.5c-5.6,12.5-8.9,25-10,37.5h12.9c1.6-18.6,7.5-33.7,15.1-39.7c2.3-2,4.7-2.9,7.1-2.8c0.1,0,0.2,0,0.3,0
			c11.7,0,21.3,20,22.8,45.9H14.8c-4.3,0-7.8,3.5-7.8,7.8s3.5,7.8,7.8,7.8H75c-1.5,20.9-8.3,37.8-17.1,42.9
			c-1.9,1.2-3.8,1.7-5.7,1.6c-10.9,0-20.1-17.6-22.4-41.2H17.2c1.5,12,5,24.1,10.5,36c6.7,14.6,17.9,22.8,35.2,21.1
			c9.2-0.9,18.5,0,27.7-0.7c6.7-0.5,11.9,0.9,15.8,6.7c4.4,6.7,10.7,8.3,18.7,7.9c17.6-0.8,35.2-0.8,52.8-0.8c4.6,0,7.8-1.6,10.7-5
			c9.4-11,19.3-21.6,28.6-32.8c2.2-2.6,3.7-6.5,3.8-9.8C221.1,542.3,219.8,524.6,220.8,507.1z M128.8,581.3
			c-6,7.9-11.7,11.1-21.1,11.3c18.5-11.8,23.9-30.2,26.8-49.7c2.7-17.8,1.4-35.5-4.1-52.7c-4.4-13.6-10.8-25.9-24.1-33.2
			c10-0.9,16.2,4.6,21.7,11.6C149.5,496.1,149.9,553.4,128.8,581.3z"/>
		<path class="st1" d="M327.4,470.2c-2.8-0.2-6.2-1.9-8-4c-3.4-4-7.1-7.1-11.3-9.2h-99.8c6.4,7.5,12.8,14.9,19,22.6
			c1.6,2,3.1,4.9,3.2,7.4c0.5,24.6,0.8,49.3,0.8,73.9c0,2.7-1.4,5.9-3.2,8.1c-5.5,6.7-11.4,13.2-17.8,20.3h95.9
			c7.4-2.8,13-8.2,17.6-16c1-1.8,4.1-3.6,6-3.4C358.1,572.7,353.1,471.9,327.4,470.2z"/>
	</g>
</g>
</svg>
