<?xml version="1.0" encoding="utf-8"?>
<!-- Generator: Adobe Illustrator 16.0.4, SVG Export Plug-In . SVG Version: 6.00 Build 0)  -->
<!DOCTYPE svg PUBLIC "-//W3C//DTD SVG 1.1//EN" "http://www.w3.org/Graphics/SVG/1.1/DTD/svg11.dtd">
<svg version="1.1" id="Layer_1" xmlns="http://www.w3.org/2000/svg" xmlns:xlink="http://www.w3.org/1999/xlink" x="0px" y="0px"
	 width="1920px" height="1080px" viewBox="0 0 1920 1080" style="enable-background:new 0 0 1920 1080;" xml:space="preserve">
<style type="text/css">
<![CDATA[
	.st0{display:inline;fill:none;stroke:#FFFFFF;stroke-width:70;stroke-linejoin:round;stroke-miterlimit:10;}
	.st1{display:inline;fill:#FFFFFF;}
	.st2{fill:#FFFFFF;}
	.st3{display:inline;}
	.st4{fill-rule:evenodd;clip-rule:evenodd;fill:#FFFFFF;}
	.st5{display:none;}
]]>
</style>
<g id="Infinite_Video" class="st5">
	<title>platform-icon</title>
	<g id="sing-sang-arw" class="st3">
		<path d="M484.6,1080h-26.2C196.2,1065.7-4.9,841.5,9.5,579.2C20.1,385,147.8,216.9,332,154.6c215.3-68.8,448.9,27.6,552.9,228.3
			l220.8,406.6c87.1,165.1,279.1,245.3,457.8,191c207.5-69.6,319.4-294.2,249.8-501.8c-14.9-44.3-37.4-85.6-66.7-122.1
			c-136.1-171.5-385.3-200.2-556.8-64.1c-11.9,9.5-23.3,19.6-34.1,30.4c-16.6,14.2-41.6,12.3-55.9-4.3c-12.7-14.8-12.7-36.7,0-51.5
			c185.6-185.8,486.8-186,672.6-0.3c185.8,185.6,186,486.8,0.3,672.6c-51.8,51.8-114.8,91-184.2,114.4
			c-215.3,68.8-448.9-27.6-552.9-228.3L814.7,418.9c-87.1-165.1-279.1-245.3-457.8-191C149.6,298,38.4,522.9,108.5,730.3
			c14.6,43.3,36.6,83.7,65,119.5c136.1,171.5,385.4,200.2,556.8,64.1c11.9-9.5,23.3-19.6,34.1-30.4c16.6-14.2,41.6-12.3,55.9,4.3
			c12.7,14.8,12.7,36.7,0,51.5C731.5,1028.9,610.7,1079.5,484.6,1080z"/>
		<path d="M1356.5,436c-3.7,0.5-7.4,0.5-11.1,0L1068,356.7c-21.1-5.9-33.3-27.8-27.4-48.9c0-0.1,0.1-0.2,0.1-0.3L1120,30.1
			c4.9-21.3,26.2-34.6,47.5-29.7s34.6,26.2,29.7,47.5c-0.3,1.4-0.7,2.7-1.2,4l-68.6,237.8l237.8,68.2c21.9,3,37.2,23.1,34.3,45
			c-3,21.9-23.1,37.2-45,34.3L1356.5,436z"/>
	</g>
</g>
<g id="Cable_Access" class="st5">
	<path id="Ethernet_Head" class="st1" d="M1900.3,515.2v-17.1h-63.5v-19.7h63c-2.3-10.9-12.1-19.2-23.8-19.2h-173.9h-68.8h-3.5
		c-16.3,0-30.8,7.7-40.5,19.7H1569V532h-13.1v-51.1l-21.4,2v49.2h-13.1v-47.9l-21.9,2v45.9h-17v-44.3l-20.3,1.9v42.4h-17.5v-10.4
		v-30.1h-22.5c-3.6-1.2-45.4,12.4-45.4,30.1v83.2c0,17.7,41.8,31.3,45.4,30.1h22.5v-30.1v-14.8h17.5v46.5l20.3,1.5v-48h17v49.3
		l21.9,1.6v-50.9h13.1V642l21.4,1.6v-53.5h13.1v53.1h22.2c9.6,10.8,23.3,17.5,38.6,17.5h3.5h68.8H1876c10.3,0,19.1-6.4,22.6-15.3
		h-61.8v-19.7h63.5v-17.1h-63.5v-19.7h63.5v-17.1h-63.5v-19.7h63.5V535h-63.5v-19.7L1900.3,515.2L1900.3,515.2z M1677.5,639.1
		c0,2.4-2,4.4-4.4,4.4H1626c-2.4,0-4.4-2-4.4-4.4V480.9c0-2.4,2-4.4,4.4-4.4h47.1c2.4,0,4.4,2,4.4,4.4V639.1z"/>
	<g id="COAX" class="st3">
		<path class="st2" d="M145.8,459.9c14-1.2,22.7,6.5,30.3,16.2c30.1,38.4,30.7,118.6,1.1,157.5c-8.4,11-16.4,15.5-29.4,15.8
			c25.9-16.5,33.4-42.2,37.5-69.4c3.8-24.9,2-49.6-5.7-73.7C173.4,487.3,164.4,470.2,145.8,459.9z"/>
		<path class="st2" d="M305.9,530c2.1-35.4-24.7-58.8-27.8-62.1c-4.8-4.7-13.5-15.7-21.3-23.5c-3-3-8.3-5.3-12.6-5.3
			c-24.3-0.2-48.6,1.3-72.8,0.3c-13.5-0.6-22.7,3.7-30.2,14.3c-1.9,2.7-6.3,4.8-9.7,4.9c-16.3,0.5-32.6,1.3-48.9,0.1
			c-23.8-1.7-38.8,9.8-47.8,30c-7.8,17.4-12.4,34.9-13.9,52.4h18c2.3-26,10.4-47.1,21.1-55.6c3.2-2.7,6.5-4,9.9-3.9
			c0.1,0,0.3,0,0.4,0c16.3,0,29.8,27.9,31.9,64.1H17.9c-6,0-10.9,4.9-10.9,10.9s4.9,10.9,10.9,10.9H102
			c-2.1,29.3-11.5,52.8-23.9,59.9c-2.6,1.7-5.3,2.4-7.9,2.2c-15.3,0-28.1-24.6-31.3-57.6H21.3c2.1,16.8,7,33.6,14.7,50.3
			c9.4,20.4,25,31.9,49.2,29.4c12.8-1.3,25.9,0,38.7-0.9c9.4-0.7,16.7,1.2,22,9.3c6.2,9.4,15,11.6,26.1,11.1
			c24.6-1.1,49.2-1.1,73.8-1.1c6.5,0,10.8-2.2,15-7c13.2-15.4,27-30.2,40-45.8c3-3.6,5.2-9.1,5.3-13.8
			C306.3,579.1,304.4,554.4,305.9,530z M177.2,633.7c-8.4,11-16.4,15.5-29.4,15.8c25.9-16.5,33.4-42.2,37.5-69.4
			c3.8-24.9,2-49.6-5.7-73.7c-6.1-19.1-15.1-36.2-33.7-46.4c14-1.2,22.7,6.5,30.3,16.2C206.2,514.6,206.8,594.8,177.2,633.7z"/>
		<path class="st2" d="M454.9,478.3c-3.9-0.3-8.7-2.7-11.2-5.6c-4.8-5.6-9.9-10-15.7-12.9H288.5c9,10.5,18,20.9,26.6,31.5
			c2.3,2.9,4.4,6.9,4.4,10.4c0.7,34.4,1.1,68.9,1.1,103.3c0,3.8-2,8.3-4.5,11.3c-7.7,9.4-16,18.4-24.8,28.3h134
			c10.3-3.9,18.2-11.4,24.7-22.3c1.4-2.5,5.7-5,8.4-4.7C497.7,621.7,490.8,480.7,454.9,478.3z"/>
	</g>
	<path class="st0" d="M444.5,554.7c0,0,36,0,86,0s98,46.8,98,130.8c0,64,0,102.2,0,180c0,211.5,318,215.5,318,4c0-332,0-299.5,0-584
		s326-236,326-4c0,67.8,0,119,0,157.6c0,118.4,96,118.4,96,118.4h60"/>
</g>
<g id="Managed_Services">
	<path class="st4" d="M939.6,814.9c60.4,35.2,124.1,49.5,192.4,38.8c24.4-3.8,49-6.3,73.1-11.7c23.9-5.3,43.8-18.9,61.8-35.6
		c21.9-20.3,47.2-34.4,77.4-38.2c14.7-1.9,28.4,0.7,41.2,8.2c15.3,9,23.8,28.7,7.1,45.6c-2.7,2.7-5,5.6-7.5,8.5
		c1.1,1.3,1.6,2.4,2.5,2.8c15.1,8.6,17.8,14.9,10.6,30.7c-3.5,7.7-8.8,15.3-15.1,20.9c-13.2,11.9-27,23.1-41.5,33.3
		c-27.1,19-55,36.7-82.1,55.7c-25.8,18.1-55.2,22.9-85.5,26.9c-47.9,6.2-95.6,14.9-143.4,21.8c-22.7,3.3-45.6,5.2-68.5,7.3
		c-18.4,1.7-36.2-2-52.9-9.7c-64.9-29.7-129.6-59.7-194.3-89.6c-20.2-9.3-40.5-18.5-60.6-28.2c-20.7-9.9-42.5-15-65.3-16.9
		c-17.4-1.4-25-8.8-25.1-25.7c-0.3-63.4-0.2-126.9-0.1-190.3c0-11,5.2-18.6,16-21.7c68.2-20,137.5-32.8,208.9-29
		c45,2.4,87.7,14.8,128.2,34.5c0.6,0.3,1.3,0.5,1.9,0.9c42.3,27.3,89.7,33.1,138.6,35.8c43.1,2.4,85.6,10.6,126.8,24
		c17.7,5.7,32.9,14.9,42.3,31.8c4.8,8.7,6,17.5,3.2,27.1c-9.6,32.7-33.1,53.5-61.3,51.7c-56.6-3.5-113.2-8.3-169.8-11.6
		C978.9,812.3,959.2,814.3,939.6,814.9z"/>
	<path class="st4" d="M1245.4,728.1c-22.8-29.4-54.2-41.1-87.5-46.8c-44.9-7.7-90.1-13.5-135.3-18.9c-27.2-3.3-53.3-8.6-77.7-22
		c-59.1-32.8-122.7-48.1-190.4-47c-3.3,0.1-8-2.5-9.7-5.3c-18-30.7-18.4-22.9,6.7-44.5c10-8.6,20.1-17.3,30.5-25.5
		c4.8-3.9,5.7-7.6,3.8-13.5c-3.2-9.5-5.6-19.4-7.7-29.2c-1.4-6.4-4.5-9-11.1-10c-18.9-2.9-37.7-6.8-56.5-9.8
		c-7.3-1.2-10-4.5-9.9-11.8c0.3-19.2,0.4-38.4,0-57.5c-0.1-7.6,2.2-11.4,10.2-12.6c18.9-2.9,37.6-7,56.6-9.8
		c6.8-1,9.4-4.2,10.8-10.3c2-9.5,4-19.2,7.3-28.2c2.6-7,0.6-10.8-4.7-15.1c-14.3-11.6-28.2-23.9-42.6-35.5c-6.8-5.5-7.5-10.6-3-17.9
		c9.6-15.8,18.9-31.7,27.7-47.9c4-7.3,8.6-8.9,16.1-6c17.9,6.8,36,13.1,53.8,19.9c5.5,2.1,9.3,1.7,13.5-3.2
		c6.5-7.7,13.8-14.8,21.4-21.4c5.1-4.4,5.7-8.4,3.3-14.5c-6.8-17.5-12.7-35.4-19.5-52.9c-2.9-7.5-1.8-12.2,5.6-16.2
		c16.8-9.2,33.3-18.9,49.8-28.7c6.2-3.7,10.8-3,15.4,2.6c11.7,14.3,24,28.1,35.4,42.6c5,6.3,9.2,8.8,17.4,5.4c8.6-3.5,18-5.5,27.2-7
		c6.9-1.1,9.2-4.7,10.2-10.9c2.9-18.2,6.3-36.3,9.2-54.6c1.3-8.4,4.7-12.7,14.3-12.3c18.4,0.8,37,0.5,55.4,0.1
		c8.4-0.2,11.7,3.1,12.9,11.1c2.9,18.9,7,37.6,9.9,56.5c0.9,5.8,3,8.5,8.6,9.8c10.5,2.4,21,5,31.2,8.3c5.6,1.8,8.9,0.5,12.4-4
		c12.1-14.9,24.8-29.3,36.8-44.2c5.1-6.3,9.9-7.4,17-3.1c15.8,9.6,31.7,18.9,48,27.7c7.7,4.2,9.4,9,6.4,17
		c-6.6,17.2-12.3,34.8-19,51.9c-2.6,6.7-2.7,11.4,3.7,16c5.3,3.8,10.7,8.3,14.2,13.8c8,12.7,17.3,12.4,29.7,6.8
		c14.2-6.5,29.4-10.8,44-16.4c7.4-2.9,12.2-1.8,16.2,5.7c8.9,16.5,18.3,32.9,28.2,48.9c4.5,7.2,3.1,11.9-3,16.9
		c-14.9,12.1-29.3,24.8-44.2,36.8c-4.9,3.9-5.8,7.4-3.8,13.3c3.3,9.5,6.2,19.3,7.9,29.2c1.2,6.8,4.4,9.1,10.8,10.2
		c18.9,3,37.7,6.9,56.6,9.9c7.8,1.2,10.6,4.9,10.5,12.6c-0.3,18.8-0.4,37.7,0,56.5c0.2,8.4-3.3,11.8-11.2,13
		c-18.6,2.9-37,6.7-55.5,9.7c-6.3,1-9.9,3-11,10c-1.3,8.5-3.2,17.3-6.6,25.2c-4.3,9.5-1.3,14.9,6.3,20.7
		c13.5,10.4,26.1,22,39.5,32.7c6.8,5.5,8.6,10.4,3.5,18.5c-10,15.9-19.1,32.4-28.2,48.9c-3.5,6.4-7.7,7.9-14.5,5.3
		c-18.2-6.9-36.6-13.3-54.8-20.2c-5.5-2.1-9.3-2-13.5,3c-6.8,7.9-14.3,15.3-22.1,22.2c-4.4,3.9-5.3,7.1-3.2,12.5
		c6.8,17.9,13,36,19.8,53.9c2.9,7.7,2.2,13.2-6,17.1C1260.8,718.7,1253.5,723.5,1245.4,728.1z M891.8,415.1
		c0.6,100.3,85.1,174.6,178.5,170.7c88.7-3.7,168.1-78.7,164.1-178.7c-3.8-94.2-83.9-166.8-176.8-163.9
		C966,246.1,890,324,891.8,415.1z"/>
	<path class="st4" d="M422.9,764.8c0-46.3,0-92.7,0-139c0-18.5,6.6-25.1,25.3-25.2c20.6-0.1,41.1-0.2,61.7,0
		c17.9,0.2,24.5,6.9,24.5,24.9c0.1,93.4,0.1,186.8,0.1,280.2c0,19.1-6.8,25.8-25.9,25.8c-20.6,0-41.1,0.1-61.7-0.1
		c-17-0.1-23.9-7.2-23.9-24.4C422.9,859.6,422.9,812.2,422.9,764.8z"/>
</g>
</svg>
