<?xml version="1.0" encoding="utf-8"?>
<!-- Generator: Adobe Illustrator 16.0.4, SVG Export Plug-In . SVG Version: 6.00 Build 0)  -->
<!DOCTYPE svg PUBLIC "-//W3C//DTD SVG 1.1//EN" "http://www.w3.org/Graphics/SVG/1.1/DTD/svg11.dtd">
<svg version="1.1" xmlns="http://www.w3.org/2000/svg" xmlns:xlink="http://www.w3.org/1999/xlink" x="0px" y="0px" width="1920px"
	 height="1080px" viewBox="0 0 1920 1080" style="enable-background:new 0 0 1920 1080;" xml:space="preserve">
<style type="text/css">
<![CDATA[
	.st0{display:inline;stroke:#FFFFFF;stroke-width:1.1286;stroke-miterlimit:10;}
	.st1{fill:#FFFFFF;}
	.st2{display:inline;}
	.st3{display:inline;fill:#00AEEF;}
	.st4{display:inline;fill:none;}
	.st5{fill:#00AEEF;}
	.st6{display:none;}
]]>
</style>
<g id="Layer_5" class="st6">
	<rect x="-39" y="-25" class="st3" width="1980" height="1148"/>
</g>
<g id="Layer_1" class="st6">
	<g id="Managed_Services_Original">
		<path class="st2" d="M912.6,835.3c55,32,112.9,45,175.1,35.3c22.2-3.5,44.6-5.7,66.5-10.6c21.7-4.8,39.9-17.2,56.2-32.4
			c19.9-18.5,43-31.3,70.4-34.8c13.4-1.7,25.8,0.6,37.5,7.5c13.9,8.2,21.7,26.1,6.5,41.5c-2.5,2.5-4.5,5.1-6.8,7.7
			c1,1.2,1.5,2.2,2.3,2.5c13.7,7.8,16.2,13.6,9.6,27.9c-3.2,7-8,13.9-13.7,19c-12,10.8-24.6,21-37.8,30.3
			c-24.7,17.3-50,33.4-74.7,50.7c-23.5,16.5-50.2,20.8-77.8,24.5c-43.6,5.6-87,13.6-130.5,19.8c-20.7,3-41.5,4.7-62.3,6.6
			c-16.7,1.5-32.9-1.8-48.1-8.8c-59.1-27-117.9-54.3-176.8-81.5c-18.4-8.5-36.9-16.8-55.1-25.7c-18.8-9-38.7-13.6-59.4-15.4
			c-15.8-1.3-22.8-8-22.8-23.4c-0.3-57.7-0.2-115.5-0.1-173.2c0-10,4.7-16.9,14.6-19.7c62.1-18.2,125.1-29.8,190.1-26.4
			c41,2.2,79.8,13.5,116.7,31.4c0.5,0.3,1.2,0.5,1.7,0.8c38.5,24.8,81.6,30.1,126.1,32.6c39.2,2.2,77.9,9.6,115.4,21.8
			c16.1,5.2,29.9,13.6,38.5,28.9c4.4,7.9,5.5,15.9,2.9,24.7c-8.7,29.8-30.1,48.7-55.8,47c-51.5-3.2-103-7.6-154.5-10.6
			C948.3,833,930.4,834.8,912.6,835.3z"/>
		<path class="st0" d="M1190.9,756.3c-20.7-26.8-49.3-37.4-79.6-42.6c-40.9-7-82-12.3-123.1-17.2c-24.8-3-48.5-7.8-70.7-20
			c-53.8-29.8-111.7-43.8-173.3-42.8c-3,0.1-7.3-2.3-8.8-4.8c-16.4-27.9-16.7-20.8,6.1-40.5c9.1-7.8,18.3-15.7,27.8-23.2
			c4.4-3.5,5.2-6.9,3.5-12.3c-2.9-8.6-5.1-17.7-7-26.6c-1.3-5.8-4.1-8.2-10.1-9.1c-17.2-2.6-34.3-6.2-51.4-8.9
			c-6.6-1.1-9.1-4.1-9-10.7c0.3-17.5,0.4-34.9,0-52.3c-0.1-6.9,2-10.4,9.3-11.5c17.2-2.6,34.2-6.4,51.5-8.9c6.2-0.9,8.6-3.8,9.8-9.4
			c1.8-8.6,3.6-17.5,6.6-25.7c2.4-6.4,0.5-9.8-4.3-13.7c-13-10.6-25.7-21.8-38.8-32.3c-6.2-5-6.8-9.6-2.7-16.3
			c8.7-14.4,17.2-28.8,25.2-43.6c3.6-6.6,7.8-8.1,14.7-5.5c16.3,6.2,32.8,11.9,49,18.1c5,1.9,8.5,1.5,12.3-2.9
			c5.9-7,12.6-13.5,19.5-19.5c4.6-4,5.2-7.6,3-13.2c-6.2-15.9-11.6-32.2-17.7-48.1c-2.6-6.8-1.6-11.1,5.1-14.7
			c15.3-8.4,30.3-17.2,45.3-26.1c5.6-3.4,9.8-2.7,14,2.4c10.6,13,21.8,25.6,32.2,38.8c4.5,5.7,8.4,8,15.8,4.9
			c7.8-3.2,16.4-5,24.8-6.4c6.3-1,8.4-4.3,9.3-9.9c2.6-16.6,5.7-33,8.4-49.7c1.2-7.6,4.3-11.6,13-11.2c16.7,0.7,33.7,0.5,50.4,0.1
			c7.6-0.2,10.6,2.8,11.7,10.1c2.6,17.2,6.4,34.2,9,51.4c0.8,5.3,2.7,7.7,7.8,8.9c9.6,2.2,19.1,4.5,28.4,7.6
			c5.1,1.6,8.1,0.5,11.3-3.6c11-13.6,22.6-26.7,33.5-40.2c4.6-5.7,9-6.7,15.5-2.8c14.4,8.7,28.8,17.2,43.7,25.2
			c7,3.8,8.6,8.2,5.8,15.5c-6,15.7-11.2,31.7-17.3,47.2c-2.4,6.1-2.5,10.4,3.4,14.6c4.8,3.5,9.7,7.6,12.9,12.6
			c7.3,11.6,15.7,11.3,27,6.2c12.9-5.9,26.8-9.8,40-14.9c6.7-2.6,11.1-1.6,14.7,5.2c8.1,15,16.7,29.9,25.7,44.5
			c4.1,6.6,2.8,10.8-2.7,15.4c-13.6,11-26.7,22.6-40.2,33.5c-4.5,3.5-5.3,6.7-3.5,12.1c3,8.6,5.6,17.6,7.2,26.6
			c1.1,6.2,4,8.3,9.8,9.3c17.2,2.7,34.3,6.3,51.5,9c7.1,1.1,9.6,4.5,9.6,11.5c-0.3,17.1-0.4,34.3,0,51.4c0.2,7.6-3,10.7-10.2,11.8
			c-16.9,2.6-33.7,6.1-50.5,8.8c-5.7,0.9-9,2.7-10,9.1c-1.2,7.7-2.9,15.7-6,22.9c-3.9,8.6-1.2,13.6,5.7,18.8
			c12.3,9.5,23.8,20,35.9,29.8c6.2,5,7.8,9.5,3.2,16.8c-9.1,14.5-17.4,29.5-25.7,44.5c-3.2,5.8-7,7.2-13.2,4.8
			c-16.6-6.3-33.3-12.1-49.9-18.4c-5-1.9-8.5-1.8-12.3,2.7c-6.2,7.2-13,13.9-20.1,20.2c-4,3.5-4.8,6.5-2.9,11.4
			c6.2,16.3,11.8,32.8,18,49c2.6,7,2,12-5.5,15.6C1204.9,747.8,1198.2,752.2,1190.9,756.3z M869.1,471.5
			c0.5,91.3,77.4,158.9,162.4,155.3c80.7-3.4,153-71.6,149.3-162.6c-3.5-85.7-76.3-151.8-160.9-149.1
			C936.6,317.7,867.4,388.6,869.1,471.5z"/>
		<path class="st2" d="M442.4,789.7c0-42.1,0-84.4,0-126.5c0-16.8,6-22.8,23-22.9c18.7-0.1,37.4-0.2,56.1,0
			c16.3,0.2,22.3,6.3,22.3,22.7c0.1,85,0.1,170,0.1,255c0,17.4-6.2,23.5-23.6,23.5c-18.7,0-37.4,0.1-56.1-0.1
			c-15.5-0.1-21.7-6.6-21.7-22.2C442.4,876,442.4,832.9,442.4,789.7z"/>
	</g>
</g>
<g id="Dissolve" class="st6">
	<path class="st5" d="M1122.1,785.6c-18.4-23.7-43.7-33.1-70.6-37.7c-36.2-6.2-72.6-10.9-109.1-15.2c-21.9-2.7-43-6.9-62.6-17.7
		c-47.7-26.4-98.9-38.8-153.5-37.9c-2.7,0.1-6.5-2-7.8-4.3c-14.5-24.8-14.8-18.5,5.4-35.9c8.1-6.9,16.2-14,24.6-20.6
		c3.9-3.1,4.6-6.1,3.1-10.9c-2.6-7.7-4.5-15.6-6.2-23.5c-1.1-5.2-3.6-7.3-9-8.1c-15.2-2.3-30.4-5.5-45.6-7.9c-5.9-1-8.1-3.6-8-9.5
		c0.2-15.5,0.3-31,0-46.4c-0.1-6.1,1.8-9.2,8.2-10.2c15.2-2.3,30.3-5.6,45.6-7.9c5.5-0.8,7.6-3.4,8.7-8.3c1.6-7.7,3.2-15.5,5.9-22.7
		c2.1-5.6,0.5-8.7-3.8-12.2c-11.5-9.4-22.7-19.3-34.3-28.6c-5.5-4.4-6-8.5-2.4-14.4c7.7-12.7,15.2-25.6,22.3-38.6
		c3.2-5.9,6.9-7.2,13-4.8c14.4,5.5,29,10.6,43.4,16c4.4,1.7,7.5,1.4,10.9-2.6c5.2-6.2,11.1-11.9,17.3-17.3c4.1-3.5,4.6-6.8,2.7-11.7
		c-5.5-14.1-10.2-28.5-15.7-42.7c-2.3-6-1.5-9.8,4.5-13.1c13.5-7.4,26.8-15.2,40.2-23.1c5-3,8.7-2.4,12.4,2.1
		c9.4,11.5,19.4,22.7,28.5,34.3c4,5.1,7.4,7.1,14,4.4c6.9-2.8,14.5-4.4,21.9-5.6c5.6-0.9,7.4-3.8,8.2-8.8c2.3-14.7,5.1-29.3,7.4-44
		c1-6.8,3.8-10.2,11.5-9.9c14.8,0.6,29.8,0.4,44.7,0.1c6.8-0.2,9.4,2.5,10.4,8.9c2.3,15.2,5.6,30.3,8,45.6c0.7,4.7,2.4,6.9,6.9,7.9
		c8.5,1.9,16.9,4,25.2,6.7c4.5,1.5,7.2,0.4,10-3.2c9.8-12,20-23.6,29.7-35.6c4.1-5.1,8-6,13.7-2.5c12.7,7.7,25.6,15.2,38.7,22.3
		c6.2,3.4,7.6,7.3,5.2,13.7c-5.3,13.9-9.9,28.1-15.3,41.8c-2.1,5.4-2.2,9.2,3,12.9c4.3,3.1,8.6,6.7,11.4,11.1
		c6.4,10.2,13.9,10,23.9,5.5c11.5-5.2,23.7-8.7,35.5-13.2c6-2.3,9.8-1.5,13.1,4.6c7.2,13.3,14.8,26.5,22.7,39.4
		c3.6,5.8,2.5,9.6-2.4,13.6c-12,9.8-23.6,20-35.6,29.7c-4,3.1-4.7,6-3.1,10.7c2.7,7.7,5,15.6,6.4,23.5c1,5.5,3.5,7.3,8.7,8.2
		c15.2,2.4,30.4,5.6,45.6,8c6.3,1,8.5,4,8.5,10.2c-0.2,15.2-0.3,30.4,0,45.6c0.2,6.8-2.7,9.5-9,10.5c-15,2.3-29.8,5.4-44.7,7.8
		c-5.1,0.8-8,2.4-8.9,8.1c-1,6.9-2.6,13.9-5.3,20.3c-3.5,7.7-1,12,5.1,16.7c10.9,8.4,21,17.7,31.8,26.4c5.5,4.4,6.9,8.4,2.8,14.9
		c-8.1,12.8-15.4,26.1-22.7,39.4c-2.8,5.2-6.2,6.4-11.7,4.3c-14.7-5.6-29.5-10.7-44.2-16.3c-4.4-1.7-7.5-1.6-10.9,2.4
		c-5.5,6.4-11.5,12.3-17.8,17.9c-3.5,3.1-4.3,5.7-2.6,10.1c5.5,14.4,10.5,29,16,43.5c2.3,6.2,1.8,10.6-4.8,13.8
		C1134.5,778.1,1128.6,781.9,1122.1,785.6z M837,533.3c0.5,80.9,68.6,140.8,143.9,137.6c71.5-3,135.5-63.5,132.3-144.1
		c-3.1-76-67.6-134.5-142.6-132.2C896.8,397,835.5,459.8,837,533.3z"/>
	<path class="st2" d="M1316.4,322.2c0,1.2-1,2.3-2.3,2.3h-51.9c-1.2,0-2.3-1-2.3-2.3v-51.9c0-1.2,1-2.3,2.3-2.3h51.9
		c1.2,0,2.3,1,2.3,2.3V322.2z"/>
	<path class="st2" d="M1150.5,151.8c0-1.2-1-2.3-2.3-2.3h-29.3c-1.2,0-2.3,1-2.3,2.3v29.3c0,1.2,1,2.3,2.3,2.3h29.3
		c1.2,0,2.3-1,2.3-2.3V151.8z"/>
	<path class="st4" d="M1245,349.9c0-1.2-1-2.3-2.3-2.3h-80.1c-1.2,0-2.3,1-2.3,2.3V430c0,1.2,1,2.3,2.3,2.3h80.1
		c1.2,0,2.3-1,2.3-2.3V349.9z"/>
	<path class="st2" d="M984.2,86c0-0.7-0.6-1.3-1.3-1.3h-17.5c-0.7,0-1.3,0.6-1.3,1.3v17.5c0,0.7,0.6,1.3,1.3,1.3h17.5
		c0.7,0,1.3-0.6,1.3-1.3V86z"/>
	<path class="st2" d="M1161.8,208.2c0-1.2-1-2.3-2.3-2.3h-51.9c-1.2,0-2.3,1-2.3,2.3v51.9c0,1.2,1,2.3,2.3,2.3h51.9
		c1.2,0,2.3-1,2.3-2.3V208.2z"/>
	<path class="st4" d="M890.4,242.1c0-1.2-1-2.3-2.3-2.3h-51.9c-1.2,0-2.3,1-2.3,2.3V294c0,1.2,1,2.3,2.3,2.3h51.9
		c1.2,0,2.3-1,2.3-2.3V242.1z"/>
	<path class="st2" d="M960.9,157.4c0-1.2-1-2.3-2.3-2.3h-51.9c-1.2,0-2.3,1-2.3,2.3v51.9c0,1.2,1,2.3,2.3,2.3h51.9
		c1.2,0,2.3-1,2.3-2.3V157.4z"/>
	<path class="st2" d="M1081.8,123.6c0-1.2-1-2.3-2.3-2.3h-51.9c-1.2,0-2.3,1-2.3,2.3v51.9c0,1.2,1,2.3,2.3,2.3h51.9
		c1.2,0,2.3-1,2.3-2.3V123.6z"/>
	<path class="st4" d="M1003.3,242.1c0-1.2-1-2.3-2.3-2.3h-80.1c-1.2,0-2.3,1-2.3,2.3v80.1c0,1.2,1,2.3,2.3,2.3h80.1
		c1.2,0,2.3-1,2.3-2.3V242.1z"/>
	<path class="st4" d="M812.5,284.4c0-1.2-1-2.3-2.3-2.3h-80.1c-1.2,0-2.3,1-2.3,2.3v80.1c0,1.2,1,2.3,2.3,2.3h80.1
		c1.2,0,2.3-1,2.3-2.3V284.4z"/>
	<path class="st2" d="M1208.3,225.2c0-1.2-1-2.3-2.3-2.3h-29.3c-1.2,0-2.3,1-2.3,2.3v29.3c0,1.2,1,2.3,2.3,2.3h29.3
		c1.2,0,2.3-1,2.3-2.3V225.2z"/>
	<path class="st2" d="M921.4,93.7c0-1.2-1-2.3-2.3-2.3h-29.3c-1.2,0-2.3,1-2.3,2.3V123c0,1.2,1,2.3,2.3,2.3h29.3
		c1.2,0,2.3-1,2.3-2.3V93.7z"/>
	<path class="st4" d="M1250.6,253.4c0-1.2-1-2.3-2.3-2.3H1219c-1.2,0-2.3,1-2.3,2.3v29.3c0,1.2,1,2.3,2.3,2.3h29.3
		c1.2,0,2.3-1,2.3-2.3V253.4z"/>
	<path class="st2" d="M875.8,180c0-1.2-1-2.3-2.3-2.3h-29.3c-1.2,0-2.3,1-2.3,2.3v29.3c0,1.2,1,2.3,2.3,2.3h29.3
		c1.2,0,2.3-1,2.3-2.3V180z"/>
	<path class="st2" d="M1087.4,208.2c0-1.2-1-2.3-2.3-2.3h-29.3c-1.2,0-2.3,1-2.3,2.3v29.3c0,1.2,1,2.3,2.3,2.3h29.3
		c1.2,0,2.3-1,2.3-2.3V208.2z"/>
	<path class="st4" d="M1138.2,324.5c0-1.2-1-2.3-2.3-2.3h-80.1c-1.2,0-2.3,1-2.3,2.3v80.1c0,1.2,1,2.3,2.3,2.3h80.1
		c1.2,0,2.3-1,2.3-2.3V324.5z"/>
	<path class="st2" d="M1022.5,88c0-1.2-1-2.3-2.3-2.3h-6.8c-1.2,0-2.3,1-2.3,2.3v6.8c0,1.2,1,2.3,2.3,2.3h6.8c1.2,0,2.3-1,2.3-2.3
		V88z"/>
	<path class="st4" d="M1078.3,253.4c0-1.2-1-2.3-2.3-2.3h-51.9c-1.2,0-2.3,1-2.3,2.3v51.9c0,1.2,1,2.3,2.3,2.3h51.9
		c1.2,0,2.3-1,2.3-2.3V253.4z"/>
	<path class="st4" d="M1020.2,191.3c0-1.2-1-2.3-2.3-2.3h-29.3c-1.2,0-2.3,1-2.3,2.3v29.3c0,1.2,1,2.3,2.3,2.3h29.3
		c1.2,0,2.3-1,2.3-2.3V191.3z"/>
	<path class="st4" d="M1133.6,280.5c0-1.2-1-2.3-2.3-2.3H1102c-1.2,0-2.3,1-2.3,2.3v29.3c0,1.2,1,2.3,2.3,2.3h29.3
		c1.2,0,2.3-1,2.3-2.3V280.5z"/>
	<path class="st4" d="M1247.2,305.3c0-1.2-1-2.3-2.3-2.3h-29.3c-1.2,0-2.3,1-2.3,2.3v29.3c0,1.2,1,2.3,2.3,2.3h29.3
		c1.2,0,2.3-1,2.3-2.3V305.3z"/>
	<path class="st4" d="M1202.6,284.4c0-1.2-1-2.3-2.3-2.3h-51.9c-1.2,0-2.3,1-2.3,2.3v51.9c0,1.2,1,2.3,2.3,2.3h51.9
		c1.2,0,2.3-1,2.3-2.3V284.4z"/>
	<path class="st4" d="M909.6,309.8c0-1.2-1-2.3-2.3-2.3H878c-1.2,0-2.3,1-2.3,2.3v29.3c0,1.2,1,2.3,2.3,2.3h29.3
		c1.2,0,2.3-1,2.3-2.3V309.8z"/>
	<path class="st4" d="M862.2,326.7c0-1.2-1-2.3-2.3-2.3h-29.3c-1.2,0-2.3,1-2.3,2.3v29.3c0,1.2,1,2.3,2.3,2.3h29.3
		c1.2,0,2.3-1,2.3-2.3V326.7z"/>
	<path class="st4" d="M1316.4,349.9c0-1.2-1-2.3-2.3-2.3h-51.9c-1.2,0-2.3,1-2.3,2.3v51.9c0,1.2,1,2.3,2.3,2.3h51.9
		c1.2,0,2.3-1,2.3-2.3V349.9z"/>
	<path class="st2" d="M1111,123.6c0-1.2-1-2.3-2.3-2.3h-6.8c-1.2,0-2.3,1-2.3,2.3v6.8c0,1.2,1,2.3,2.3,2.3h6.8c1.2,0,2.3-1,2.3-2.3
		V123.6z"/>
	<path class="st2" d="M1083.9,82.4c0-1.2-1-2.3-2.3-2.3h-6.8c-1.2,0-2.3,1-2.3,2.3v6.8c0,1.2,1,2.3,2.3,2.3h6.8c1.2,0,2.3-1,2.3-2.3
		V82.4z"/>
	<polygon id="Bottom_block" class="st1" points="716.4,389.9 817.2,389.9 817.2,375.8 869.1,375.8 869.1,358.3 938.3,358.3 
		938.3,426.1 1128,426.1 1128,465.2 1255.1,465.2 1255.1,420.8 1404.8,420.8 1404.8,811.3 554.6,811.3 554.6,388.4 	"/>
	<g class="st2">
		<path class="st1" d="M812.5,364.5c0,1.2-1,2.3-2.3,2.3h-53.5c3.7,3.1,7.5,6.3,11.3,9.3c4.8,3.9,6.6,7.4,4.3,13.7c0,0,0,0,0,0.1
			h44.9v-14.1h51.9v-17.5h48.4c15.5-14.7,34-26.4,54.4-33.9h-51.1c-1.2,0-2.3-1-2.3-2.3v-80.1c0-1.2,1-2.3,2.3-2.3h80.1
			c1.2,0,2.3,1,2.3,2.3v74.5c5.5-0.8,11.1-1.3,16.7-1.5c17.9-0.6,35.3,2,51.7,7.1h64.3c1.2,0,2.3,1,2.3,2.3v39.3
			c8.5,8.9,15.9,18.8,22.1,29.5v-43.4c0-1.2,1-2.3,2.3-2.3h80.1c1.2,0,2.3,1,2.3,2.3V430c0,1.2-1,2.3-2.3,2.3h-66.5
			c2.6,10.3,4.2,21,4.7,32c0,0.3,0,0.6,0,0.9h29.4l0.3-19.8h22.6l0.5,19.8h21.5v-44.4h31.3c-0.8-1.3-1.4-2.9-1.8-5
			c-0.7-3.9-1.6-7.9-2.6-11.8h-19.8c-1.2,0-2.3-1-2.3-2.3v-51.9c0-1.2,1-2.3,2.3-2.3h51.9c0.6,0,1.1,0.2,1.5,0.6
			c1.8-1.5,3.6-3,5.5-4.5c5.6-4.5,6.8-8.8,2.7-15.4c-2.5-4.1-5-8.2-7.5-12.3v6.3c0,1.2-1,2.3-2.3,2.3h-51.9c-1.2,0-2.3-1-2.3-2.3
			v-35.3c-5.6,2-11.2,4.1-16.6,6.6c-11.3,5.1-19.7,5.4-27-6.2c-3.2-5-8.1-9.1-12.9-12.6c-5.8-4.2-5.7-8.5-3.4-14.6
			c0.4-1.1,0.9-2.3,1.3-3.5h-24.8c-1.2,0-2.3-1-2.3-2.3v-29.3c0-1.2,1-2.3,2.3-2.3h29.3c1.2,0,2.3,1,2.3,2.3v13
			c3-8.4,6-16.8,9.2-25.2c2.7-7.3,1.2-11.6-5.8-15.5c-14.8-8-29.3-16.5-43.7-25.2c-6.5-3.9-10.8-2.9-15.5,2.8
			c-0.6,0.8-1.3,1.6-1.9,2.3v3.7c0,1.2-1,2.3-2.3,2.3h-2.6c-6.3,7.6-12.6,15-18.9,22.6h32.9c1.2,0,2.3,1,2.3,2.3v51.9
			c0,1.2-1,2.3-2.3,2.3h-51.9c-1.2,0-2.3-1-2.3-2.3v-41.9c-5.9-1.8-11.9-3.5-18-4.9v24.2c0,1.2-1,2.3-2.3,2.3h-29.3
			c-1.2,0-2.3-1-2.3-2.3v-29.3c0-1.2,1-2.3,2.3-2.3h16.5c-0.4-1-0.6-2.1-0.9-3.5c-1.3-8.3-2.8-16.5-4.3-24.8h-39.5
			c-1.2,0-2.3-1-2.3-2.3v-34.1c-8.4,0-16.7-0.1-25-0.5c-8.7-0.4-11.8,3.6-13,11.2c-2.6,16.7-5.7,33.1-8.4,49.7
			c-0.9,5.6-3,8.9-9.3,9.9c-8.4,1.4-16.9,3.2-24.8,6.4c-7.5,3.1-11.3,0.8-15.8-4.9c-0.4-0.5-0.8-1-1.2-1.5h-21.1
			c-1.2,0-2.3-1-2.3-2.3v-25.7c-2.6-3.1-5.1-6.1-7.7-9.2c-4.2-5.1-8.4-5.7-14-2.4c-3.2,1.9-6.4,3.8-9.7,5.7h0.4c1.2,0,2.3,1,2.3,2.3
			v29.3c0,1.2-1,2.3-2.3,2.3h-29.3c-1.2,0-2.3-1-2.3-2.3v-13.7c-1.5,0.8-2.9,1.6-4.4,2.4c-6.7,3.6-7.7,7.9-5.1,14.7
			c3.5,8.9,6.7,17.9,9.9,26.9h45.8c1.2,0,2.3,1,2.3,2.3V294c0,1.2-1,2.3-2.3,2.3h-51.9c-1.2,0-2.3-1-2.3-2.3v-7.3
			c-2.2,2.3-4.3,4.6-6.3,7c-3.8,4.5-7.3,4.8-12.3,2.9c-1-0.4-1.9-0.7-2.9-1.1V364.5z M1213.4,305.3c0-1.2,1-2.3,2.3-2.3h29.3
			c1.2,0,2.3,1,2.3,2.3v29.3c0,1.2-1,2.3-2.3,2.3h-29.3c-1.2,0-2.3-1-2.3-2.3V305.3z M1146.2,284.4c0-1.2,1-2.3,2.3-2.3h51.9
			c1.2,0,2.3,1,2.3,2.3v51.9c0,1.2-1,2.3-2.3,2.3h-51.9c-1.2,0-2.3-1-2.3-2.3V284.4z M1099.8,280.5c0-1.2,1-2.3,2.3-2.3h29.3
			c1.2,0,2.3,1,2.3,2.3v29.3c0,1.2-1,2.3-2.3,2.3H1102c-1.2,0-2.3-1-2.3-2.3V280.5z M1021.9,253.4c0-1.2,1-2.3,2.3-2.3h51.9
			c1.2,0,2.3,1,2.3,2.3v51.9c0,1.2-1,2.3-2.3,2.3h-51.9c-1.2,0-2.3-1-2.3-2.3V253.4z M986.3,191.3c0-1.2,1-2.3,2.3-2.3h29.3
			c1.2,0,2.3,1,2.3,2.3v29.3c0,1.2-1,2.3-2.3,2.3h-29.3c-1.2,0-2.3-1-2.3-2.3V191.3z M875.8,309.8c0-1.2,1-2.3,2.3-2.3h29.3
			c1.2,0,2.3,1,2.3,2.3v29.3c0,1.2-1,2.3-2.3,2.3H878c-1.2,0-2.3-1-2.3-2.3V309.8z M828.3,326.7c0-1.2,1-2.3,2.3-2.3h29.3
			c1.2,0,2.3,1,2.3,2.3v29.3c0,1.2-1,2.3-2.3,2.3h-29.3c-1.2,0-2.3-1-2.3-2.3V326.7z"/>
		<path class="st1" d="M727.9,342.6v-17.2c-0.4,0.7-0.9,1.4-1.3,2.2C722.8,333.6,723.1,338,727.9,342.6z"/>
		<path class="st1" d="M776.2,282.2c-3.3-1.2-6.5-2.4-9.8-3.7c-6.1-2.4-10.2-1.4-13.5,3.7H776.2z"/>
	</g>
	<path class="st2" d="M1007.9,140.5c0-1.2-1-2.3-2.3-2.3h-29.3c-1.2,0-2.3,1-2.3,2.3v29.3c0,1.2,1,2.3,2.3,2.3h29.3
		c1.2,0,2.3-1,2.3-2.3V140.5z"/>
	<path class="st2" d="M953.9,129.2c0-1.2-1-2.3-2.3-2.3h-6.8c-1.2,0-2.3,1-2.3,2.3v6.8c0,1.2,1,2.3,2.3,2.3h6.8c1.2,0,2.3-1,2.3-2.3
		V129.2z"/>
	<path class="st2" d="M1212.6,180c0-1.2-1-2.3-2.3-2.3H1181c-1.2,0-2.3,1-2.3,2.3v29.3c0,1.2,1,2.3,2.3,2.3h29.3
		c1.2,0,2.3-1,2.3-2.3V180z"/>
	<path class="st2" d="M1247.2,253.4c0-1.2-1-2.3-2.3-2.3h-29.3c-1.2,0-2.3,1-2.3,2.3v29.3c0,1.2,1,2.3,2.3,2.3h29.3
		c1.2,0,2.3-1,2.3-2.3V253.4z"/>
	<path class="st2" d="M870.7,130.6c0-0.9-0.7-1.6-1.6-1.6h-20.5c-0.9,0-1.6,0.7-1.6,1.6v20.5c0,0.9,0.7,1.6,1.6,1.6h20.5
		c0.9,0,1.6-0.7,1.6-1.6V130.6z"/>
</g>
<g id="Layer_3" class="st6">
	<path class="st2" d="M1190.8,756.3c-20.8-26.8-49.3-37.4-79.6-42.6c-40.9-7-82-12.3-123.1-17.2c-24.8-3-48.5-7.8-70.7-20
		c-53.8-29.8-111.7-43.8-173.3-42.8c-3,0.1-7.3-2.3-8.8-4.8c-16.4-27.9-16.7-20.8,6.1-40.5c9.1-7.8,18.3-15.7,27.8-23.2
		c4.4-3.5,5.2-6.9,3.5-12.3c-2.9-8.6-5.1-17.7-7-26.6c-1.3-5.8-4.1-8.2-10.1-9.1c-17.2-2.6-34.3-6.2-51.4-8.9
		c-6.6-1.1-9.1-4.1-9-10.7c0.3-17.5,0.4-34.9,0-52.3c-0.1-6.9,2-10.4,9.3-11.5c17.2-2.6,34.2-6.4,51.5-8.9c6.2-0.9,8.6-3.8,9.8-9.4
		c1.8-8.6,3.6-17.5,6.6-25.7c2.4-6.4,0.5-9.8-4.3-13.7c-13-10.6-25.7-21.8-38.8-32.3c-6.2-5-6.8-9.6-2.7-16.3
		c8.7-14.4,17.2-28.8,25.2-43.6c3.6-6.6,7.8-8.1,14.7-5.5c16.3,6.2,32.8,11.9,49,18.1c5,1.9,8.5,1.5,12.3-2.9
		c5.9-7,12.6-13.5,19.5-19.5c4.6-4,5.2-7.6,3-13.2c-6.2-15.9-11.6-32.2-17.7-48.1c-2.6-6.8-1.6-11.1,5.1-14.7
		c15.3-8.4,30.3-17.2,45.3-26.1c5.6-3.4,9.8-2.7,14,2.4c10.6,13,21.8,25.6,32.2,38.8c4.5,5.7,8.4,8,15.8,4.9
		c7.8-3.2,16.4-5,24.8-6.4c6.3-1,8.4-4.3,9.3-9.9c2.6-16.6,5.7-33,8.4-49.7c1.2-7.6,4.3-11.6,13-11.2c16.7,0.7,33.7,0.5,50.4,0.1
		c7.6-0.2,10.6,2.8,11.7,10.1c2.6,17.2,6.4,34.2,9,51.4c0.8,5.3,2.7,7.7,7.8,8.9c9.6,2.2,19.1,4.5,28.4,7.6
		c5.1,1.6,8.1,0.5,11.3-3.6c11-13.6,22.6-26.7,33.5-40.2c4.6-5.7,9-6.7,15.5-2.8c14.4,8.7,28.8,17.2,43.7,25.2
		c7,3.8,8.6,8.2,5.8,15.5c-6,15.7-11.2,31.7-17.3,47.2c-2.4,6.1-2.5,10.4,3.4,14.6c4.8,3.5,9.7,7.6,12.9,12.6
		c7.3,11.6,15.7,11.3,27,6.2c12.9-5.9,26.8-9.8,40-14.9c6.7-2.6,11.1-1.6,14.7,5.2c8.1,15,16.7,29.9,25.7,44.5
		c4.1,6.6,2.8,10.8-2.7,15.4c-13.6,11-26.7,22.6-40.2,33.5c-4.5,3.5-5.3,6.7-3.5,12.1c3,8.6,5.6,17.6,7.2,26.6
		c1.1,6.2,4,8.3,9.8,9.3c17.2,2.7,34.3,6.3,51.5,9c7.1,1.1,9.6,4.5,9.6,11.5c-0.3,17.1-0.4,34.3,0,51.4c0.2,7.6-3,10.7-10.2,11.8
		c-16.9,2.6-33.7,6.1-50.5,8.8c-5.7,0.9-9,2.7-10,9.1c-1.2,7.7-2.9,15.7-6,22.9c-3.9,8.6-1.2,13.6,5.7,18.8
		c12.3,9.5,23.8,20,35.9,29.8c6.2,5,7.8,9.5,3.2,16.8c-9.1,14.5-17.4,29.5-25.7,44.5c-3.2,5.8-7,7.2-13.2,4.8
		c-16.6-6.3-33.3-12.1-49.9-18.4c-5-1.9-8.5-1.8-12.3,2.7c-6.2,7.2-13,13.9-20.1,20.2c-4,3.5-4.8,6.5-2.9,11.4
		c6.2,16.3,11.8,32.8,18,49c2.6,7,2,12-5.5,15.6C1204.8,747.8,1198.2,752.2,1190.8,756.3z M869,471.5
		c0.5,91.3,77.4,158.9,162.4,155.3c80.7-3.4,153-71.6,149.3-162.6c-3.5-85.7-76.3-151.8-160.9-149.1
		C936.5,317.7,867.4,388.6,869,471.5z"/>
	<path class="st3" d="M1316.4,322.2c0,1.2-1,2.3-2.3,2.3h-51.9c-1.2,0-2.3-1-2.3-2.3v-51.9c0-1.2,1-2.3,2.3-2.3h51.9
		c1.2,0,2.3,1,2.3,2.3V322.2z"/>
	<path class="st3" d="M1150.5,181.1c0,1.2-1,2.3-2.3,2.3h-29.3c-1.2,0-2.3-1-2.3-2.3v-29.3c0-1.2,1-2.3,2.3-2.3h29.3
		c1.2,0,2.3,1,2.3,2.3V181.1z"/>
	<path class="st3" d="M1244.9,430c0,1.2-1,2.3-2.3,2.3h-80.1c-1.2,0-2.3-1-2.3-2.3v-80.1c0-1.2,1-2.3,2.3-2.3h80.1
		c1.2,0,2.3,1,2.3,2.3V430z"/>
	<path class="st3" d="M987.7,106.1c0,1.2-1,2.3-2.3,2.3h-29.3c-1.2,0-2.3-1-2.3-2.3V76.8c0-1.2,1-2.3,2.3-2.3h29.3
		c1.2,0,2.3,1,2.3,2.3V106.1z"/>
	<path class="st3" d="M1161.8,260.1c0,1.2-1,2.3-2.3,2.3h-51.9c-1.2,0-2.3-1-2.3-2.3v-51.9c0-1.2,1-2.3,2.3-2.3h51.9
		c1.2,0,2.3,1,2.3,2.3V260.1z"/>
	<path class="st3" d="M890.3,294c0,1.2-1,2.3-2.3,2.3h-51.9c-1.2,0-2.3-1-2.3-2.3v-51.9c0-1.2,1-2.3,2.3-2.3h51.9
		c1.2,0,2.3,1,2.3,2.3V294z"/>
	<path class="st3" d="M960.9,209.4c0,1.2-1,2.3-2.3,2.3h-51.9c-1.2,0-2.3-1-2.3-2.3v-51.9c0-1.2,1-2.3,2.3-2.3h51.9
		c1.2,0,2.3,1,2.3,2.3V209.4z"/>
	<path class="st3" d="M1081.7,175.5c0,1.2-1,2.3-2.3,2.3h-51.9c-1.2,0-2.3-1-2.3-2.3v-51.9c0-1.2,1-2.3,2.3-2.3h51.9
		c1.2,0,2.3,1,2.3,2.3V175.5z"/>
	<path class="st3" d="M1003.2,322.2c0,1.2-1,2.3-2.3,2.3h-80.1c-1.2,0-2.3-1-2.3-2.3v-80.1c0-1.2,1-2.3,2.3-2.3h80.1
		c1.2,0,2.3,1,2.3,2.3V322.2z"/>
	<path class="st3" d="M812.5,364.5c0,1.2-1,2.3-2.3,2.3h-80.1c-1.2,0-2.3-1-2.3-2.3v-80.1c0-1.2,1-2.3,2.3-2.3h80.1
		c1.2,0,2.3,1,2.3,2.3V364.5z"/>
	<path class="st3" d="M1208.2,254.5c0,1.2-1,2.3-2.3,2.3h-29.3c-1.2,0-2.3-1-2.3-2.3v-29.3c0-1.2,1-2.3,2.3-2.3h29.3
		c1.2,0,2.3,1,2.3,2.3V254.5z"/>
	<path class="st3" d="M921.4,123c0,1.2-1,2.3-2.3,2.3h-29.3c-1.2,0-2.3-1-2.3-2.3V93.7c0-1.2,1-2.3,2.3-2.3h29.3
		c1.2,0,2.3,1,2.3,2.3V123z"/>
	<path class="st3" d="M1250.5,282.7c0,1.2-1,2.3-2.3,2.3h-29.3c-1.2,0-2.3-1-2.3-2.3v-29.3c0-1.2,1-2.3,2.3-2.3h29.3
		c1.2,0,2.3,1,2.3,2.3V282.7z"/>
	<path class="st3" d="M875.7,209.4c0,1.2-1,2.3-2.3,2.3h-29.3c-1.2,0-2.3-1-2.3-2.3V180c0-1.2,1-2.3,2.3-2.3h29.3
		c1.2,0,2.3,1,2.3,2.3V209.4z"/>
	<path class="st3" d="M1087.3,237.6c0,1.2-1,2.3-2.3,2.3h-29.3c-1.2,0-2.3-1-2.3-2.3v-29.3c0-1.2,1-2.3,2.3-2.3h29.3
		c1.2,0,2.3,1,2.3,2.3V237.6z"/>
	<path class="st3" d="M1138.1,404.6c0,1.2-1,2.3-2.3,2.3h-80.1c-1.2,0-2.3-1-2.3-2.3v-80.1c0-1.2,1-2.3,2.3-2.3h80.1
		c1.2,0,2.3,1,2.3,2.3V404.6z"/>
	<path class="st3" d="M1022.4,94.8c0,1.2-1,2.3-2.3,2.3h-6.8c-1.2,0-2.3-1-2.3-2.3V88c0-1.2,1-2.3,2.3-2.3h6.8c1.2,0,2.3,1,2.3,2.3
		V94.8z"/>
	<path class="st3" d="M1078.2,305.3c0,1.2-1,2.3-2.3,2.3h-51.9c-1.2,0-2.3-1-2.3-2.3v-51.9c0-1.2,1-2.3,2.3-2.3h51.9
		c1.2,0,2.3,1,2.3,2.3V305.3z"/>
	<path class="st3" d="M1020.1,220.6c0,1.2-1,2.3-2.3,2.3h-29.3c-1.2,0-2.3-1-2.3-2.3v-29.3c0-1.2,1-2.3,2.3-2.3h29.3
		c1.2,0,2.3,1,2.3,2.3V220.6z"/>
	<path class="st3" d="M1133.5,309.8c0,1.2-1,2.3-2.3,2.3h-29.3c-1.2,0-2.3-1-2.3-2.3v-29.3c0-1.2,1-2.3,2.3-2.3h29.3
		c1.2,0,2.3,1,2.3,2.3V309.8z"/>
	<path class="st3" d="M1247.1,334.6c0,1.2-1,2.3-2.3,2.3h-29.3c-1.2,0-2.3-1-2.3-2.3v-29.3c0-1.2,1-2.3,2.3-2.3h29.3
		c1.2,0,2.3,1,2.3,2.3V334.6z"/>
	<path class="st3" d="M1202.6,336.3c0,1.2-1,2.3-2.3,2.3h-51.9c-1.2,0-2.3-1-2.3-2.3v-51.9c0-1.2,1-2.3,2.3-2.3h51.9
		c1.2,0,2.3,1,2.3,2.3V336.3z"/>
	<path class="st3" d="M909.5,339.2c0,1.2-1,2.3-2.3,2.3h-29.3c-1.2,0-2.3-1-2.3-2.3v-29.3c0-1.2,1-2.3,2.3-2.3h29.3
		c1.2,0,2.3,1,2.3,2.3V339.2z"/>
	<path class="st3" d="M862.1,356.1c0,1.2-1,2.3-2.3,2.3h-29.3c-1.2,0-2.3-1-2.3-2.3v-29.3c0-1.2,1-2.3,2.3-2.3h29.3
		c1.2,0,2.3,1,2.3,2.3V356.1z"/>
	<path class="st3" d="M1316.4,401.8c0,1.2-1,2.3-2.3,2.3h-51.9c-1.2,0-2.3-1-2.3-2.3v-51.9c0-1.2,1-2.3,2.3-2.3h51.9
		c1.2,0,2.3,1,2.3,2.3V401.8z"/>
	<path class="st3" d="M1111,130.4c0,1.2-1,2.3-2.3,2.3h-6.8c-1.2,0-2.3-1-2.3-2.3v-6.8c0-1.2,1-2.3,2.3-2.3h6.8c1.2,0,2.3,1,2.3,2.3
		V130.4z"/>
	<path class="st3" d="M1087.3,57.7c0,1.2-1,2.3-2.3,2.3h-6.8c-1.2,0-2.3-1-2.3-2.3v-6.8c0-1.2,1-2.3,2.3-2.3h6.8
		c1.2,0,2.3,1,2.3,2.3V57.7z"/>
</g>
<g id="Compounded">
	<g>
		<path class="st1" d="M1078.3,305.3v-51.9c0-1.2-1-2.3-2.3-2.3h-51.9c-1.2,0-2.3,1-2.3,2.3v51.9c0,1.2,1,2.3,2.3,2.3h51.9
			C1077.3,307.5,1078.3,306.5,1078.3,305.3z"/>
		<path class="st1" d="M988.6,222.9h29.3c1.2,0,2.3-1,2.3-2.3v-29.3c0-1.2-1-2.3-2.3-2.3h-29.3c-1.2,0-2.3,1-2.3,2.3v29.3
			C986.3,221.9,987.3,222.9,988.6,222.9z"/>
		<path class="st1" d="M1138.2,363.8C1138.2,363.8,1138.2,363.8,1138.2,363.8l0-39.3c0-1.2-1-2.3-2.3-2.3h-64.3c0,0,0,0,0,0
			C1097.1,330.3,1120,344.7,1138.2,363.8z"/>
		<path class="st1" d="M1245,430v-80.1c0-1.2-1-2.3-2.3-2.3h-80.1c-1.2,0-2.3,1-2.3,2.3v43.4c0,0,0,0,0,0c7,12,12.4,25.1,15.9,39
			c0,0,0,0,0,0h66.5C1243.9,432.3,1245,431.3,1245,430z"/>
		<path class="st1" d="M1314.2,347.6h-51.9c-1.2,0-2.3,1-2.3,2.3v51.9c0,1.2,1,2.3,2.3,2.3h19.8c0.2,0.9-2.6-9-4.6-14.8
			c-1.8-5.4-1-8.6,3.5-12.1c11.7-9.4,23.1-19.3,34.7-29C1315.3,347.8,1314.8,347.6,1314.2,347.6z"/>
		<path class="st1" d="M1003.3,316.5v-74.5c0-1.2-1-2.3-2.3-2.3h-80.1c-1.2,0-2.3,1-2.3,2.3v80.1c0,1.2,1,2.3,2.3,2.3h51.1
			c0,0,0,0,0,0C982,320.8,992.5,318.1,1003.3,316.5z"/>
		<path class="st1" d="M890.4,294v-51.9c0-1.2-1-2.3-2.3-2.3h-45.8c2.5,7.1,5.1,14.2,7.8,21.2c2.2,5.6,1.6,9.2-3,13.2
			c-4.6,4-9,8.1-13.2,12.5v7.3c0,1.2,1,2.3,2.3,2.3h51.9C889.4,296.3,890.4,295.3,890.4,294z"/>
		<path class="st1" d="M834,286.7"/>
		<path class="st1" d="M1025.3,175.5c0,1.2,1,2.3,2.3,2.3h39.5c0.4,1.9-3-15.8-4.7-26.7c-1.1-7.3-4.1-10.3-11.7-10.1
			c-8.4,0.2-16.9,0.3-25.4,0.4V175.5z"/>
		<path class="st1" d="M904.5,209.4c0,1.2,1,2.3,2.3,2.3h21.1c0.4,0.5-15.1-18.2-23.3-28V209.4z"/>
		<path class="st1" d="M830.6,324.5c-1.2,0-2.3,1-2.3,2.3v29.3c0,1.2,1,2.3,2.3,2.3h29.3c1.2,0,2.3-1,2.3-2.3v-29.3
			c0-1.2-1-2.3-2.3-2.3H830.6z"/>
		<path class="st1" d="M1355.6,445.6c0.1-7-2.5-10.4-9.6-11.5c-17.2-2.7-34.3-6.3-51.5-9c-3.9-0.7-6.4-1.8-8.1-4.3h-31.3v44.4h-21.5
			l-0.5-19.8h-22.6l-0.3,19.8h-29.4c3.1,90.5-68.9,158.3-149.4,161.7c-85,3.5-161.9-64.1-162.4-155.3
			c-0.9-43.9,18.1-84.4,48.5-113.2c0,0,0,0,0,0h-48.4v17.5h-51.9v14.1h-44.9c0,0,0,0,0-0.1c-3,8.2-4.8,17-6.6,25.7
			c-1.3,5.6-3.6,8.5-9.8,9.4c-17.3,2.5-34.3,6.3-51.5,8.9c-7.3,1.1-9.4,4.5-9.3,11.5c0.4,17.4,0.3,34.9,0,52.3
			c-0.1,6.6,2.4,9.6,9,10.7c17.1,2.7,34.2,6.3,51.4,8.9c6,0.9,8.8,3.3,10.1,9.1c1.9,8.9,4.1,17.9,7,26.6c1.7,5.4,0.9,8.7-3.5,12.3
			c-9.5,7.5-18.7,15.4-27.8,23.2c-22.8,19.7-22.5,12.6-6.1,40.5c1.5,2.5,5.8,4.9,8.8,4.8c61.6-1,119.5,12.9,173.3,42.8
			c22.2,12.2,46,17,70.7,20c41.1,4.9,82.3,10.2,123.1,17.2c30.3,5.2,58.9,15.8,79.6,42.6c7.4-4.2,14-8.6,21.4-11.4
			c7.5-3.5,8.1-8.6,5.5-15.6c-6.2-16.3-11.8-32.8-18-49c-1.9-4.9-1.1-7.8,2.9-11.4c7.1-6.3,13.9-13,20.1-20.2
			c3.8-4.5,7.3-4.6,12.3-2.7c16.6,6.3,33.3,12.1,49.9,18.4c6.2,2.4,10,1,13.2-4.8c8.3-15,16.6-30,25.7-44.5c4.6-7.4,3-11.8-3.2-16.8
			c-12.2-9.7-23.7-20.3-35.9-29.8c-6.9-5.3-9.6-10.2-5.7-18.8c3.1-7.2,4.8-15.2,6-22.9c1-6.4,4.3-8.2,10-9.1
			c16.8-2.7,33.6-6.2,50.5-8.8c7.2-1.1,10.4-4.2,10.2-11.8C1355.2,479.9,1355.3,462.7,1355.6,445.6z"/>
		<path class="st1" d="M842.3,239.8"/>
		<path class="st1" d="M841.9,209.4c0,1.2,1,2.3,2.3,2.3h29.3c1.2,0,2.3-1,2.3-2.3V180c0-1.2-1-2.3-2.3-2.3h-0.4
			c-11.8,7-32.7,18.8-31.2,17.9V209.4z"/>
		<path class="st1" d="M878,341.4h29.3c1.2,0,2.3-1,2.3-2.3v-29.3c0-1.2-1-2.3-2.3-2.3H878c-1.2,0-2.3,1-2.3,2.3v29.3
			C875.8,340.4,876.8,341.4,878,341.4z"/>
		<path class="st1" d="M729.3,343.8c11.2,9,29.3,24.5,27.5,23h53.5c1.2,0,2.3-1,2.3-2.3v-69c1,0.4-29.8-10.8-46.1-17
			c-6.8-2.6-11-1.2-14.7,5.5c-8,14.7-16.5,29.2-25.2,43.6C722.5,334.2,723.1,338.8,729.3,343.8z"/>
		<path class="st1" d="M1146.2,284.4v51.9c0,1.2,1,2.3,2.3,2.3h51.9c1.2,0,2.3-1,2.3-2.3v-51.9c0-1.2-1-2.3-2.3-2.3h-51.9
			C1147.2,282.2,1146.2,283.2,1146.2,284.4z"/>
		<path class="st1" d="M1131.4,312.1c1.2,0,2.3-1,2.3-2.3v-29.3c0-1.2-1-2.3-2.3-2.3H1102c-1.2,0-2.3,1-2.3,2.3v29.3
			c0,1.2,1,2.3,2.3,2.3H1131.4z"/>
		<path class="st1" d="M1208.3,238.2v-13c0-1.2-1-2.3-2.3-2.3h-29.3c-1.2,0-2.3,1-2.3,2.3v29.3c0,1.2,1,2.3,2.3,2.3h24.8
			L1208.3,238.2z"/>
		<path class="st1" d="M1150.5,181.1v-3.7c-1.6,2-3.2,4-4.9,5.9h2.6C1149.5,183.4,1150.5,182.4,1150.5,181.1z"/>
		<path class="st1" d="M1079.3,211.4c-3.8-0.9-5.9-2.5-7-5.5h-16.5c-1.2,0-2.3,1-2.3,2.3v29.3c0,1.2,1,2.3,2.3,2.3h29.3
			c1.2,0,2.3-1,2.3-2.3v-24.2L1079.3,211.4z"/>
		<path class="st1" d="M1119,215.3c-3.2,4.1-6.2,5.3-11.3,3.6l-2.3-0.7v41.9c0,1.2,1,2.3,2.3,2.3h51.9c1.2,0,2.3-1,2.3-2.3v-51.9
			c0-1.2-1-2.3-2.3-2.3h-32.9L1119,215.3z"/>
		<path class="st1" d="M1260,322.2c0,1.2,1,2.3,2.3,2.3h51.9c1.2,0,2.3-1,2.3-2.3V316c0,0,0,0,0,0c-6.3-10.6-12.4-21.4-18.2-32.2
			c-3.6-6.8-8-7.8-14.7-5.2c-7.7,3-15.7,5.5-23.5,8.3V322.2z"/>
		<path class="st1" d="M1260,286.9"/>
		<path class="st1" d="M1247.2,334.6v-29.3c0-1.2-1-2.3-2.3-2.3h-29.3c-1.2,0-2.3,1-2.3,2.3v29.3c0,1.2,1,2.3,2.3,2.3h29.3
			C1246.2,336.9,1247.2,335.9,1247.2,334.6z"/>
	</g>
	<path class="st1" d="M912.6,835.3c55,32,112.9,45,175.1,35.3c22.2-3.5,44.6-5.7,66.5-10.6c21.7-4.8,39.9-17.2,56.2-32.4
		c19.9-18.5,43-31.3,70.4-34.8c13.4-1.7,25.8,0.6,37.5,7.5c13.9,8.2,21.7,26.1,6.5,41.5c-2.5,2.5-4.5,5.1-6.8,7.7
		c1,1.2,1.5,2.2,2.3,2.5c13.7,7.8,16.2,13.6,9.6,27.9c-3.2,7-8,13.9-13.7,19c-12,10.8-24.6,21-37.8,30.3
		c-24.7,17.3-50,33.4-74.7,50.7c-23.5,16.5-50.2,20.8-77.8,24.5c-43.6,5.6-87,13.6-130.5,19.8c-20.7,3-41.5,4.7-62.3,6.6
		c-16.7,1.5-32.9-1.8-48.1-8.8c-59.1-27-117.9-54.3-176.8-81.5c-18.4-8.5-36.9-16.8-55.1-25.7c-18.8-9-38.7-13.6-59.4-15.4
		c-15.8-1.3-22.8-8-22.8-23.4c-0.3-57.7-0.2-115.5-0.1-173.2c0-10,4.7-16.9,14.6-19.7c62.1-18.2,125.1-29.8,190.1-26.4
		c41,2.2,79.8,13.5,116.7,31.4c0.5,0.3,1.2,0.5,1.7,0.8c38.5,24.8,81.6,30.1,126.1,32.6c39.2,2.2,77.9,9.6,115.4,21.8
		c16.1,5.2,29.9,13.6,38.5,28.9c4.4,7.9,5.5,15.9,2.9,24.7c-8.7,29.8-30.1,48.7-55.8,47c-51.5-3.2-103-7.6-154.5-10.6
		C948.3,833,930.4,834.8,912.6,835.3z"/>
	<path class="st1" d="M442.4,789.7c0-42.1,0-84.4,0-126.5c0-16.8,6-22.8,23-22.9c18.7-0.1,37.4-0.2,56.1,0
		c16.3,0.2,22.3,6.3,22.3,22.7c0.1,85,0.1,170,0.1,255c0,17.4-6.2,23.5-23.6,23.5c-18.7,0-37.4,0.1-56.1-0.1
		c-15.5-0.1-21.7-6.6-21.7-22.2C442.4,876,442.4,832.9,442.4,789.7z"/>
	<path class="st1" d="M1316.4,322.2c0,1.2-1,2.3-2.3,2.3h-51.9c-1.2,0-2.3-1-2.3-2.3v-51.9c0-1.2,1-2.3,2.3-2.3h51.9
		c1.2,0,2.3,1,2.3,2.3V322.2z"/>
	<path class="st1" d="M1150.5,151.8c0-1.2-1-2.3-2.3-2.3h-29.3c-1.2,0-2.3,1-2.3,2.3v29.3c0,1.2,1,2.3,2.3,2.3h29.3
		c1.2,0,2.3-1,2.3-2.3V151.8z"/>
	<path class="st1" d="M984.2,86c0-0.7-0.6-1.3-1.3-1.3h-17.5c-0.7,0-1.3,0.6-1.3,1.3v17.5c0,0.7,0.6,1.3,1.3,1.3h17.5
		c0.7,0,1.3-0.6,1.3-1.3V86z"/>
	<path class="st1" d="M1161.8,208.2c0-1.2-1-2.3-2.3-2.3h-51.9c-1.2,0-2.3,1-2.3,2.3v51.9c0,1.2,1,2.3,2.3,2.3h51.9
		c1.2,0,2.3-1,2.3-2.3V208.2z"/>
	<path class="st1" d="M960.9,157.4c0-1.2-1-2.3-2.3-2.3h-51.9c-1.2,0-2.3,1-2.3,2.3v51.9c0,1.2,1,2.3,2.3,2.3h51.9
		c1.2,0,2.3-1,2.3-2.3V157.4z"/>
	<path class="st1" d="M1081.8,123.6c0-1.2-1-2.3-2.3-2.3h-51.9c-1.2,0-2.3,1-2.3,2.3v51.9c0,1.2,1,2.3,2.3,2.3h51.9
		c1.2,0,2.3-1,2.3-2.3V123.6z"/>
	<path class="st1" d="M1208.3,225.2c0-1.2-1-2.3-2.3-2.3h-29.3c-1.2,0-2.3,1-2.3,2.3v29.3c0,1.2,1,2.3,2.3,2.3h29.3
		c1.2,0,2.3-1,2.3-2.3V225.2z"/>
	<path class="st1" d="M921.4,93.7c0-1.2-1-2.3-2.3-2.3h-29.3c-1.2,0-2.3,1-2.3,2.3V123c0,1.2,1,2.3,2.3,2.3h29.3
		c1.2,0,2.3-1,2.3-2.3V93.7z"/>
	<path class="st1" d="M875.8,180c0-1.2-1-2.3-2.3-2.3h-29.3c-1.2,0-2.3,1-2.3,2.3v29.3c0,1.2,1,2.3,2.3,2.3h29.3
		c1.2,0,2.3-1,2.3-2.3V180z"/>
	<path class="st1" d="M1087.4,208.2c0-1.2-1-2.3-2.3-2.3h-29.3c-1.2,0-2.3,1-2.3,2.3v29.3c0,1.2,1,2.3,2.3,2.3h29.3
		c1.2,0,2.3-1,2.3-2.3V208.2z"/>
	<path class="st1" d="M1022.5,88c0-1.2-1-2.3-2.3-2.3h-6.8c-1.2,0-2.3,1-2.3,2.3v6.8c0,1.2,1,2.3,2.3,2.3h6.8c1.2,0,2.3-1,2.3-2.3
		V88z"/>
	<path class="st1" d="M1111,123.6c0-1.2-1-2.3-2.3-2.3h-6.8c-1.2,0-2.3,1-2.3,2.3v6.8c0,1.2,1,2.3,2.3,2.3h6.8c1.2,0,2.3-1,2.3-2.3
		V123.6z"/>
	<path class="st1" d="M1083.9,82.4c0-1.2-1-2.3-2.3-2.3h-6.8c-1.2,0-2.3,1-2.3,2.3v6.8c0,1.2,1,2.3,2.3,2.3h6.8c1.2,0,2.3-1,2.3-2.3
		V82.4z"/>
	<path class="st1" d="M1007.9,140.5c0-1.2-1-2.3-2.3-2.3h-29.3c-1.2,0-2.3,1-2.3,2.3v29.3c0,1.2,1,2.3,2.3,2.3h29.3
		c1.2,0,2.3-1,2.3-2.3V140.5z"/>
	<path class="st1" d="M953.9,129.2c0-1.2-1-2.3-2.3-2.3h-6.8c-1.2,0-2.3,1-2.3,2.3v6.8c0,1.2,1,2.3,2.3,2.3h6.8c1.2,0,2.3-1,2.3-2.3
		V129.2z"/>
	<path class="st1" d="M1212.6,180c0-1.2-1-2.3-2.3-2.3H1181c-1.2,0-2.3,1-2.3,2.3v29.3c0,1.2,1,2.3,2.3,2.3h29.3
		c1.2,0,2.3-1,2.3-2.3V180z"/>
	<path class="st1" d="M1247.2,253.4c0-1.2-1-2.3-2.3-2.3h-29.3c-1.2,0-2.3,1-2.3,2.3v29.3c0,1.2,1,2.3,2.3,2.3h29.3
		c1.2,0,2.3-1,2.3-2.3V253.4z"/>
	<path class="st1" d="M870.7,130.6c0-0.9-0.7-1.6-1.6-1.6h-20.5c-0.9,0-1.6,0.7-1.6,1.6v20.5c0,0.9,0.7,1.6,1.6,1.6h20.5
		c0.9,0,1.6-0.7,1.6-1.6V130.6z"/>
</g>
</svg>
